<svg class="main-svg" xmlns="http://www.w3.org/2000/svg" xmlns:xlink="http://www.w3.org/1999/xlink" width="700" height="500" style="" viewBox="0 0 700 500"><rect x="0" y="0" width="700" height="500" style="fill: rgb(255, 255, 255); fill-opacity: 1;"/><defs id="defs-c9df64"><g class="clips"><clipPath id="clipc9df64xyplot" class="plotclip"><rect width="352" height="320"/></clipPath><clipPath class="axesclip" id="clipc9df64x"><rect x="80" y="0" width="352" height="500"/></clipPath><clipPath class="axesclip" id="clipc9df64y"><rect x="0" y="100" width="700" height="320"/></clipPath><clipPath class="axesclip" id="clipc9df64xy"><rect x="80" y="100" width="352" height="320"/></clipPath></g><g class="gradients"/><g class="patterns"/></defs><g class="bglayer"/><g class="layer-below"><g class="imagelayer"/><g class="shapelayer"/></g><g class="cartesianlayer"><g class="subplot xy"><g class="layer-subplot"><g class="shapelayer"/><g class="imagelayer"/></g><g class="minor-gridlayer"><g class="x"/><g class="y"/></g><g class="gridlayer"><g class="x"><path class="xgrid crisp" transform="translate(115.2,0)" d="M0,100v320" style="stroke: rgb(0, 0, 0); stroke-opacity: 1; stroke-dasharray: 3px, 3px; stroke-width: 1px;"/><path class="xgrid crisp" transform="translate(150.4,0)" d="M0,100v320" style="stroke: rgb(0, 0, 0); stroke-opacity: 1; stroke-dasharray: 3px, 3px; stroke-width: 1px;"/><path class="xgrid crisp" transform="translate(185.6,0)" d="M0,100v320" style="stroke: rgb(0, 0, 0); stroke-opacity: 1; stroke-dasharray: 3px, 3px; stroke-width: 1px;"/><path class="xgrid crisp" transform="translate(220.8,0)" d="M0,100v320" style="stroke: rgb(0, 0, 0); stroke-opacity: 1; stroke-dasharray: 3px, 3px; stroke-width: 1px;"/><path class="xgrid crisp" transform="translate(256,0)" d="M0,100v320" style="stroke: rgb(0, 0, 0); stroke-opacity: 1; stroke-dasharray: 3px, 3px; stroke-width: 1px;"/><path class="xgrid crisp" transform="translate(291.2,0)" d="M0,100v320" style="stroke: rgb(0, 0, 0); stroke-opacity: 1; stroke-dasharray: 3px, 3px; stroke-width: 1px;"/><path class="xgrid crisp" transform="translate(326.4,0)" d="M0,100v320" style="stroke: rgb(0, 0, 0); stroke-opacity: 1; stroke-dasharray: 3px, 3px; stroke-width: 1px;"/><path class="xgrid crisp" transform="translate(361.6,0)" d="M0,100v320" style="stroke: rgb(0, 0, 0); stroke-opacity: 1; stroke-dasharray: 3px, 3px; stroke-width: 1px;"/><path class="xgrid crisp" transform="translate(396.8,0)" d="M0,100v320" style="stroke: rgb(0, 0, 0); stroke-opacity: 1; stroke-dasharray: 3px, 3px; stroke-width: 1px;"/></g><g class="y"><path class="ygrid crisp" transform="translate(0,374.31)" d="M80,0h352" style="stroke: rgb(0, 0, 0); stroke-opacity: 1; stroke-dasharray: 3px, 3px; stroke-width: 1px;"/><path class="ygrid crisp" transform="translate(0,344.5)" d="M80,0h352" style="stroke: rgb(0, 0, 0); stroke-opacity: 1; stroke-dasharray: 3px, 3px; stroke-width: 1px;"/><path class="ygrid crisp" transform="translate(0,314.7)" d="M80,0h352" style="stroke: rgb(0, 0, 0); stroke-opacity: 1; stroke-dasharray: 3px, 3px; stroke-width: 1px;"/><path class="ygrid crisp" transform="translate(0,284.89)" d="M80,0h352" style="stroke: rgb(0, 0, 0); stroke-opacity: 1; stroke-dasharray: 3px, 3px; stroke-width: 1px;"/><path class="ygrid crisp" transform="translate(0,255.08)" d="M80,0h352" style="stroke: rgb(0, 0, 0); stroke-opacity: 1; stroke-dasharray: 3px, 3px; stroke-width: 1px;"/><path class="ygrid crisp" transform="translate(0,225.28)" d="M80,0h352" style="stroke: rgb(0, 0, 0); stroke-opacity: 1; stroke-dasharray: 3px, 3px; stroke-width: 1px;"/><path class="ygrid crisp" transform="translate(0,195.47)" d="M80,0h352" style="stroke: rgb(0, 0, 0); stroke-opacity: 1; stroke-dasharray: 3px, 3px; stroke-width: 1px;"/><path class="ygrid crisp" transform="translate(0,165.66)" d="M80,0h352" style="stroke: rgb(0, 0, 0); stroke-opacity: 1; stroke-dasharray: 3px, 3px; stroke-width: 1px;"/><path class="ygrid crisp" transform="translate(0,135.86)" d="M80,0h352" style="stroke: rgb(0, 0, 0); stroke-opacity: 1; stroke-dasharray: 3px, 3px; stroke-width: 1px;"/><path class="ygrid crisp" transform="translate(0,106.05)" d="M80,0h352" style="stroke: rgb(0, 0, 0); stroke-opacity: 1; stroke-dasharray: 3px, 3px; stroke-width: 1px;"/></g></g><g class="zerolinelayer"><path class="yzl zl crisp" transform="translate(0,404.12)" d="M80,0h352" style="stroke: rgb(68, 68, 68); stroke-opacity: 1; stroke-width: 1px;"/></g><path class="xlines-below"/><path class="ylines-below"/><g class="overlines-below"/><g class="xaxislayer-below"/><g class="yaxislayer-below"/><g class="overaxes-below"/><g class="plot" transform="translate(80,100)" clip-path="url(#clipc9df64xyplot)"><g class="scatterlayer mlayer"><g class="trace scatter tracebe35ff" style="stroke-miterlimit: 2; opacity: 1;"><g class="fills"/><g class="errorbars"/><g class="lines"><path class="js-line" d="M0,16.87L49.28,21.83L49.63,21.87L102.78,30.02L103.14,30.08L138.34,37.85L138.69,37.94L165.44,45.59L165.79,45.7L196.77,57.01L197.12,57.16L222.11,68.65L222.46,68.83L240.42,78.64L240.77,78.85L256.96,88.95L257.31,89.18L274.91,101.62L275.26,101.88L293.57,116.52L293.92,116.82L314.69,135.59L315.04,135.92L337.92,159.15L338.27,159.53L352,174.64" style="vector-effect: non-scaling-stroke; fill: none; stroke: rgb(31, 119, 180); stroke-opacity: 1; stroke-width: 1px; opacity: 1;"/></g><g class="points"/><g class="text"/></g><g class="trace scatter trace8e02a4" style="stroke-miterlimit: 2; opacity: 1;"><g class="fills"/><g class="errorbars"/><g class="lines"><path class="js-line" d="M0,16L20.42,18.18L20.77,18.51L25.34,18.95L25.7,19L43.65,21.29L44,21.34L72.86,25.37L73.22,25.47L124.96,36.15L125.31,36.24L177.41,51.51L177.76,51.64L206.62,62.32L206.98,62.47L221.41,68.62L221.76,68.77L242.88,79.21L243.23,79.41L260.13,89.4L260.48,89.66L288.64,110.27L288.99,110.54L308,126.62L308.35,126.99L322.08,139.22L322.43,139.24L328.42,144.55L328.77,144.86L348.83,163.58L349.18,163.97L352,167.09" style="vector-effect: non-scaling-stroke; fill: none; stroke: rgb(255, 127, 14); stroke-opacity: 1; stroke-width: 1px; opacity: 1;"/></g><g class="points"/><g class="text"/></g><g class="trace scatter trace859b4c" style="stroke-miterlimit: 2; opacity: 1;"><g class="fills"/><g class="errorbars"/><g class="lines"><path class="js-line" d="M0,24.68L23.94,28.84L24.29,28.91L43.65,32.98L44,33.06L68.99,39.52L69.34,39.63L88.7,45.76L89.06,45.89L109.82,53.79L110.18,53.94L133.06,64.54L133.41,64.72L158.4,79.01L158.75,79.23L180.58,94.4L180.93,94.67L200.64,110.77L200.99,111.08L220,128.88L220.35,129.23L244.64,155.18L244.99,155.59L266.82,181.66L267.17,182.1L296.03,219.57L296.38,220.04L324.19,257.58L324.54,258.06L352,294.46" style="vector-effect: non-scaling-stroke; fill: none; stroke: rgb(44, 160, 44); stroke-opacity: 1; stroke-width: 1px; opacity: 1;"/></g><g class="points"/><g class="text"/></g><g class="trace scatter trace844c0b" style="stroke-miterlimit: 2; opacity: 1;"><g class="fills"/><g class="errorbars"/><g class="lines"><path class="js-line" d="M0,23.11L17.25,26.72L17.6,27.07L19.36,27.34L19.71,27.45L57.38,36.67L57.73,36.77L73.22,40.62L73.57,40.72L80.96,42.72L81.31,42.83L102.43,49.64L102.78,49.77L120.38,56.91L120.74,57.06L145.73,69.87L146.08,70.08L158.05,77.42L158.4,77.65L177.41,91.03L177.76,91.3L197.12,107.13L197.47,107.44L217.18,125.87L217.54,126.22L240.77,151.06L241.12,151.46L258.72,172.7L259.07,173.13L320.32,254.72L320.67,255.04L324.54,259.56L324.9,259.96L329.47,265.11L329.82,265.43L340.74,276.47L341.09,276.81L347.42,283.68L347.78,284.15L352,289.79" style="vector-effect: non-scaling-stroke; fill: none; stroke: rgb(214, 39, 40); stroke-opacity: 1; stroke-width: 1px; opacity: 1;"/></g><g class="points"/><g class="text"/></g><g class="trace scatter traceff368e" style="stroke-miterlimit: 2; opacity: 1;"><g class="fills"/><g class="errorbars"/><g class="lines"><path class="js-line" d="M0,37.07L25.34,45.07L25.7,45.2L48.22,54.33L48.58,54.49L68.29,64.3L68.64,64.49L86.24,74.89L86.59,75.12L102.08,85.74L102.43,86L120.38,100.24L120.74,100.54L141.86,120.19L142.21,120.54L162.62,142.57L162.98,142.98L180.22,163.8L180.58,164.25L200.64,190.66L200.99,191.15L229.86,231.98L230.21,232.49L280.19,304L280.54,303.63L311.17,263.87L311.52,263.44L329.82,242.1L330.18,241.71L349.89,220.84L350.24,220.49L352,218.73" style="vector-effect: non-scaling-stroke; fill: none; stroke: rgb(148, 103, 189); stroke-opacity: 1; stroke-width: 1px; opacity: 1;"/></g><g class="points"/><g class="text"/></g><g class="trace scatter trace048676" style="stroke-miterlimit: 2; opacity: 1;"><g class="fills"/><g class="errorbars"/><g class="lines"><path class="js-line" d="M0,38.62L32.03,47.59L32.38,47.75L40.13,50.45L40.48,50.58L54.56,56.59L54.91,56.77L67.58,63.38L67.94,63.59L84.83,74.05L85.18,74.3L97.86,83.29L98.21,83.54L120.03,101.27L120.38,101.58L135.52,115.58L135.87,115.92L158.05,139.09L158.4,139.48L181.63,167.09L181.98,167.53L201.7,193.37L202.05,193.85L235.49,240.95L235.84,241.45L269.28,287.94L269.63,288.41L281.95,303.82L282.3,303.36L317.15,259.62L317.5,259.15L321.73,253.74L322.08,253.11L323.49,251.37L323.84,250.83L330.53,241.87L330.88,241.35L346.37,220.44L346.72,220.09L352,214.96" style="vector-effect: non-scaling-stroke; fill: none; stroke: rgb(140, 86, 75); stroke-opacity: 1; stroke-width: 1px; opacity: 1;"/></g><g class="points"/><g class="text"/></g><g class="trace scatter trace2e7eea" style="stroke-miterlimit: 2; opacity: 1;"><g class="fills"/><g class="errorbars"/><g class="lines"><path class="js-line" d="M0,59.88L16.54,69.71L16.9,69.94L36.26,83.53L36.61,83.8L53.86,98.02L54.21,98.34L69.7,113.05L70.05,113.41L87.65,132.55L88,132.96L105.95,155.12L106.3,155.58L121.44,176.14L121.79,176.64L148.19,215.6L148.54,216.14L175.3,257.62L175.65,258.16L204.16,301.6L204.51,302.09L205.92,303.34L206.27,303.08L210.5,297.18L210.85,296.67L231.62,267.7L231.97,267.23L250.27,243.91L250.62,243.49L271.04,220.22L271.39,219.84L291.1,200.05L291.46,199.72L309.41,183.79L309.76,183.5L329.82,167.83L330.18,167.57L346.02,156.72L346.37,156.49L352,152.96" style="vector-effect: non-scaling-stroke; fill: none; stroke: rgb(227, 119, 194); stroke-opacity: 1; stroke-width: 1px; opacity: 1;"/></g><g class="points"/><g class="text"/></g><g class="trace scatter tracecf62cd" style="stroke-miterlimit: 2; opacity: 1;"><g class="fills"/><g class="errorbars"/><g class="lines"><path class="js-line" d="M0,58.72L15.49,67.45L15.84,67.77L24.29,73.43L24.64,73.78L37.31,83.73L37.66,84.04L47.17,92.35L47.52,92.67L66.18,110.74L66.53,111.11L80.61,126.23L80.96,126.64L105.95,156.9L106.3,157.35L122.5,179.23L122.85,179.72L145.38,212.55L145.73,213.08L205.92,303.41L206.27,303.32L209.09,299.66L209.44,299.18L233.38,266.92L233.73,266.46L254.14,241.41L254.5,241L273.5,219.36L273.86,218.97L298.14,193.64L298.5,193.31L310.46,182.25L310.82,182.07L317.15,176.76L317.5,176.47L320.67,174.14L321.02,173.83L323.49,172.15L323.84,171.83L328.42,168.93L328.77,168.72L332.64,166.46L332.99,166.23L344.96,160.55L345.31,160.44L352,156.32" style="vector-effect: non-scaling-stroke; fill: none; stroke: rgb(127, 127, 127); stroke-opacity: 1; stroke-width: 1px; opacity: 1;"/></g><g class="points"/><g class="text"/></g><g class="trace scatter traceed0018" style="stroke-miterlimit: 2; opacity: 1;"><g class="fills"/><g class="errorbars"/><g class="lines"><path class="js-line" d="M0,66.86L17.95,79.01L18.3,79.27L32.38,90.34L32.74,90.63L51.04,107.24L51.39,107.59L69.34,126.55L69.7,126.94L87.3,148.18L87.65,148.63L110.53,179.87L110.88,180.38L136.58,219.11L136.93,219.66L190.78,303.13L191.14,303.24L192.54,301.77L192.9,301.28L224.93,256.58L225.28,256.12L245.7,231.07L246.05,230.66L265.41,209.63L265.76,209.27L282.3,193.31L282.66,192.99L300.26,177.9L300.61,177.61L319.97,163.06L320.32,162.81L341.79,148.97L342.14,148.76L352,143.15" style="vector-effect: non-scaling-stroke; fill: none; stroke: rgb(188, 189, 34); stroke-opacity: 1; stroke-width: 1px; opacity: 1;"/></g><g class="points"/><g class="text"/></g><g class="trace scatter trace2453f0" style="stroke-miterlimit: 2; opacity: 1;"><g class="fills"/><g class="errorbars"/><g class="lines"><path class="js-line" d="M0,65.11L12.67,73.58L13.02,73.8L23.94,82.53L24.29,82.78L29.57,87.47L29.92,87.74L50.34,107.36L50.69,107.71L74.27,133.64L74.62,134.07L87.65,150.04L88,150.49L108.06,177.47L108.42,177.97L133.76,215.45L134.11,215.99L191.14,303.24L191.49,303.23L193.25,301.15L193.6,300.65L219.65,264.7L220,264.24L238.3,241.41L238.66,240.99L258.37,218.5L258.72,218.1L287.23,188.88L287.58,188.55L304.13,173.94L304.48,173.67L309.76,169.51L310.11,169.28L315.74,165.27L316.1,165L336.86,153.99L337.22,153.83L349.54,148.27L349.89,148.07L352,146.88" style="vector-effect: non-scaling-stroke; fill: none; stroke: rgb(23, 190, 207); stroke-opacity: 1; stroke-width: 1px; opacity: 1;"/></g><g class="points"/><g class="text"/></g><g class="trace scatter trace1abaa1" style="stroke-miterlimit: 2; opacity: 1;"><g class="fills"/><g class="errorbars"/><g class="lines"><path class="js-line" d="M0,77.49L17.25,91.22L17.6,91.53L32.74,105.47L33.09,105.82L47.17,120.51L47.52,120.9L64.42,140.84L64.77,141.28L82.02,164.14L82.37,164.63L102.43,193.96L102.78,194.5L118.27,218.6L118.62,219.16L147.14,264.89L147.49,265.46L171.78,302.97L172.13,303.08L173.54,301.71L173.89,301.22L209.44,251.16L209.79,250.71L225.63,231.11L225.98,230.7L245.34,209.25L245.7,208.89L260.83,193.97L261.18,193.64L286.18,172.26L286.53,171.98L306.59,157.43L306.94,157.19L327.01,144.7L327.36,144.5L348.83,133.09L349.18,132.92L352,131.55" style="vector-effect: non-scaling-stroke; fill: none; stroke: rgb(31, 119, 180); stroke-opacity: 1; stroke-width: 1px; opacity: 1;"/></g><g class="points"/><g class="text"/></g><g class="trace scatter trace13677a" style="stroke-miterlimit: 2; opacity: 1;"><g class="fills"/><g class="errorbars"/><g class="lines"><path class="js-line" d="M0,75.74L11.26,84.95L11.62,85.31L21.82,95L22.18,95.37L35.2,108.64L35.55,109.03L55.26,130.93L55.62,131.35L73.22,153.09L73.57,153.55L89.41,175.11L89.76,175.61L111.58,208.05L111.94,208.59L172.48,303.07L172.83,303.02L174.59,300.93L174.94,300.43L209.79,251.8L210.14,251.34L234.43,222.06L234.78,221.66L257.31,197.7L257.66,197.37L280.54,176.07L280.9,175.77L296.74,163.17L297.09,162.92L312.22,153L312.58,152.82L352,134.41" style="vector-effect: non-scaling-stroke; fill: none; stroke: rgb(255, 127, 14); stroke-opacity: 1; stroke-width: 1px; opacity: 1;"/></g><g class="points"/><g class="text"/></g><g class="trace scatter trace836271" style="stroke-miterlimit: 2; opacity: 1;"><g class="fills"/><g class="errorbars"/><g class="lines"><path class="js-line" d="M0,96.74L16.9,113.69L17.25,114.06L33.79,133.09L34.14,133.52L46.82,149.8L47.17,150.28L64.42,174.69L64.77,175.21L91.17,216.47L91.52,217.05L144.67,302.86L145.02,302.89L146.43,301.43L146.78,300.93L184.8,246.41L185.15,245.96L201.7,225.41L202.05,224.99L220,205.1L220.35,204.73L239.01,186.58L239.36,186.26L255.9,172.13L256.26,171.85L274.91,157.88L275.26,157.64L294.62,145.09L294.98,144.88L314.69,133.9L315.04,133.72L336.16,123.7L336.51,123.54L352,117.11" style="vector-effect: non-scaling-stroke; fill: none; stroke: rgb(44, 160, 44); stroke-opacity: 1; stroke-width: 1px; opacity: 1;"/></g><g class="points"/><g class="text"/></g><g class="trace scatter trace17752c" style="stroke-miterlimit: 2; opacity: 1;"><g class="fills"/><g class="errorbars"/><g class="lines"><path class="js-line" d="M0,96.39L11.97,109.04L12.32,109.46L38.72,140.71L39.07,141.14L60.19,168.82L60.54,169.31L75.33,190.7L75.68,191.22L105.6,238.61L105.95,239.18L143.97,300.76L144.32,301.27L146.08,302.85L146.43,302.65L148.9,299.36L149.25,298.84L176,259.66L176.35,259.17L196.42,232.89L196.77,232.45L216.48,209.39L216.83,209.01L233.38,191.68L233.73,191.33L254.14,172.47L254.5,172.17L269.98,159.84L270.34,159.59L281.95,151.56L282.3,151.33L302.02,140.09L302.37,139.91L332.29,126.16L332.64,126.02L352,116.5" style="vector-effect: non-scaling-stroke; fill: none; stroke: rgb(214, 39, 40); stroke-opacity: 1; stroke-width: 1px; opacity: 1;"/></g><g class="points"/><g class="text"/></g><g class="trace scatter trace6c4cc2" style="stroke-miterlimit: 2; opacity: 1;"><g class="fills"/><g class="errorbars"/><g class="lines"><path class="js-line" d="M0,105.98L16.19,123.68L16.54,124.09L29.22,139.64L29.57,140.09L45.76,162.12L46.11,162.63L63.71,189.03L64.06,189.58L81.31,217.28L81.66,217.86L108.06,261.81L108.42,262.4L133.41,302.56L133.76,302.8L134.82,302.26L135.17,301.82L142.21,291.18L142.56,290.64L161.92,262.13L162.27,261.63L181.28,236.27L181.63,235.82L199.23,214.87L199.58,214.48L221.41,191.83L221.76,191.49L241.12,174.24L241.47,173.95L259.07,160.32L259.42,160.06L283.36,144.24L283.71,144.03L298.14,135.82L298.5,135.63L317.5,126.15L317.86,125.99L334.4,118.77L334.75,118.63L352,111.92" style="vector-effect: non-scaling-stroke; fill: none; stroke: rgb(148, 103, 189); stroke-opacity: 1; stroke-width: 1px; opacity: 1;"/></g><g class="points"/><g class="text"/></g><g class="trace scatter tracee5fe0e" style="stroke-miterlimit: 2; opacity: 1;"><g class="fills"/><g class="errorbars"/><g class="lines"><path class="js-line" d="M0,106.47L12.32,120.57L12.67,121L30.98,143.57L31.33,144.04L49.28,167.78L49.63,168.27L69.7,197.59L70.05,198.13L88.35,227.2L88.7,227.77L135.17,302.8L135.52,302.72L137.28,300.63L137.63,300.11L167.9,255.48L168.26,254.99L187.62,229.68L187.97,229.25L203.46,210.96L203.81,210.57L219.65,193.59L220,193.24L236.19,177.64L236.54,177.32L255.9,161.06L256.26,160.79L271.39,150.03L271.74,149.81L288.64,139.88L288.99,139.69L309.76,129.83L310.11,129.68L352,109.83" style="vector-effect: non-scaling-stroke; fill: none; stroke: rgb(140, 86, 75); stroke-opacity: 1; stroke-width: 1px; opacity: 1;"/></g><g class="points"/><g class="text"/></g><g class="trace scatter trace77f6f6" style="stroke-miterlimit: 2; opacity: 1;"><g class="fills"/><g class="errorbars"/><g class="lines"><path class="js-line" d="M0,299.54L27.1,253.61L27.46,253.05L44.35,227.9L44.7,227.41L64.06,202.21L64.42,201.78L80.26,183.93L80.61,183.56L98.91,165.77L99.26,165.45L120.03,148.47L120.38,148.21L141.15,134.08L141.5,133.87L161.57,122.45L161.92,122.27L183.39,112.04L183.74,111.89L211.55,101.06L211.9,100.94L242.53,91.46L242.88,91.37L266.46,85.41L266.82,85.33L285.82,81.2L286.18,81.13L323.14,74.48L323.49,74.43L352,70.3" style="vector-effect: non-scaling-stroke; fill: none; stroke: rgb(227, 119, 194); stroke-opacity: 1; stroke-width: 1px; opacity: 1;"/></g><g class="points"/><g class="text"/></g><g class="trace scatter trace7f4071" style="stroke-miterlimit: 2; opacity: 1;"><g class="fills"/><g class="errorbars"/><g class="lines"><path class="js-line" d="M0,299.18L12.32,278.37L12.67,277.92L14.78,274.08L15.14,273.67L17.95,269.08L18.3,268.88L21.12,264.19L21.47,263.64L43.65,229.46L44,228.95L60.19,206.66L60.54,206.19L72.86,191.31L73.22,190.87L91.52,171.92L91.87,171.6L104.19,160.67L104.54,160.37L120.74,147.81L121.09,147.57L135.17,138.02L135.52,137.8L151.01,128.49L151.36,128.3L176.7,115.31L177.06,115.14L200.99,105.01L201.34,104.88L211.9,101L212.26,100.88L237.25,93.06L237.6,92.96L259.42,87.39L259.78,87.43L334.4,71.04L334.75,70.97L341.79,70.07L342.14,70.13L346.72,69.45L347.07,69.39L352,68.65" style="vector-effect: non-scaling-stroke; fill: none; stroke: rgb(127, 127, 127); stroke-opacity: 1; stroke-width: 1px; opacity: 1;"/></g><g class="points"/><g class="text"/></g><g class="trace scatter tracefc78e4" style="stroke-miterlimit: 2; opacity: 1;"><g class="fills"/><g class="errorbars"/><g class="lines"><path class="js-line" d="M0,276.86L16.54,249.49L16.9,248.93L33.09,224.88L33.44,224.39L48.93,203.99L49.28,203.56L62.66,187.93L63.01,187.55L77.09,172.96L77.44,172.61L93.28,158.26L93.63,157.96L108.06,146.56L108.42,146.3L124.96,134.93L125.31,134.71L140.1,125.88L140.45,125.69L156.99,117.08L157.34,116.91L181.28,106.41L181.63,106.27L203.46,98.34L203.81,98.23L225.28,91.65L225.63,91.55L251.33,84.97L251.68,84.89L271.04,80.67L271.39,80.6L308.35,73.95L308.7,73.9L341.09,69.26L341.44,69.21L352,67.9" style="vector-effect: non-scaling-stroke; fill: none; stroke: rgb(188, 189, 34); stroke-opacity: 1; stroke-width: 1px; opacity: 1;"/></g><g class="points"/><g class="text"/></g><g class="trace scatter trace54dbb2" style="stroke-miterlimit: 2; opacity: 1;"><g class="fills"/><g class="errorbars"/><g class="lines"><path class="js-line" d="M0,276.54L19.01,244.67L19.36,244.4L21.47,240.93L21.82,240.38L29.57,229.16L29.92,228.57L32.38,225.45L32.74,224.78L37.31,218.94L37.66,218.47L53.5,199.79L53.86,199.42L62.3,190.44L62.66,190.12L80.61,172.68L80.96,172.39L114.75,144.71L115.1,144.46L145.02,125.03L145.38,124.84L160.51,116.61L160.86,116.41L199.94,99.23L200.29,99.14L224.58,90.87L224.93,90.77L248.51,84.14L248.86,84.08L252.74,83.11L253.09,83.03L258.37,81.62L258.72,81.66L264,80.44L264.35,80.36L274.56,78.21L274.91,78.14L281.25,76.9L281.6,76.84L299.9,73.9L300.26,73.9L302.72,73.46L303.07,73.39L310.46,72.95L310.82,72.1L312.58,72.27L312.93,72.04L314.69,72.33L315.04,71.73L317.5,72.06L317.86,71.4L319.26,71.83L319.62,71.53L321.02,71.79L321.38,71.29L323.14,71.46L323.49,71.08L324.54,71.1L324.9,70.79L325.95,71.18L326.3,71.02L328.77,70.73L329.12,71.08L331.58,70.69L331.94,70.7L352,68.59" style="vector-effect: non-scaling-stroke; fill: none; stroke: rgb(23, 190, 207); stroke-opacity: 1; stroke-width: 1px; opacity: 1;"/></g><g class="points"/><g class="text"/></g></g></g><g class="overplot"/><path class="xlines-above crisp" d="M0,0" style="fill: none;"/><path class="ylines-above crisp" d="M0,0" style="fill: none;"/><g class="overlines-above"/><g class="xaxislayer-above"><g class="xtick"><text text-anchor="middle" x="0" y="433" transform="translate(80,0)" style="font-family: 'Open Sans', verdana, arial, sans-serif; font-size: 12px; fill: rgb(68, 68, 68); fill-opacity: 1; white-space: pre; opacity: 1;">25</text></g><g class="xtick"><text text-anchor="middle" x="0" y="433" style="font-family: 'Open Sans', verdana, arial, sans-serif; font-size: 12px; fill: rgb(68, 68, 68); fill-opacity: 1; white-space: pre; opacity: 1;" transform="translate(115.2,0)">26</text></g><g class="xtick"><text text-anchor="middle" x="0" y="433" style="font-family: 'Open Sans', verdana, arial, sans-serif; font-size: 12px; fill: rgb(68, 68, 68); fill-opacity: 1; white-space: pre; opacity: 1;" transform="translate(150.4,0)">27</text></g><g class="xtick"><text text-anchor="middle" x="0" y="433" style="font-family: 'Open Sans', verdana, arial, sans-serif; font-size: 12px; fill: rgb(68, 68, 68); fill-opacity: 1; white-space: pre; opacity: 1;" transform="translate(185.6,0)">28</text></g><g class="xtick"><text text-anchor="middle" x="0" y="433" style="font-family: 'Open Sans', verdana, arial, sans-serif; font-size: 12px; fill: rgb(68, 68, 68); fill-opacity: 1; white-space: pre; opacity: 1;" transform="translate(220.8,0)">29</text></g><g class="xtick"><text text-anchor="middle" x="0" y="433" style="font-family: 'Open Sans', verdana, arial, sans-serif; font-size: 12px; fill: rgb(68, 68, 68); fill-opacity: 1; white-space: pre; opacity: 1;" transform="translate(256,0)">30</text></g><g class="xtick"><text text-anchor="middle" x="0" y="433" style="font-family: 'Open Sans', verdana, arial, sans-serif; font-size: 12px; fill: rgb(68, 68, 68); fill-opacity: 1; white-space: pre; opacity: 1;" transform="translate(291.2,0)">31</text></g><g class="xtick"><text text-anchor="middle" x="0" y="433" style="font-family: 'Open Sans', verdana, arial, sans-serif; font-size: 12px; fill: rgb(68, 68, 68); fill-opacity: 1; white-space: pre; opacity: 1;" transform="translate(326.4,0)">32</text></g><g class="xtick"><text text-anchor="middle" x="0" y="433" style="font-family: 'Open Sans', verdana, arial, sans-serif; font-size: 12px; fill: rgb(68, 68, 68); fill-opacity: 1; white-space: pre; opacity: 1;" transform="translate(361.6,0)">33</text></g><g class="xtick"><text text-anchor="middle" x="0" y="433" style="font-family: 'Open Sans', verdana, arial, sans-serif; font-size: 12px; fill: rgb(68, 68, 68); fill-opacity: 1; white-space: pre; opacity: 1;" transform="translate(396.8,0)">34</text></g><g class="xtick"><text text-anchor="middle" x="0" y="433" style="font-family: 'Open Sans', verdana, arial, sans-serif; font-size: 12px; fill: rgb(68, 68, 68); fill-opacity: 1; white-space: pre; opacity: 1;" transform="translate(432,0)">35</text></g></g><g class="yaxislayer-above"><g class="ytick"><text text-anchor="end" x="79" y="4.199999999999999" transform="translate(0,404.12)" style="font-family: 'Open Sans', verdana, arial, sans-serif; font-size: 12px; fill: rgb(68, 68, 68); fill-opacity: 1; white-space: pre; opacity: 1;">0</text></g><g class="ytick"><text text-anchor="end" x="79" y="4.199999999999999" style="font-family: 'Open Sans', verdana, arial, sans-serif; font-size: 12px; fill: rgb(68, 68, 68); fill-opacity: 1; white-space: pre; opacity: 1;" transform="translate(0,374.31)">0.1</text></g><g class="ytick"><text text-anchor="end" x="79" y="4.199999999999999" style="font-family: 'Open Sans', verdana, arial, sans-serif; font-size: 12px; fill: rgb(68, 68, 68); fill-opacity: 1; white-space: pre; opacity: 1;" transform="translate(0,344.5)">0.2</text></g><g class="ytick"><text text-anchor="end" x="79" y="4.199999999999999" style="font-family: 'Open Sans', verdana, arial, sans-serif; font-size: 12px; fill: rgb(68, 68, 68); fill-opacity: 1; white-space: pre; opacity: 1;" transform="translate(0,314.7)">0.3</text></g><g class="ytick"><text text-anchor="end" x="79" y="4.199999999999999" style="font-family: 'Open Sans', verdana, arial, sans-serif; font-size: 12px; fill: rgb(68, 68, 68); fill-opacity: 1; white-space: pre; opacity: 1;" transform="translate(0,284.89)">0.4</text></g><g class="ytick"><text text-anchor="end" x="79" y="4.199999999999999" style="font-family: 'Open Sans', verdana, arial, sans-serif; font-size: 12px; fill: rgb(68, 68, 68); fill-opacity: 1; white-space: pre; opacity: 1;" transform="translate(0,255.08)">0.5</text></g><g class="ytick"><text text-anchor="end" x="79" y="4.199999999999999" style="font-family: 'Open Sans', verdana, arial, sans-serif; font-size: 12px; fill: rgb(68, 68, 68); fill-opacity: 1; white-space: pre; opacity: 1;" transform="translate(0,225.28)">0.6</text></g><g class="ytick"><text text-anchor="end" x="79" y="4.199999999999999" style="font-family: 'Open Sans', verdana, arial, sans-serif; font-size: 12px; fill: rgb(68, 68, 68); fill-opacity: 1; white-space: pre; opacity: 1;" transform="translate(0,195.47)">0.7</text></g><g class="ytick"><text text-anchor="end" x="79" y="4.199999999999999" style="font-family: 'Open Sans', verdana, arial, sans-serif; font-size: 12px; fill: rgb(68, 68, 68); fill-opacity: 1; white-space: pre; opacity: 1;" transform="translate(0,165.66)">0.8</text></g><g class="ytick"><text text-anchor="end" x="79" y="4.199999999999999" style="font-family: 'Open Sans', verdana, arial, sans-serif; font-size: 12px; fill: rgb(68, 68, 68); fill-opacity: 1; white-space: pre; opacity: 1;" transform="translate(0,135.86)">0.9</text></g><g class="ytick"><text text-anchor="end" x="79" y="4.199999999999999" style="font-family: 'Open Sans', verdana, arial, sans-serif; font-size: 12px; fill: rgb(68, 68, 68); fill-opacity: 1; white-space: pre; opacity: 1;" transform="translate(0,106.05)">1</text></g></g><g class="overaxes-above"/></g></g><g class="polarlayer"/><g class="smithlayer"/><g class="ternarylayer"/><g class="geolayer"/><g class="funnelarealayer"/><g class="pielayer"/><g class="iciclelayer"/><g class="treemaplayer"/><g class="sunburstlayer"/><g class="glimages"/><defs id="topdefs-c9df64"><g class="clips"/><clipPath id="legendc9df64"><rect width="249" height="320" x="0" y="0"/></clipPath></defs><g class="layer-above"><g class="imagelayer"/><g class="shapelayer"/></g><g class="infolayer"><g class="legend" pointer-events="all" transform="translate(439.04,100)"><rect class="bg" shape-rendering="crispEdges" style="stroke: rgb(68, 68, 68); stroke-opacity: 1; fill: rgb(255, 255, 255); fill-opacity: 1; stroke-width: 0px;" width="249" height="320" x="0" y="0"/><g class="scrollbox" transform="" clip-path="url(#legendc9df64)"><g class="groups"><g class="traces" transform="translate(0,14.5)" style="opacity: 1;"><text class="legendtext" text-anchor="start" x="40" y="4.680000000000001" style="font-family: 'Open Sans', verdana, arial, sans-serif; font-size: 12px; fill: rgb(68, 68, 68); fill-opacity: 1; white-space: pre;"> TrueLambda= 7.0603015075377</text><g class="layers" style="opacity: 1;"><g class="legendfill"/><g class="legendlines"><path class="js-line" d="M5,0h30" style="fill: none; stroke: rgb(31, 119, 180); stroke-opacity: 1; stroke-width: 1px;"/></g><g class="legendsymbols"><g class="legendpoints"/></g></g><rect class="legendtoggle" x="0" y="-9.5" width="243.609375" height="19" style="fill: rgb(0, 0, 0); fill-opacity: 0;"/></g><g class="traces" transform="translate(0,33.5)" style="opacity: 1;"><text class="legendtext" text-anchor="start" x="40" y="4.680000000000001" style="font-family: 'Open Sans', verdana, arial, sans-serif; font-size: 12px; fill: rgb(68, 68, 68); fill-opacity: 1; white-space: pre;">PredLambda= 7.0603015075377</text><g class="layers" style="opacity: 1;"><g class="legendfill"/><g class="legendlines"><path class="js-line" d="M5,0h30" style="fill: none; stroke: rgb(255, 127, 14); stroke-opacity: 1; stroke-width: 1px;"/></g><g class="legendsymbols"><g class="legendpoints"/></g></g><rect class="legendtoggle" x="0" y="-9.5" width="243.609375" height="19" style="fill: rgb(0, 0, 0); fill-opacity: 0;"/></g><g class="traces" transform="translate(0,52.5)" style="opacity: 1;"><text class="legendtext" text-anchor="start" x="40" y="4.680000000000001" style="font-family: 'Open Sans', verdana, arial, sans-serif; font-size: 12px; fill: rgb(68, 68, 68); fill-opacity: 1; white-space: pre;"> TrueLambda= 7.6231155778894</text><g class="layers" style="opacity: 1;"><g class="legendfill"/><g class="legendlines"><path class="js-line" d="M5,0h30" style="fill: none; stroke: rgb(44, 160, 44); stroke-opacity: 1; stroke-width: 1px;"/></g><g class="legendsymbols"><g class="legendpoints"/></g></g><rect class="legendtoggle" x="0" y="-9.5" width="243.609375" height="19" style="fill: rgb(0, 0, 0); fill-opacity: 0;"/></g><g class="traces" transform="translate(0,71.5)" style="opacity: 1;"><text class="legendtext" text-anchor="start" x="40" y="4.680000000000001" style="font-family: 'Open Sans', verdana, arial, sans-serif; font-size: 12px; fill: rgb(68, 68, 68); fill-opacity: 1; white-space: pre;">PredLambda= 7.6231155778894</text><g class="layers" style="opacity: 1;"><g class="legendfill"/><g class="legendlines"><path class="js-line" d="M5,0h30" style="fill: none; stroke: rgb(214, 39, 40); stroke-opacity: 1; stroke-width: 1px;"/></g><g class="legendsymbols"><g class="legendpoints"/></g></g><rect class="legendtoggle" x="0" y="-9.5" width="243.609375" height="19" style="fill: rgb(0, 0, 0); fill-opacity: 0;"/></g><g class="traces" transform="translate(0,90.5)" style="opacity: 1;"><text class="legendtext" text-anchor="start" x="40" y="4.680000000000001" style="font-family: 'Open Sans', verdana, arial, sans-serif; font-size: 12px; fill: rgb(68, 68, 68); fill-opacity: 1; white-space: pre;"> TrueLambda= 8.1457286432161</text><g class="layers" style="opacity: 1;"><g class="legendfill"/><g class="legendlines"><path class="js-line" d="M5,0h30" style="fill: none; stroke: rgb(148, 103, 189); stroke-opacity: 1; stroke-width: 1px;"/></g><g class="legendsymbols"><g class="legendpoints"/></g></g><rect class="legendtoggle" x="0" y="-9.5" width="243.609375" height="19" style="fill: rgb(0, 0, 0); fill-opacity: 0;"/></g><g class="traces" transform="translate(0,109.5)" style="opacity: 1;"><text class="legendtext" text-anchor="start" x="40" y="4.680000000000001" style="font-family: 'Open Sans', verdana, arial, sans-serif; font-size: 12px; fill: rgb(68, 68, 68); fill-opacity: 1; white-space: pre;">PredLambda= 8.1457286432161</text><g class="layers" style="opacity: 1;"><g class="legendfill"/><g class="legendlines"><path class="js-line" d="M5,0h30" style="fill: none; stroke: rgb(140, 86, 75); stroke-opacity: 1; stroke-width: 1px;"/></g><g class="legendsymbols"><g class="legendpoints"/></g></g><rect class="legendtoggle" x="0" y="-9.5" width="243.609375" height="19" style="fill: rgb(0, 0, 0); fill-opacity: 0;"/></g><g class="traces" transform="translate(0,128.5)" style="opacity: 1;"><text class="legendtext" text-anchor="start" x="40" y="4.680000000000001" style="font-family: 'Open Sans', verdana, arial, sans-serif; font-size: 12px; fill: rgb(68, 68, 68); fill-opacity: 1; white-space: pre;"> TrueLambda= 8.7085427135678</text><g class="layers" style="opacity: 1;"><g class="legendfill"/><g class="legendlines"><path class="js-line" d="M5,0h30" style="fill: none; stroke: rgb(227, 119, 194); stroke-opacity: 1; stroke-width: 1px;"/></g><g class="legendsymbols"><g class="legendpoints"/></g></g><rect class="legendtoggle" x="0" y="-9.5" width="243.609375" height="19" style="fill: rgb(0, 0, 0); fill-opacity: 0;"/></g><g class="traces" transform="translate(0,147.5)" style="opacity: 1;"><text class="legendtext" text-anchor="start" x="40" y="4.680000000000001" style="font-family: 'Open Sans', verdana, arial, sans-serif; font-size: 12px; fill: rgb(68, 68, 68); fill-opacity: 1; white-space: pre;">PredLambda= 8.7085427135678</text><g class="layers" style="opacity: 1;"><g class="legendfill"/><g class="legendlines"><path class="js-line" d="M5,0h30" style="fill: none; stroke: rgb(127, 127, 127); stroke-opacity: 1; stroke-width: 1px;"/></g><g class="legendsymbols"><g class="legendpoints"/></g></g><rect class="legendtoggle" x="0" y="-9.5" width="243.609375" height="19" style="fill: rgb(0, 0, 0); fill-opacity: 0;"/></g><g class="traces" transform="translate(0,166.5)" style="opacity: 1;"><text class="legendtext" text-anchor="start" x="40" y="4.680000000000001" style="font-family: 'Open Sans', verdana, arial, sans-serif; font-size: 12px; fill: rgb(68, 68, 68); fill-opacity: 1; white-space: pre;"> TrueLambda= 8.8291457286432</text><g class="layers" style="opacity: 1;"><g class="legendfill"/><g class="legendlines"><path class="js-line" d="M5,0h30" style="fill: none; stroke: rgb(188, 189, 34); stroke-opacity: 1; stroke-width: 1px;"/></g><g class="legendsymbols"><g class="legendpoints"/></g></g><rect class="legendtoggle" x="0" y="-9.5" width="243.609375" height="19" style="fill: rgb(0, 0, 0); fill-opacity: 0;"/></g><g class="traces" transform="translate(0,185.5)" style="opacity: 1;"><text class="legendtext" text-anchor="start" x="40" y="4.680000000000001" style="font-family: 'Open Sans', verdana, arial, sans-serif; font-size: 12px; fill: rgb(68, 68, 68); fill-opacity: 1; white-space: pre;">PredLambda= 8.8291457286432</text><g class="layers" style="opacity: 1;"><g class="legendfill"/><g class="legendlines"><path class="js-line" d="M5,0h30" style="fill: none; stroke: rgb(23, 190, 207); stroke-opacity: 1; stroke-width: 1px;"/></g><g class="legendsymbols"><g class="legendpoints"/></g></g><rect class="legendtoggle" x="0" y="-9.5" width="243.609375" height="19" style="fill: rgb(0, 0, 0); fill-opacity: 0;"/></g><g class="traces" transform="translate(0,204.5)" style="opacity: 1;"><text class="legendtext" text-anchor="start" x="40" y="4.680000000000001" style="font-family: 'Open Sans', verdana, arial, sans-serif; font-size: 12px; fill: rgb(68, 68, 68); fill-opacity: 1; white-space: pre;"> TrueLambda= 8.9899497487437</text><g class="layers" style="opacity: 1;"><g class="legendfill"/><g class="legendlines"><path class="js-line" d="M5,0h30" style="fill: none; stroke: rgb(31, 119, 180); stroke-opacity: 1; stroke-width: 1px;"/></g><g class="legendsymbols"><g class="legendpoints"/></g></g><rect class="legendtoggle" x="0" y="-9.5" width="243.609375" height="19" style="fill: rgb(0, 0, 0); fill-opacity: 0;"/></g><g class="traces" transform="translate(0,223.5)" style="opacity: 1;"><text class="legendtext" text-anchor="start" x="40" y="4.680000000000001" style="font-family: 'Open Sans', verdana, arial, sans-serif; font-size: 12px; fill: rgb(68, 68, 68); fill-opacity: 1; white-space: pre;">PredLambda= 8.9899497487437</text><g class="layers" style="opacity: 1;"><g class="legendfill"/><g class="legendlines"><path class="js-line" d="M5,0h30" style="fill: none; stroke: rgb(255, 127, 14); stroke-opacity: 1; stroke-width: 1px;"/></g><g class="legendsymbols"><g class="legendpoints"/></g></g><rect class="legendtoggle" x="0" y="-9.5" width="243.609375" height="19" style="fill: rgb(0, 0, 0); fill-opacity: 0;"/></g><g class="traces" transform="translate(0,242.5)" style="opacity: 1;"><text class="legendtext" text-anchor="start" x="40" y="4.680000000000001" style="font-family: 'Open Sans', verdana, arial, sans-serif; font-size: 12px; fill: rgb(68, 68, 68); fill-opacity: 1; white-space: pre;"> TrueLambda= 9.2311557788945</text><g class="layers" style="opacity: 1;"><g class="legendfill"/><g class="legendlines"><path class="js-line" d="M5,0h30" style="fill: none; stroke: rgb(44, 160, 44); stroke-opacity: 1; stroke-width: 1px;"/></g><g class="legendsymbols"><g class="legendpoints"/></g></g><rect class="legendtoggle" x="0" y="-9.5" width="243.609375" height="19" style="fill: rgb(0, 0, 0); fill-opacity: 0;"/></g><g class="traces" transform="translate(0,261.5)" style="opacity: 1;"><text class="legendtext" text-anchor="start" x="40" y="4.680000000000001" style="font-family: 'Open Sans', verdana, arial, sans-serif; font-size: 12px; fill: rgb(68, 68, 68); fill-opacity: 1; white-space: pre;">PredLambda= 9.2311557788945</text><g class="layers" style="opacity: 1;"><g class="legendfill"/><g class="legendlines"><path class="js-line" d="M5,0h30" style="fill: none; stroke: rgb(214, 39, 40); stroke-opacity: 1; stroke-width: 1px;"/></g><g class="legendsymbols"><g class="legendpoints"/></g></g><rect class="legendtoggle" x="0" y="-9.5" width="243.609375" height="19" style="fill: rgb(0, 0, 0); fill-opacity: 0;"/></g><g class="traces" transform="translate(0,280.5)" style="opacity: 1;"><text class="legendtext" text-anchor="start" x="40" y="4.680000000000001" style="font-family: 'Open Sans', verdana, arial, sans-serif; font-size: 12px; fill: rgb(68, 68, 68); fill-opacity: 1; white-space: pre;"> TrueLambda= 9.3316582914573</text><g class="layers" style="opacity: 1;"><g class="legendfill"/><g class="legendlines"><path class="js-line" d="M5,0h30" style="fill: none; stroke: rgb(148, 103, 189); stroke-opacity: 1; stroke-width: 1px;"/></g><g class="legendsymbols"><g class="legendpoints"/></g></g><rect class="legendtoggle" x="0" y="-9.5" width="243.609375" height="19" style="fill: rgb(0, 0, 0); fill-opacity: 0;"/></g><g class="traces" transform="translate(0,299.5)" style="opacity: 1;"><text class="legendtext" text-anchor="start" x="40" y="4.680000000000001" style="font-family: 'Open Sans', verdana, arial, sans-serif; font-size: 12px; fill: rgb(68, 68, 68); fill-opacity: 1; white-space: pre;">PredLambda= 9.3316582914573</text><g class="layers" style="opacity: 1;"><g class="legendfill"/><g class="legendlines"><path class="js-line" d="M5,0h30" style="fill: none; stroke: rgb(140, 86, 75); stroke-opacity: 1; stroke-width: 1px;"/></g><g class="legendsymbols"><g class="legendpoints"/></g></g><rect class="legendtoggle" x="0" y="-9.5" width="243.609375" height="19" style="fill: rgb(0, 0, 0); fill-opacity: 0;"/></g><g class="traces" transform="translate(0,318.5)" style="opacity: 1;"><text class="legendtext" text-anchor="start" x="40" y="4.680000000000001" style="font-family: 'Open Sans', verdana, arial, sans-serif; font-size: 12px; fill: rgb(68, 68, 68); fill-opacity: 1; white-space: pre;"> TrueLambda= 10.798994974874</text><g class="layers" style="opacity: 1;"><g class="legendfill"/><g class="legendlines"><path class="js-line" d="M5,0h30" style="fill: none; stroke: rgb(227, 119, 194); stroke-opacity: 1; stroke-width: 1px;"/></g><g class="legendsymbols"><g class="legendpoints"/></g></g><rect class="legendtoggle" x="0" y="-9.5" width="243.609375" height="19" style="fill: rgb(0, 0, 0); fill-opacity: 0;"/></g><g class="traces" transform="translate(0,337.5)" style="opacity: 1;"><text class="legendtext" text-anchor="start" x="40" y="4.680000000000001" style="font-family: 'Open Sans', verdana, arial, sans-serif; font-size: 12px; fill: rgb(68, 68, 68); fill-opacity: 1; white-space: pre;">PredLambda= 10.798994974874</text><g class="layers" style="opacity: 1;"><g class="legendfill"/><g class="legendlines"><path class="js-line" d="M5,0h30" style="fill: none; stroke: rgb(127, 127, 127); stroke-opacity: 1; stroke-width: 1px;"/></g><g class="legendsymbols"><g class="legendpoints"/></g></g><rect class="legendtoggle" x="0" y="-9.5" width="243.609375" height="19" style="fill: rgb(0, 0, 0); fill-opacity: 0;"/></g><g class="traces" transform="translate(0,356.5)" style="opacity: 1;"><text class="legendtext" text-anchor="start" x="40" y="4.680000000000001" style="font-family: 'Open Sans', verdana, arial, sans-serif; font-size: 12px; fill: rgb(68, 68, 68); fill-opacity: 1; white-space: pre;"> TrueLambda= 10.959798994975</text><g class="layers" style="opacity: 1;"><g class="legendfill"/><g class="legendlines"><path class="js-line" d="M5,0h30" style="fill: none; stroke: rgb(188, 189, 34); stroke-opacity: 1; stroke-width: 1px;"/></g><g class="legendsymbols"><g class="legendpoints"/></g></g><rect class="legendtoggle" x="0" y="-9.5" width="243.609375" height="19" style="fill: rgb(0, 0, 0); fill-opacity: 0;"/></g><g class="traces" transform="translate(0,375.5)" style="opacity: 1;"><text class="legendtext" text-anchor="start" x="40" y="4.680000000000001" style="font-family: 'Open Sans', verdana, arial, sans-serif; font-size: 12px; fill: rgb(68, 68, 68); fill-opacity: 1; white-space: pre;">PredLambda= 10.959798994975</text><g class="layers" style="opacity: 1;"><g class="legendfill"/><g class="legendlines"><path class="js-line" d="M5,0h30" style="fill: none; stroke: rgb(23, 190, 207); stroke-opacity: 1; stroke-width: 1px;"/></g><g class="legendsymbols"><g class="legendpoints"/></g></g><rect class="legendtoggle" x="0" y="-9.5" width="243.609375" height="19" style="fill: rgb(0, 0, 0); fill-opacity: 0;"/></g></g></g><rect class="scrollbar" rx="20" ry="3" width="0" height="0" style="fill: rgb(128, 139, 164); fill-opacity: 1;" x="0" y="0"/></g><g class="g-gtitle"><text class="gtitle" x="350" y="50" text-anchor="middle" dy="0em" style="font-family: Rockwell; font-size: 24px; fill: rgb(68, 68, 68); opacity: 1; font-weight: normal; white-space: pre;">S-Parameters [Magnitude]</text></g><g class="g-xtitle"/><g class="g-ytitle"/></g></svg>