<svg class="main-svg" xmlns="http://www.w3.org/2000/svg" xmlns:xlink="http://www.w3.org/1999/xlink" width="700" height="500" style="" viewBox="0 0 700 500"><rect x="0" y="0" width="700" height="500" style="fill: rgb(255, 255, 255); fill-opacity: 1;"/><defs id="defs-7a0801"><g class="clips"><clipPath id="clip7a0801xyplot" class="plotclip"><rect width="352" height="320"/></clipPath><clipPath class="axesclip" id="clip7a0801x"><rect x="80" y="0" width="352" height="500"/></clipPath><clipPath class="axesclip" id="clip7a0801y"><rect x="0" y="100" width="700" height="320"/></clipPath><clipPath class="axesclip" id="clip7a0801xy"><rect x="80" y="100" width="352" height="320"/></clipPath></g><g class="gradients"/><g class="patterns"/></defs><g class="bglayer"/><g class="layer-below"><g class="imagelayer"/><g class="shapelayer"/></g><g class="cartesianlayer"><g class="subplot xy"><g class="layer-subplot"><g class="shapelayer"/><g class="imagelayer"/></g><g class="minor-gridlayer"><g class="x"/><g class="y"/></g><g class="gridlayer"><g class="x"><path class="xgrid crisp" transform="translate(115.2,0)" d="M0,100v320" style="stroke: rgb(0, 0, 0); stroke-opacity: 1; stroke-dasharray: 3px, 3px; stroke-width: 1px;"/><path class="xgrid crisp" transform="translate(150.4,0)" d="M0,100v320" style="stroke: rgb(0, 0, 0); stroke-opacity: 1; stroke-dasharray: 3px, 3px; stroke-width: 1px;"/><path class="xgrid crisp" transform="translate(185.6,0)" d="M0,100v320" style="stroke: rgb(0, 0, 0); stroke-opacity: 1; stroke-dasharray: 3px, 3px; stroke-width: 1px;"/><path class="xgrid crisp" transform="translate(220.8,0)" d="M0,100v320" style="stroke: rgb(0, 0, 0); stroke-opacity: 1; stroke-dasharray: 3px, 3px; stroke-width: 1px;"/><path class="xgrid crisp" transform="translate(256,0)" d="M0,100v320" style="stroke: rgb(0, 0, 0); stroke-opacity: 1; stroke-dasharray: 3px, 3px; stroke-width: 1px;"/><path class="xgrid crisp" transform="translate(291.2,0)" d="M0,100v320" style="stroke: rgb(0, 0, 0); stroke-opacity: 1; stroke-dasharray: 3px, 3px; stroke-width: 1px;"/><path class="xgrid crisp" transform="translate(326.4,0)" d="M0,100v320" style="stroke: rgb(0, 0, 0); stroke-opacity: 1; stroke-dasharray: 3px, 3px; stroke-width: 1px;"/><path class="xgrid crisp" transform="translate(361.6,0)" d="M0,100v320" style="stroke: rgb(0, 0, 0); stroke-opacity: 1; stroke-dasharray: 3px, 3px; stroke-width: 1px;"/><path class="xgrid crisp" transform="translate(396.8,0)" d="M0,100v320" style="stroke: rgb(0, 0, 0); stroke-opacity: 1; stroke-dasharray: 3px, 3px; stroke-width: 1px;"/></g><g class="y"><path class="ygrid crisp" transform="translate(0,373.53)" d="M80,0h352" style="stroke: rgb(0, 0, 0); stroke-opacity: 1; stroke-dasharray: 3px, 3px; stroke-width: 1px;"/><path class="ygrid crisp" transform="translate(0,342.93)" d="M80,0h352" style="stroke: rgb(0, 0, 0); stroke-opacity: 1; stroke-dasharray: 3px, 3px; stroke-width: 1px;"/><path class="ygrid crisp" transform="translate(0,312.34000000000003)" d="M80,0h352" style="stroke: rgb(0, 0, 0); stroke-opacity: 1; stroke-dasharray: 3px, 3px; stroke-width: 1px;"/><path class="ygrid crisp" transform="translate(0,281.74)" d="M80,0h352" style="stroke: rgb(0, 0, 0); stroke-opacity: 1; stroke-dasharray: 3px, 3px; stroke-width: 1px;"/><path class="ygrid crisp" transform="translate(0,251.15)" d="M80,0h352" style="stroke: rgb(0, 0, 0); stroke-opacity: 1; stroke-dasharray: 3px, 3px; stroke-width: 1px;"/><path class="ygrid crisp" transform="translate(0,220.55)" d="M80,0h352" style="stroke: rgb(0, 0, 0); stroke-opacity: 1; stroke-dasharray: 3px, 3px; stroke-width: 1px;"/><path class="ygrid crisp" transform="translate(0,189.95999999999998)" d="M80,0h352" style="stroke: rgb(0, 0, 0); stroke-opacity: 1; stroke-dasharray: 3px, 3px; stroke-width: 1px;"/><path class="ygrid crisp" transform="translate(0,159.36)" d="M80,0h352" style="stroke: rgb(0, 0, 0); stroke-opacity: 1; stroke-dasharray: 3px, 3px; stroke-width: 1px;"/><path class="ygrid crisp" transform="translate(0,128.77)" d="M80,0h352" style="stroke: rgb(0, 0, 0); stroke-opacity: 1; stroke-dasharray: 3px, 3px; stroke-width: 1px;"/></g></g><g class="zerolinelayer"><path class="yzl zl crisp" transform="translate(0,404.12)" d="M80,0h352" style="stroke: rgb(68, 68, 68); stroke-opacity: 1; stroke-width: 1px;"/></g><path class="xlines-below"/><path class="ylines-below"/><g class="overlines-below"/><g class="xaxislayer-below"/><g class="yaxislayer-below"/><g class="overaxes-below"/><g class="plot" transform="translate(80,100)" clip-path="url(#clip7a0801xyplot)"><g class="scatterlayer mlayer"><g class="trace scatter tracead35f5" style="stroke-miterlimit: 2; opacity: 1;"><g class="fills"/><g class="errorbars"/><g class="lines"><path class="js-line" d="M0,17.67L35.2,24.43L35.55,24.51L63.71,31.71L64.06,31.81L92.22,41.15L92.58,41.28L112.29,49.39L112.64,49.55L133.76,60L134.11,60.19L152.42,70.95L152.77,71.18L169.31,82.45L169.66,82.71L185.86,95.32L186.21,95.61L203.46,110.84L203.81,111.17L222.11,129.43L222.46,129.8L236.9,145.68L237.25,146.08L262.59,176.85L262.94,177.3L281.25,201.38L281.6,201.85L315.04,248L315.39,248.49L341.44,284.4L341.79,284.87L352,298.46" style="vector-effect: non-scaling-stroke; fill: none; stroke: rgb(31, 119, 180); stroke-opacity: 1; stroke-width: 1px; opacity: 1;"/></g><g class="points"/><g class="text"/></g><g class="trace scatter trace27baaf" style="stroke-miterlimit: 2; opacity: 1;"><g class="fills"/><g class="errorbars"/><g class="lines"><path class="js-line" d="M0,16L13.02,18.8L13.38,18.99L16.9,20.16L17.25,20.02L21.12,20.93L21.47,21.15L23.58,21.74L23.94,21.76L27.46,22.69L27.81,22.75L30.62,23.51L30.98,23.64L34.85,24.63L35.2,24.76L39.07,25.69L39.42,25.81L48.58,28.07L48.93,28.16L74.27,34.69L74.62,34.81L80.61,36.51L80.96,36.65L89.76,39.43L90.11,39.53L117.57,50.34L117.92,50.5L134.82,59.02L135.17,59.22L151.01,68.64L151.36,68.88L166.5,79.27L166.85,79.53L181.28,90.75L181.63,91.03L205.22,112.13L205.57,112.47L224.22,131.62L224.58,132.01L242.53,152.58L242.88,153.01L269.28,187.22L269.63,187.71L288.64,214.49L288.99,214.99L314.34,249.97L314.69,250.39L317.86,254.39L318.21,254.93L330.18,268.93L330.53,269.24L336.16,275.27L336.51,275.62L351.3,291.43L351.65,291.89L352,292.35" style="vector-effect: non-scaling-stroke; fill: none; stroke: rgb(255, 127, 14); stroke-opacity: 1; stroke-width: 1px; opacity: 1;"/></g><g class="points"/><g class="text"/></g><g class="trace scatter trace5181e5" style="stroke-miterlimit: 2; opacity: 1;"><g class="fills"/><g class="errorbars"/><g class="lines"><path class="js-line" d="M0,21.9L25.34,27.72L25.7,27.81L48.93,34.55L49.28,34.66L68.29,41.42L68.64,41.55L91.87,51.62L92.22,51.79L109.12,60.58L109.47,60.78L129.18,72.86L129.54,73.1L145.02,84.16L145.38,84.43L163.68,99.46L164.03,99.77L181.63,116.33L181.98,116.69L195.71,131.07L196.06,131.46L209.09,146.26L209.44,146.68L227.74,169.24L228.1,169.7L251.33,200.77L251.68,201.26L279.84,241.15L280.19,241.65L314.34,290.09L314.69,290.58L324.54,303.37L324.9,303.27L327.36,300.33L327.71,299.87L352,268.79" style="vector-effect: non-scaling-stroke; fill: none; stroke: rgb(44, 160, 44); stroke-opacity: 1; stroke-width: 1px; opacity: 1;"/></g><g class="points"/><g class="text"/></g><g class="trace scatter trace868c2e" style="stroke-miterlimit: 2; opacity: 1;"><g class="fills"/><g class="errorbars"/><g class="lines"><path class="js-line" d="M0,21.47L14.43,25.37L14.78,25.6L18.66,26.43L19.01,26.66L23.94,27.86L24.29,28.02L28.51,29.07L28.86,29.25L30.98,29.76L31.33,29.8L75.33,43.66L75.68,43.82L82.02,46.39L82.37,46.55L100.32,55.05L100.67,55.24L122.14,67.7L122.5,67.94L137.63,78.32L137.98,78.57L162.62,98.5L162.98,98.82L179.87,114.78L180.22,115.14L193.95,129.52L194.3,129.91L210.85,148.93L211.2,149.34L247.1,196.13L247.46,196.65L313.28,288.09L313.63,288.42L320.67,297.67L321.02,297.99L325.6,303.94L325.95,303.8L352,269.71" style="vector-effect: non-scaling-stroke; fill: none; stroke: rgb(214, 39, 40); stroke-opacity: 1; stroke-width: 1px; opacity: 1;"/></g><g class="points"/><g class="text"/></g><g class="trace scatter traceaf2a28" style="stroke-miterlimit: 2; opacity: 1;"><g class="fills"/><g class="errorbars"/><g class="lines"><path class="js-line" d="M0,30.02L22.88,37.33L23.23,37.46L45.76,46.61L46.11,46.76L71.81,59.96L72.16,60.16L93.63,73.84L93.98,74.09L105.95,82.93L106.3,83.21L118.98,93.63L119.33,93.94L134.11,107.56L134.46,107.9L150.66,124.69L151.01,125.07L171.07,148.51L171.42,148.95L188.32,170.77L188.67,171.24L211.55,203.2L211.9,203.71L234.78,237.42L235.14,237.94L272.45,293.09L272.8,293.6L280.19,304L280.54,303.62L280.9,303.13L305.18,270.4L305.54,269.95L325.6,245.35L325.95,244.94L344.96,223.8L345.31,223.42L352,216.48" style="vector-effect: non-scaling-stroke; fill: none; stroke: rgb(148, 103, 189); stroke-opacity: 1; stroke-width: 1px; opacity: 1;"/></g><g class="points"/><g class="text"/></g><g class="trace scatter trace607335" style="stroke-miterlimit: 2; opacity: 1;"><g class="fills"/><g class="errorbars"/><g class="lines"><path class="js-line" d="M0,31.68L37.31,42.65L37.66,42.82L48.22,47.09L48.58,47.25L64.77,55.42L65.12,55.63L78.14,63.51L78.5,63.75L92.22,73.24L92.58,73.49L111.58,88.53L111.94,88.83L130.59,105.77L130.94,106.11L145.38,120.76L145.73,121.13L162.98,140.45L163.33,140.86L186.21,169.44L186.56,169.9L207.68,198.88L208.03,199.37L278.08,299.31L278.43,299.77L281.95,303.83L282.3,303.37L327.71,244.13L328.06,243.62L334.4,234.7L334.75,234.17L350.24,213.47L350.59,213.13L352,211.76" style="vector-effect: non-scaling-stroke; fill: none; stroke: rgb(140, 86, 75); stroke-opacity: 1; stroke-width: 1px; opacity: 1;"/></g><g class="points"/><g class="text"/></g><g class="trace scatter trace69e2c1" style="stroke-miterlimit: 2; opacity: 1;"><g class="fills"/><g class="errorbars"/><g class="lines"><path class="js-line" d="M0,35.41L20.06,43.07L20.42,43.22L39.42,52.15L39.78,52.33L62.66,65.53L63.01,65.75L82.72,79.56L83.07,79.83L100.32,94.05L100.67,94.36L116.51,109.36L116.86,109.71L132.35,126.26L132.7,126.66L144.67,140.71L145.02,141.14L156.99,156.23L157.34,156.69L173.54,178.6L173.89,179.09L197.82,213.87L198.18,214.39L258.02,303.87L258.37,303.41L283.01,269.49L283.36,269.03L302.72,244.82L303.07,244.4L320.67,224.42L321.02,224.04L344.26,200.53L344.61,200.19L352,193.38" style="vector-effect: non-scaling-stroke; fill: none; stroke: rgb(227, 119, 194); stroke-opacity: 1; stroke-width: 1px; opacity: 1;"/></g><g class="points"/><g class="text"/></g><g class="trace scatter tracebed98a" style="stroke-miterlimit: 2; opacity: 1;"><g class="fills"/><g class="errorbars"/><g class="lines"><path class="js-line" d="M0,37.04L30.27,47.09L30.62,47.25L46.46,55.06L46.82,55.26L62.3,64.92L62.66,65.17L83.42,80.83L83.78,81.14L95.04,90.77L95.39,91.1L111.94,106.75L112.29,107.11L129.89,125.76L130.24,126.15L152.42,152.6L152.77,153.04L177.06,185.42L177.41,185.91L204.86,225.61L205.22,226.14L254.5,298.1L254.85,298.56L259.07,303.86L259.42,303.39L308.7,240.8L309.06,240.47L313.98,234.33L314.34,233.84L322.43,223.83L322.78,223.26L325.6,219.86L325.95,219.41L349.54,192.13L349.89,191.84L352,190.07" style="vector-effect: non-scaling-stroke; fill: none; stroke: rgb(127, 127, 127); stroke-opacity: 1; stroke-width: 1px; opacity: 1;"/></g><g class="points"/><g class="text"/></g><g class="trace scatter tracef2d1d9" style="stroke-miterlimit: 2; opacity: 1;"><g class="fills"/><g class="errorbars"/><g class="lines"><path class="js-line" d="M0,111.13L18.66,134.03L19.01,134.5L34.14,155.6L34.5,156.12L50.69,180.99L51.04,181.55L79.55,229.34L79.9,229.95L122.85,302.6L123.2,302.76L124.26,302.02L124.61,301.55L133.41,287.72L133.76,287.16L154.88,255.32L155.23,254.82L173.18,230.45L173.54,229.99L190.43,209.49L190.78,209.09L211.55,187.05L211.9,186.71L229.86,170.25L230.21,169.95L247.46,156.15L247.81,155.89L267.17,142.43L267.52,142.21L284.42,131.99L284.77,131.79L310.46,118.64L310.82,118.48L334.05,108.67L334.4,108.53L352,102.1" style="vector-effect: non-scaling-stroke; fill: none; stroke: rgb(188, 189, 34); stroke-opacity: 1; stroke-width: 1px; opacity: 1;"/></g><g class="points"/><g class="text"/></g><g class="trace scatter tracef26477" style="stroke-miterlimit: 2; opacity: 1;"><g class="fills"/><g class="errorbars"/><g class="lines"><path class="js-line" d="M0,112.19L15.84,132.32L16.19,132.8L49.63,179.35L49.98,179.88L64.42,202.43L64.77,203L92.58,249.67L92.93,250.28L124.26,302.54L124.61,302.7L125.66,301.97L126.02,301.51L134.82,287.68L135.17,287.13L153.47,259.26L153.82,258.75L177.41,226.49L177.76,226.04L197.82,201.95L198.18,201.56L213.66,184.97L214.02,184.61L229.86,169.37L230.21,169.05L249.57,152.86L249.92,152.59L264.35,142.36L264.7,142.24L268.58,139.67L268.93,139.45L287.58,129.11L287.94,128.94L312.22,117.94L312.58,117.8L331.23,109.02L331.58,108.84L346.37,100.63L346.72,100.42L352,98.15" style="vector-effect: non-scaling-stroke; fill: none; stroke: rgb(23, 190, 207); stroke-opacity: 1; stroke-width: 1px; opacity: 1;"/></g><g class="points"/><g class="text"/></g><g class="trace scatter tracec5acb0" style="stroke-miterlimit: 2; opacity: 1;"><g class="fills"/><g class="errorbars"/><g class="lines"><path class="js-line" d="M0,134.03L15.84,156.53L16.19,157.05L35.55,187.71L35.9,188.29L55.26,221.44L55.62,222.06L101.38,301.66L101.73,302.11L102.78,302.63L103.14,302.39L105.95,298.28L106.3,297.72L136.58,250.86L136.93,250.35L155.23,225.49L155.58,225.04L175.65,201.08L176,200.69L191.84,184.14L192.19,183.79L210.5,167.04L210.85,166.74L231.62,150.46L231.97,150.21L246.75,140.14L247.1,139.91L272.8,124.98L273.15,124.79L296.38,113.66L296.74,113.5L322.08,103.42L322.43,103.3L345.31,95.6L345.66,95.49L352,93.55" style="vector-effect: non-scaling-stroke; fill: none; stroke: rgb(31, 119, 180); stroke-opacity: 1; stroke-width: 1px; opacity: 1;"/></g><g class="points"/><g class="text"/></g><g class="trace scatter trace774ac1" style="stroke-miterlimit: 2; opacity: 1;"><g class="fills"/><g class="errorbars"/><g class="lines"><path class="js-line" d="M0,136.2L27.81,175.6L28.16,176.13L46.11,204.63L46.46,205.21L66.88,240.1L67.23,240.71L103.14,302.08L103.49,302.4L104.54,302.22L104.9,301.84L109.47,294.77L109.82,294.2L138.34,250.25L138.69,249.74L158.05,223.38L158.4,222.92L175.3,202.39L175.65,201.99L190.08,186.22L190.43,185.85L208.74,168.06L209.09,167.74L224.93,154.25L225.28,153.97L241.12,142.24L241.47,142L257.31,132.02L257.66,131.82L278.08,121.29L278.43,121.12L307.3,108.73L307.65,108.59L340.03,93.92L340.38,93.76L352,89.22" style="vector-effect: non-scaling-stroke; fill: none; stroke: rgb(255, 127, 14); stroke-opacity: 1; stroke-width: 1px; opacity: 1;"/></g><g class="points"/><g class="text"/></g><g class="trace scatter traceff9e52" style="stroke-miterlimit: 2; opacity: 1;"><g class="fills"/><g class="errorbars"/><g class="lines"><path class="js-line" d="M0,171.36L19.71,204.85L20.06,205.47L46.46,253.18L46.82,253.82L73.57,301.27L73.92,301.77L75.33,302.5L75.68,302.18L79.2,296.72L79.55,296.13L100.67,261.96L101.02,261.42L123.2,229.4L123.55,228.93L140.1,207.93L140.45,207.51L155.94,190.05L156.29,189.68L172.83,173.26L173.18,172.93L191.14,157.44L191.49,157.16L209.09,144.03L209.44,143.79L229.15,131.16L229.5,130.95L250.62,119.46L250.98,119.29L268.58,111.08L268.93,110.93L293.22,101.32L293.57,101.19L327.01,90.46L327.36,90.36L352,83.82" style="vector-effect: non-scaling-stroke; fill: none; stroke: rgb(44, 160, 44); stroke-opacity: 1; stroke-width: 1px; opacity: 1;"/></g><g class="points"/><g class="text"/></g><g class="trace scatter tracebaa137" style="stroke-miterlimit: 2; opacity: 1;"><g class="fills"/><g class="errorbars"/><g class="lines"><path class="js-line" d="M0,172.49L28.51,219.02L28.86,219.6L74.98,302.03L75.33,302.23L76.38,301.77L76.74,301.35L82.02,292.87L82.37,292.28L104.9,256.34L105.25,255.81L122.14,231.59L122.5,231.11L141.5,206.82L141.86,206.39L158.4,187.7L158.75,187.33L172.83,173.13L173.18,172.8L191.14,156.85L191.49,156.56L207.33,144.38L207.68,144.13L220.7,135.37L221.06,135.15L238.3,125.16L238.66,124.98L255.2,116.84L255.55,116.68L279.84,106.38L280.19,106.24L323.49,89.7L323.84,89.6L330.53,87.5L330.88,87.42L339.33,85.28L339.68,85.21L352,82.98" style="vector-effect: non-scaling-stroke; fill: none; stroke: rgb(214, 39, 40); stroke-opacity: 1; stroke-width: 1px; opacity: 1;"/></g><g class="points"/><g class="text"/></g><g class="trace scatter trace2bc97d" style="stroke-miterlimit: 2; opacity: 1;"><g class="fills"/><g class="errorbars"/><g class="lines"><path class="js-line" d="M0,226.43L41.18,302.35L41.54,302.59L42.59,301.95L42.94,301.46L49.63,290.08L49.98,289.47L73.22,251.46L73.57,250.92L89.76,227.32L90.11,226.83L107.01,204.9L107.36,204.48L121.79,187.89L122.14,187.51L141.5,168.12L141.86,167.8L155.58,155.85L155.94,155.56L171.42,143.67L171.78,143.41L190.43,131.01L190.78,130.8L210.14,119.82L210.5,119.64L226.69,111.7L227.04,111.54L249.22,102.22L249.57,102.09L268.58,95.29L268.93,95.17L290.75,88.47L291.1,88.37L323.49,80.13L323.84,80.05L352,74.21" style="vector-effect: non-scaling-stroke; fill: none; stroke: rgb(148, 103, 189); stroke-opacity: 1; stroke-width: 1px; opacity: 1;"/></g><g class="points"/><g class="text"/></g><g class="trace scatter trace21cecb" style="stroke-miterlimit: 2; opacity: 1;"><g class="fills"/><g class="errorbars"/><g class="lines"><path class="js-line" d="M0,224.48L16.9,257.19L17.25,258.02L30.98,284.55L31.33,285.23L41.18,301.76L41.54,301.8L42.94,300.53L43.3,300.02L51.39,286.21L51.74,285.61L74.62,248.22L74.98,247.68L86.59,230.5L86.94,229.99L109.12,200.86L109.47,200.44L125.66,182.17L126.02,181.81L140.8,167.24L141.15,166.92L154.53,155.33L154.88,155.04L172.83,141.63L173.18,141.39L188.67,131.51L189.02,131.31L209.09,120.45L209.44,120.29L221.41,114.63L221.76,114.47L255.55,100.72L255.9,100.59L299.9,86.25L300.26,86.2L308.35,84.17L308.7,84.14L310.82,83.62L311.17,83.63L315.39,82.6L315.74,82.74L317.86,82.21L318.21,82.28L322.08,81.48L322.43,81.43L323.84,81.28L324.19,81.15L325.95,80.98L326.3,80.83L328.42,80.54L328.77,80.54L344.61,78.46L344.96,78.32L347.07,77.99L347.42,78.01L352,77.2" style="vector-effect: non-scaling-stroke; fill: none; stroke: rgb(140, 86, 75); stroke-opacity: 1; stroke-width: 1px; opacity: 1;"/></g><g class="points"/><g class="text"/></g><g class="trace scatter trace5aee23" style="stroke-miterlimit: 2; opacity: 1;"><g class="fills"/><g class="errorbars"/><g class="lines"><path class="js-line" d="M0,261.72L21.12,301.2L21.47,301.74L22.88,302.53L23.23,302.17L27.1,295.68L27.46,295.05L48.93,258.52L49.28,257.95L67.23,230.63L67.58,230.13L87.65,203.42L88,202.99L101.02,187.77L101.38,187.38L116.16,172L116.51,171.65L133.06,156.61L133.41,156.31L152.42,141.5L152.77,141.24L170.72,129.32L171.07,129.1L192.9,116.86L193.25,116.68L212.96,107.37L213.31,107.22L229.5,100.61L229.86,100.48L248.16,93.96L248.51,93.84L269.98,87.27L270.34,87.17L297.44,80.2L297.79,80.11L333.7,72.66L334.05,72.6L352,69.5" style="vector-effect: non-scaling-stroke; fill: none; stroke: rgb(227, 119, 194); stroke-opacity: 1; stroke-width: 1px; opacity: 1;"/></g><g class="points"/><g class="text"/></g><g class="trace scatter tracec891ec" style="stroke-miterlimit: 2; opacity: 1;"><g class="fills"/><g class="errorbars"/><g class="lines"><path class="js-line" d="M0,260.19L21.12,300.42L21.47,300.49L22.18,300.92L22.53,300.41L22.88,300.07L23.94,299.03L24.29,298.44L25.7,296.43L26.05,295.66L30.27,288.27L30.62,287.65L38.37,274.21L38.72,273.62L57.73,242.98L58.08,242.49L66.53,229.93L66.88,229.41L81.66,209.17L82.02,208.68L102.08,184.53L102.43,184.14L119.68,166.44L120.03,166.11L132.35,155.14L132.7,154.85L148.54,142.61L148.9,142.36L168.96,129.46L169.31,129.25L184.1,121.25L184.45,121.07L210.14,109.35L210.5,109.22L232.32,100.68L232.67,100.55L261.18,90.74L261.54,90.66L270.34,87.92L270.69,87.83L309.41,79.13L309.76,79.11L312.93,78.37L313.28,78.51L328.06,76.08L328.42,75.98L332.29,75.37L332.64,75.24L334.75,74.9L335.1,74.88L352,70.96" style="vector-effect: non-scaling-stroke; fill: none; stroke: rgb(127, 127, 127); stroke-opacity: 1; stroke-width: 1px; opacity: 1;"/></g><g class="points"/><g class="text"/></g><g class="trace scatter trace307de0" style="stroke-miterlimit: 2; opacity: 1;"><g class="fills"/><g class="errorbars"/><g class="lines"><path class="js-line" d="M0,283.93L10.56,302.7L10.91,302.68L12.32,300.83L12.67,300.24L42.59,249.2L42.94,248.65L63.71,218.16L64.06,217.68L82.37,194.48L82.72,194.06L98.56,176.61L98.91,176.25L114.75,161.03L115.1,160.71L135.87,143.71L136.22,143.45L152.77,131.95L153.12,131.72L174.59,119.06L174.94,118.87L197.12,107.99L197.47,107.83L224.93,96.82L225.28,96.7L245.34,90.03L245.7,89.92L269.63,83.17L269.98,83.08L305.18,75.02L305.54,74.95L342.5,68.31L342.85,68.26L352,66.85" style="vector-effect: non-scaling-stroke; fill: none; stroke: rgb(188, 189, 34); stroke-opacity: 1; stroke-width: 1px; opacity: 1;"/></g><g class="points"/><g class="text"/></g><g class="trace scatter trace68a82d" style="stroke-miterlimit: 2; opacity: 1;"><g class="fills"/><g class="errorbars"/><g class="lines"><path class="js-line" d="M0,283.56L9.86,301.43L10.21,301.68L11.26,301.56L11.62,300.83L12.32,300L12.67,299.52L18.3,289.41L18.66,289.16L24.99,277.6L25.34,276.99L27.1,273.92L27.46,273.43L34.14,261.91L34.5,261.36L48.22,239.22L48.58,238.69L61.95,219.02L62.3,218.56L70.05,208.08L70.4,207.6L80.96,194.36L81.31,193.93L102.08,171.15L102.43,170.8L120.38,154.35L120.74,154.06L141.5,138.29L141.86,138.05L158.4,127.58L158.75,127.38L173.89,119.15L174.24,118.97L187.62,112.55L187.97,112.4L218.59,99.95L218.94,99.85L231.62,95.37L231.97,95.24L269.63,83.99L269.98,83.93L277.02,82.18L277.38,82.1L290.75,79.06L291.1,79.06L294.62,78.27L294.98,78.27L313.98,74.46L314.34,74.58L316.8,74.02L317.15,73.92L352,66.49" style="vector-effect: non-scaling-stroke; fill: none; stroke: rgb(23, 190, 207); stroke-opacity: 1; stroke-width: 1px; opacity: 1;"/></g><g class="points"/><g class="text"/></g></g></g><g class="overplot"/><path class="xlines-above crisp" d="M0,0" style="fill: none;"/><path class="ylines-above crisp" d="M0,0" style="fill: none;"/><g class="overlines-above"/><g class="xaxislayer-above"><g class="xtick"><text text-anchor="middle" x="0" y="433" transform="translate(80,0)" style="font-family: 'Open Sans', verdana, arial, sans-serif; font-size: 12px; fill: rgb(68, 68, 68); fill-opacity: 1; white-space: pre; opacity: 1;">25</text></g><g class="xtick"><text text-anchor="middle" x="0" y="433" style="font-family: 'Open Sans', verdana, arial, sans-serif; font-size: 12px; fill: rgb(68, 68, 68); fill-opacity: 1; white-space: pre; opacity: 1;" transform="translate(115.2,0)">26</text></g><g class="xtick"><text text-anchor="middle" x="0" y="433" style="font-family: 'Open Sans', verdana, arial, sans-serif; font-size: 12px; fill: rgb(68, 68, 68); fill-opacity: 1; white-space: pre; opacity: 1;" transform="translate(150.4,0)">27</text></g><g class="xtick"><text text-anchor="middle" x="0" y="433" style="font-family: 'Open Sans', verdana, arial, sans-serif; font-size: 12px; fill: rgb(68, 68, 68); fill-opacity: 1; white-space: pre; opacity: 1;" transform="translate(185.6,0)">28</text></g><g class="xtick"><text text-anchor="middle" x="0" y="433" style="font-family: 'Open Sans', verdana, arial, sans-serif; font-size: 12px; fill: rgb(68, 68, 68); fill-opacity: 1; white-space: pre; opacity: 1;" transform="translate(220.8,0)">29</text></g><g class="xtick"><text text-anchor="middle" x="0" y="433" style="font-family: 'Open Sans', verdana, arial, sans-serif; font-size: 12px; fill: rgb(68, 68, 68); fill-opacity: 1; white-space: pre; opacity: 1;" transform="translate(256,0)">30</text></g><g class="xtick"><text text-anchor="middle" x="0" y="433" style="font-family: 'Open Sans', verdana, arial, sans-serif; font-size: 12px; fill: rgb(68, 68, 68); fill-opacity: 1; white-space: pre; opacity: 1;" transform="translate(291.2,0)">31</text></g><g class="xtick"><text text-anchor="middle" x="0" y="433" style="font-family: 'Open Sans', verdana, arial, sans-serif; font-size: 12px; fill: rgb(68, 68, 68); fill-opacity: 1; white-space: pre; opacity: 1;" transform="translate(326.4,0)">32</text></g><g class="xtick"><text text-anchor="middle" x="0" y="433" style="font-family: 'Open Sans', verdana, arial, sans-serif; font-size: 12px; fill: rgb(68, 68, 68); fill-opacity: 1; white-space: pre; opacity: 1;" transform="translate(361.6,0)">33</text></g><g class="xtick"><text text-anchor="middle" x="0" y="433" style="font-family: 'Open Sans', verdana, arial, sans-serif; font-size: 12px; fill: rgb(68, 68, 68); fill-opacity: 1; white-space: pre; opacity: 1;" transform="translate(396.8,0)">34</text></g><g class="xtick"><text text-anchor="middle" x="0" y="433" style="font-family: 'Open Sans', verdana, arial, sans-serif; font-size: 12px; fill: rgb(68, 68, 68); fill-opacity: 1; white-space: pre; opacity: 1;" transform="translate(432,0)">35</text></g></g><g class="yaxislayer-above"><g class="ytick"><text text-anchor="end" x="79" y="4.199999999999999" transform="translate(0,404.12)" style="font-family: 'Open Sans', verdana, arial, sans-serif; font-size: 12px; fill: rgb(68, 68, 68); fill-opacity: 1; white-space: pre; opacity: 1;">0</text></g><g class="ytick"><text text-anchor="end" x="79" y="4.199999999999999" style="font-family: 'Open Sans', verdana, arial, sans-serif; font-size: 12px; fill: rgb(68, 68, 68); fill-opacity: 1; white-space: pre; opacity: 1;" transform="translate(0,373.53)">0.1</text></g><g class="ytick"><text text-anchor="end" x="79" y="4.199999999999999" style="font-family: 'Open Sans', verdana, arial, sans-serif; font-size: 12px; fill: rgb(68, 68, 68); fill-opacity: 1; white-space: pre; opacity: 1;" transform="translate(0,342.93)">0.2</text></g><g class="ytick"><text text-anchor="end" x="79" y="4.199999999999999" style="font-family: 'Open Sans', verdana, arial, sans-serif; font-size: 12px; fill: rgb(68, 68, 68); fill-opacity: 1; white-space: pre; opacity: 1;" transform="translate(0,312.34000000000003)">0.3</text></g><g class="ytick"><text text-anchor="end" x="79" y="4.199999999999999" style="font-family: 'Open Sans', verdana, arial, sans-serif; font-size: 12px; fill: rgb(68, 68, 68); fill-opacity: 1; white-space: pre; opacity: 1;" transform="translate(0,281.74)">0.4</text></g><g class="ytick"><text text-anchor="end" x="79" y="4.199999999999999" style="font-family: 'Open Sans', verdana, arial, sans-serif; font-size: 12px; fill: rgb(68, 68, 68); fill-opacity: 1; white-space: pre; opacity: 1;" transform="translate(0,251.15)">0.5</text></g><g class="ytick"><text text-anchor="end" x="79" y="4.199999999999999" style="font-family: 'Open Sans', verdana, arial, sans-serif; font-size: 12px; fill: rgb(68, 68, 68); fill-opacity: 1; white-space: pre; opacity: 1;" transform="translate(0,220.55)">0.6</text></g><g class="ytick"><text text-anchor="end" x="79" y="4.199999999999999" style="font-family: 'Open Sans', verdana, arial, sans-serif; font-size: 12px; fill: rgb(68, 68, 68); fill-opacity: 1; white-space: pre; opacity: 1;" transform="translate(0,189.95999999999998)">0.7</text></g><g class="ytick"><text text-anchor="end" x="79" y="4.199999999999999" style="font-family: 'Open Sans', verdana, arial, sans-serif; font-size: 12px; fill: rgb(68, 68, 68); fill-opacity: 1; white-space: pre; opacity: 1;" transform="translate(0,159.36)">0.8</text></g><g class="ytick"><text text-anchor="end" x="79" y="4.199999999999999" style="font-family: 'Open Sans', verdana, arial, sans-serif; font-size: 12px; fill: rgb(68, 68, 68); fill-opacity: 1; white-space: pre; opacity: 1;" transform="translate(0,128.77)">0.9</text></g></g><g class="overaxes-above"/></g></g><g class="polarlayer"/><g class="smithlayer"/><g class="ternarylayer"/><g class="geolayer"/><g class="funnelarealayer"/><g class="pielayer"/><g class="iciclelayer"/><g class="treemaplayer"/><g class="sunburstlayer"/><g class="glimages"/><defs id="topdefs-7a0801"><g class="clips"/><clipPath id="legend7a0801"><rect width="249" height="320" x="0" y="0"/></clipPath></defs><g class="layer-above"><g class="imagelayer"/><g class="shapelayer"/></g><g class="infolayer"><g class="legend" pointer-events="all" transform="translate(439.04,100)"><rect class="bg" shape-rendering="crispEdges" style="stroke: rgb(68, 68, 68); stroke-opacity: 1; fill: rgb(255, 255, 255); fill-opacity: 1; stroke-width: 0px;" width="249" height="320" x="0" y="0"/><g class="scrollbox" transform="" clip-path="url(#legend7a0801)"><g class="groups"><g class="traces" transform="translate(0,14.5)" style="opacity: 1;"><text class="legendtext" text-anchor="start" x="40" y="4.680000000000001" style="font-family: 'Open Sans', verdana, arial, sans-serif; font-size: 12px; fill: rgb(68, 68, 68); fill-opacity: 1; white-space: pre;"> TrueLambda= 7.643216080402</text><g class="layers" style="opacity: 1;"><g class="legendfill"/><g class="legendlines"><path class="js-line" d="M5,0h30" style="fill: none; stroke: rgb(31, 119, 180); stroke-opacity: 1; stroke-width: 1px;"/></g><g class="legendsymbols"><g class="legendpoints"/></g></g><rect class="legendtoggle" x="0" y="-9.5" width="243.609375" height="19" style="fill: rgb(0, 0, 0); fill-opacity: 0;"/></g><g class="traces" transform="translate(0,33.5)" style="opacity: 1;"><text class="legendtext" text-anchor="start" x="40" y="4.680000000000001" style="font-family: 'Open Sans', verdana, arial, sans-serif; font-size: 12px; fill: rgb(68, 68, 68); fill-opacity: 1; white-space: pre;">PredLambda= 7.643216080402</text><g class="layers" style="opacity: 1;"><g class="legendfill"/><g class="legendlines"><path class="js-line" d="M5,0h30" style="fill: none; stroke: rgb(255, 127, 14); stroke-opacity: 1; stroke-width: 1px;"/></g><g class="legendsymbols"><g class="legendpoints"/></g></g><rect class="legendtoggle" x="0" y="-9.5" width="243.609375" height="19" style="fill: rgb(0, 0, 0); fill-opacity: 0;"/></g><g class="traces" transform="translate(0,52.5)" style="opacity: 1;"><text class="legendtext" text-anchor="start" x="40" y="4.680000000000001" style="font-family: 'Open Sans', verdana, arial, sans-serif; font-size: 12px; fill: rgb(68, 68, 68); fill-opacity: 1; white-space: pre;"> TrueLambda= 7.8442211055276</text><g class="layers" style="opacity: 1;"><g class="legendfill"/><g class="legendlines"><path class="js-line" d="M5,0h30" style="fill: none; stroke: rgb(44, 160, 44); stroke-opacity: 1; stroke-width: 1px;"/></g><g class="legendsymbols"><g class="legendpoints"/></g></g><rect class="legendtoggle" x="0" y="-9.5" width="243.609375" height="19" style="fill: rgb(0, 0, 0); fill-opacity: 0;"/></g><g class="traces" transform="translate(0,71.5)" style="opacity: 1;"><text class="legendtext" text-anchor="start" x="40" y="4.680000000000001" style="font-family: 'Open Sans', verdana, arial, sans-serif; font-size: 12px; fill: rgb(68, 68, 68); fill-opacity: 1; white-space: pre;">PredLambda= 7.8442211055276</text><g class="layers" style="opacity: 1;"><g class="legendfill"/><g class="legendlines"><path class="js-line" d="M5,0h30" style="fill: none; stroke: rgb(214, 39, 40); stroke-opacity: 1; stroke-width: 1px;"/></g><g class="legendsymbols"><g class="legendpoints"/></g></g><rect class="legendtoggle" x="0" y="-9.5" width="243.609375" height="19" style="fill: rgb(0, 0, 0); fill-opacity: 0;"/></g><g class="traces" transform="translate(0,90.5)" style="opacity: 1;"><text class="legendtext" text-anchor="start" x="40" y="4.680000000000001" style="font-family: 'Open Sans', verdana, arial, sans-serif; font-size: 12px; fill: rgb(68, 68, 68); fill-opacity: 1; white-space: pre;"> TrueLambda= 8.1457286432161</text><g class="layers" style="opacity: 1;"><g class="legendfill"/><g class="legendlines"><path class="js-line" d="M5,0h30" style="fill: none; stroke: rgb(148, 103, 189); stroke-opacity: 1; stroke-width: 1px;"/></g><g class="legendsymbols"><g class="legendpoints"/></g></g><rect class="legendtoggle" x="0" y="-9.5" width="243.609375" height="19" style="fill: rgb(0, 0, 0); fill-opacity: 0;"/></g><g class="traces" transform="translate(0,109.5)" style="opacity: 1;"><text class="legendtext" text-anchor="start" x="40" y="4.680000000000001" style="font-family: 'Open Sans', verdana, arial, sans-serif; font-size: 12px; fill: rgb(68, 68, 68); fill-opacity: 1; white-space: pre;">PredLambda= 8.1457286432161</text><g class="layers" style="opacity: 1;"><g class="legendfill"/><g class="legendlines"><path class="js-line" d="M5,0h30" style="fill: none; stroke: rgb(140, 86, 75); stroke-opacity: 1; stroke-width: 1px;"/></g><g class="legendsymbols"><g class="legendpoints"/></g></g><rect class="legendtoggle" x="0" y="-9.5" width="243.609375" height="19" style="fill: rgb(0, 0, 0); fill-opacity: 0;"/></g><g class="traces" transform="translate(0,128.5)" style="opacity: 1;"><text class="legendtext" text-anchor="start" x="40" y="4.680000000000001" style="font-family: 'Open Sans', verdana, arial, sans-serif; font-size: 12px; fill: rgb(68, 68, 68); fill-opacity: 1; white-space: pre;"> TrueLambda= 8.3065326633166</text><g class="layers" style="opacity: 1;"><g class="legendfill"/><g class="legendlines"><path class="js-line" d="M5,0h30" style="fill: none; stroke: rgb(227, 119, 194); stroke-opacity: 1; stroke-width: 1px;"/></g><g class="legendsymbols"><g class="legendpoints"/></g></g><rect class="legendtoggle" x="0" y="-9.5" width="243.609375" height="19" style="fill: rgb(0, 0, 0); fill-opacity: 0;"/></g><g class="traces" transform="translate(0,147.5)" style="opacity: 1;"><text class="legendtext" text-anchor="start" x="40" y="4.680000000000001" style="font-family: 'Open Sans', verdana, arial, sans-serif; font-size: 12px; fill: rgb(68, 68, 68); fill-opacity: 1; white-space: pre;">PredLambda= 8.3065326633166</text><g class="layers" style="opacity: 1;"><g class="legendfill"/><g class="legendlines"><path class="js-line" d="M5,0h30" style="fill: none; stroke: rgb(127, 127, 127); stroke-opacity: 1; stroke-width: 1px;"/></g><g class="legendsymbols"><g class="legendpoints"/></g></g><rect class="legendtoggle" x="0" y="-9.5" width="243.609375" height="19" style="fill: rgb(0, 0, 0); fill-opacity: 0;"/></g><g class="traces" transform="translate(0,166.5)" style="opacity: 1;"><text class="legendtext" text-anchor="start" x="40" y="4.680000000000001" style="font-family: 'Open Sans', verdana, arial, sans-serif; font-size: 12px; fill: rgb(68, 68, 68); fill-opacity: 1; white-space: pre;"> TrueLambda= 9.4321608040201</text><g class="layers" style="opacity: 1;"><g class="legendfill"/><g class="legendlines"><path class="js-line" d="M5,0h30" style="fill: none; stroke: rgb(188, 189, 34); stroke-opacity: 1; stroke-width: 1px;"/></g><g class="legendsymbols"><g class="legendpoints"/></g></g><rect class="legendtoggle" x="0" y="-9.5" width="243.609375" height="19" style="fill: rgb(0, 0, 0); fill-opacity: 0;"/></g><g class="traces" transform="translate(0,185.5)" style="opacity: 1;"><text class="legendtext" text-anchor="start" x="40" y="4.680000000000001" style="font-family: 'Open Sans', verdana, arial, sans-serif; font-size: 12px; fill: rgb(68, 68, 68); fill-opacity: 1; white-space: pre;">PredLambda= 9.4321608040201</text><g class="layers" style="opacity: 1;"><g class="legendfill"/><g class="legendlines"><path class="js-line" d="M5,0h30" style="fill: none; stroke: rgb(23, 190, 207); stroke-opacity: 1; stroke-width: 1px;"/></g><g class="legendsymbols"><g class="legendpoints"/></g></g><rect class="legendtoggle" x="0" y="-9.5" width="243.609375" height="19" style="fill: rgb(0, 0, 0); fill-opacity: 0;"/></g><g class="traces" transform="translate(0,204.5)" style="opacity: 1;"><text class="legendtext" text-anchor="start" x="40" y="4.680000000000001" style="font-family: 'Open Sans', verdana, arial, sans-serif; font-size: 12px; fill: rgb(68, 68, 68); fill-opacity: 1; white-space: pre;"> TrueLambda= 9.6331658291457</text><g class="layers" style="opacity: 1;"><g class="legendfill"/><g class="legendlines"><path class="js-line" d="M5,0h30" style="fill: none; stroke: rgb(31, 119, 180); stroke-opacity: 1; stroke-width: 1px;"/></g><g class="legendsymbols"><g class="legendpoints"/></g></g><rect class="legendtoggle" x="0" y="-9.5" width="243.609375" height="19" style="fill: rgb(0, 0, 0); fill-opacity: 0;"/></g><g class="traces" transform="translate(0,223.5)" style="opacity: 1;"><text class="legendtext" text-anchor="start" x="40" y="4.680000000000001" style="font-family: 'Open Sans', verdana, arial, sans-serif; font-size: 12px; fill: rgb(68, 68, 68); fill-opacity: 1; white-space: pre;">PredLambda= 9.6331658291457</text><g class="layers" style="opacity: 1;"><g class="legendfill"/><g class="legendlines"><path class="js-line" d="M5,0h30" style="fill: none; stroke: rgb(255, 127, 14); stroke-opacity: 1; stroke-width: 1px;"/></g><g class="legendsymbols"><g class="legendpoints"/></g></g><rect class="legendtoggle" x="0" y="-9.5" width="243.609375" height="19" style="fill: rgb(0, 0, 0); fill-opacity: 0;"/></g><g class="traces" transform="translate(0,242.5)" style="opacity: 1;"><text class="legendtext" text-anchor="start" x="40" y="4.680000000000001" style="font-family: 'Open Sans', verdana, arial, sans-serif; font-size: 12px; fill: rgb(68, 68, 68); fill-opacity: 1; white-space: pre;"> TrueLambda= 9.9145728643216</text><g class="layers" style="opacity: 1;"><g class="legendfill"/><g class="legendlines"><path class="js-line" d="M5,0h30" style="fill: none; stroke: rgb(44, 160, 44); stroke-opacity: 1; stroke-width: 1px;"/></g><g class="legendsymbols"><g class="legendpoints"/></g></g><rect class="legendtoggle" x="0" y="-9.5" width="243.609375" height="19" style="fill: rgb(0, 0, 0); fill-opacity: 0;"/></g><g class="traces" transform="translate(0,261.5)" style="opacity: 1;"><text class="legendtext" text-anchor="start" x="40" y="4.680000000000001" style="font-family: 'Open Sans', verdana, arial, sans-serif; font-size: 12px; fill: rgb(68, 68, 68); fill-opacity: 1; white-space: pre;">PredLambda= 9.9145728643216</text><g class="layers" style="opacity: 1;"><g class="legendfill"/><g class="legendlines"><path class="js-line" d="M5,0h30" style="fill: none; stroke: rgb(214, 39, 40); stroke-opacity: 1; stroke-width: 1px;"/></g><g class="legendsymbols"><g class="legendpoints"/></g></g><rect class="legendtoggle" x="0" y="-9.5" width="243.609375" height="19" style="fill: rgb(0, 0, 0); fill-opacity: 0;"/></g><g class="traces" transform="translate(0,280.5)" style="opacity: 1;"><text class="legendtext" text-anchor="start" x="40" y="4.680000000000001" style="font-family: 'Open Sans', verdana, arial, sans-serif; font-size: 12px; fill: rgb(68, 68, 68); fill-opacity: 1; white-space: pre;"> TrueLambda= 10.276381909548</text><g class="layers" style="opacity: 1;"><g class="legendfill"/><g class="legendlines"><path class="js-line" d="M5,0h30" style="fill: none; stroke: rgb(148, 103, 189); stroke-opacity: 1; stroke-width: 1px;"/></g><g class="legendsymbols"><g class="legendpoints"/></g></g><rect class="legendtoggle" x="0" y="-9.5" width="243.609375" height="19" style="fill: rgb(0, 0, 0); fill-opacity: 0;"/></g><g class="traces" transform="translate(0,299.5)" style="opacity: 1;"><text class="legendtext" text-anchor="start" x="40" y="4.680000000000001" style="font-family: 'Open Sans', verdana, arial, sans-serif; font-size: 12px; fill: rgb(68, 68, 68); fill-opacity: 1; white-space: pre;">PredLambda= 10.276381909548</text><g class="layers" style="opacity: 1;"><g class="legendfill"/><g class="legendlines"><path class="js-line" d="M5,0h30" style="fill: none; stroke: rgb(140, 86, 75); stroke-opacity: 1; stroke-width: 1px;"/></g><g class="legendsymbols"><g class="legendpoints"/></g></g><rect class="legendtoggle" x="0" y="-9.5" width="243.609375" height="19" style="fill: rgb(0, 0, 0); fill-opacity: 0;"/></g><g class="traces" transform="translate(0,318.5)" style="opacity: 1;"><text class="legendtext" text-anchor="start" x="40" y="4.680000000000001" style="font-family: 'Open Sans', verdana, arial, sans-serif; font-size: 12px; fill: rgb(68, 68, 68); fill-opacity: 1; white-space: pre;"> TrueLambda= 10.497487437186</text><g class="layers" style="opacity: 1;"><g class="legendfill"/><g class="legendlines"><path class="js-line" d="M5,0h30" style="fill: none; stroke: rgb(227, 119, 194); stroke-opacity: 1; stroke-width: 1px;"/></g><g class="legendsymbols"><g class="legendpoints"/></g></g><rect class="legendtoggle" x="0" y="-9.5" width="243.609375" height="19" style="fill: rgb(0, 0, 0); fill-opacity: 0;"/></g><g class="traces" transform="translate(0,337.5)" style="opacity: 1;"><text class="legendtext" text-anchor="start" x="40" y="4.680000000000001" style="font-family: 'Open Sans', verdana, arial, sans-serif; font-size: 12px; fill: rgb(68, 68, 68); fill-opacity: 1; white-space: pre;">PredLambda= 10.497487437186</text><g class="layers" style="opacity: 1;"><g class="legendfill"/><g class="legendlines"><path class="js-line" d="M5,0h30" style="fill: none; stroke: rgb(127, 127, 127); stroke-opacity: 1; stroke-width: 1px;"/></g><g class="legendsymbols"><g class="legendpoints"/></g></g><rect class="legendtoggle" x="0" y="-9.5" width="243.609375" height="19" style="fill: rgb(0, 0, 0); fill-opacity: 0;"/></g><g class="traces" transform="translate(0,356.5)" style="opacity: 1;"><text class="legendtext" text-anchor="start" x="40" y="4.680000000000001" style="font-family: 'Open Sans', verdana, arial, sans-serif; font-size: 12px; fill: rgb(68, 68, 68); fill-opacity: 1; white-space: pre;"> TrueLambda= 10.638190954774</text><g class="layers" style="opacity: 1;"><g class="legendfill"/><g class="legendlines"><path class="js-line" d="M5,0h30" style="fill: none; stroke: rgb(188, 189, 34); stroke-opacity: 1; stroke-width: 1px;"/></g><g class="legendsymbols"><g class="legendpoints"/></g></g><rect class="legendtoggle" x="0" y="-9.5" width="243.609375" height="19" style="fill: rgb(0, 0, 0); fill-opacity: 0;"/></g><g class="traces" transform="translate(0,375.5)" style="opacity: 1;"><text class="legendtext" text-anchor="start" x="40" y="4.680000000000001" style="font-family: 'Open Sans', verdana, arial, sans-serif; font-size: 12px; fill: rgb(68, 68, 68); fill-opacity: 1; white-space: pre;">PredLambda= 10.638190954774</text><g class="layers" style="opacity: 1;"><g class="legendfill"/><g class="legendlines"><path class="js-line" d="M5,0h30" style="fill: none; stroke: rgb(23, 190, 207); stroke-opacity: 1; stroke-width: 1px;"/></g><g class="legendsymbols"><g class="legendpoints"/></g></g><rect class="legendtoggle" x="0" y="-9.5" width="243.609375" height="19" style="fill: rgb(0, 0, 0); fill-opacity: 0;"/></g></g></g><rect class="scrollbar" rx="20" ry="3" width="0" height="0" style="fill: rgb(128, 139, 164); fill-opacity: 1;" x="0" y="0"/></g><g class="g-gtitle"><text class="gtitle" x="350" y="50" text-anchor="middle" dy="0em" style="font-family: Rockwell; font-size: 24px; fill: rgb(68, 68, 68); opacity: 1; font-weight: normal; white-space: pre;">S-Parameters [Magnitude]</text></g><g class="g-xtitle"/><g class="g-ytitle"/></g></svg>