<svg class="main-svg" xmlns="http://www.w3.org/2000/svg" xmlns:xlink="http://www.w3.org/1999/xlink" width="700" height="500" style="" viewBox="0 0 700 500"><rect x="0" y="0" width="700" height="500" style="fill: rgb(255, 255, 255); fill-opacity: 1;"/><defs id="defs-a62c50"><g class="clips"><clipPath id="clipa62c50xyplot" class="plotclip"><rect width="352" height="320"/></clipPath><clipPath class="axesclip" id="clipa62c50x"><rect x="80" y="0" width="352" height="500"/></clipPath><clipPath class="axesclip" id="clipa62c50y"><rect x="0" y="100" width="700" height="320"/></clipPath><clipPath class="axesclip" id="clipa62c50xy"><rect x="80" y="100" width="352" height="320"/></clipPath></g><g class="gradients"/><g class="patterns"/></defs><g class="bglayer"/><g class="layer-below"><g class="imagelayer"/><g class="shapelayer"/></g><g class="cartesianlayer"><g class="subplot xy"><g class="layer-subplot"><g class="shapelayer"/><g class="imagelayer"/></g><g class="minor-gridlayer"><g class="x"/><g class="y"/></g><g class="gridlayer"><g class="x"><path class="xgrid crisp" transform="translate(115.2,0)" d="M0,100v320" style="stroke: rgb(0, 0, 0); stroke-opacity: 1; stroke-dasharray: 3px, 3px; stroke-width: 1px;"/><path class="xgrid crisp" transform="translate(150.4,0)" d="M0,100v320" style="stroke: rgb(0, 0, 0); stroke-opacity: 1; stroke-dasharray: 3px, 3px; stroke-width: 1px;"/><path class="xgrid crisp" transform="translate(185.6,0)" d="M0,100v320" style="stroke: rgb(0, 0, 0); stroke-opacity: 1; stroke-dasharray: 3px, 3px; stroke-width: 1px;"/><path class="xgrid crisp" transform="translate(220.8,0)" d="M0,100v320" style="stroke: rgb(0, 0, 0); stroke-opacity: 1; stroke-dasharray: 3px, 3px; stroke-width: 1px;"/><path class="xgrid crisp" transform="translate(256,0)" d="M0,100v320" style="stroke: rgb(0, 0, 0); stroke-opacity: 1; stroke-dasharray: 3px, 3px; stroke-width: 1px;"/><path class="xgrid crisp" transform="translate(291.2,0)" d="M0,100v320" style="stroke: rgb(0, 0, 0); stroke-opacity: 1; stroke-dasharray: 3px, 3px; stroke-width: 1px;"/><path class="xgrid crisp" transform="translate(326.4,0)" d="M0,100v320" style="stroke: rgb(0, 0, 0); stroke-opacity: 1; stroke-dasharray: 3px, 3px; stroke-width: 1px;"/><path class="xgrid crisp" transform="translate(361.6,0)" d="M0,100v320" style="stroke: rgb(0, 0, 0); stroke-opacity: 1; stroke-dasharray: 3px, 3px; stroke-width: 1px;"/><path class="xgrid crisp" transform="translate(396.8,0)" d="M0,100v320" style="stroke: rgb(0, 0, 0); stroke-opacity: 1; stroke-dasharray: 3px, 3px; stroke-width: 1px;"/></g><g class="y"><path class="ygrid crisp" transform="translate(0,374.18)" d="M80,0h352" style="stroke: rgb(0, 0, 0); stroke-opacity: 1; stroke-dasharray: 3px, 3px; stroke-width: 1px;"/><path class="ygrid crisp" transform="translate(0,344.24)" d="M80,0h352" style="stroke: rgb(0, 0, 0); stroke-opacity: 1; stroke-dasharray: 3px, 3px; stroke-width: 1px;"/><path class="ygrid crisp" transform="translate(0,314.3)" d="M80,0h352" style="stroke: rgb(0, 0, 0); stroke-opacity: 1; stroke-dasharray: 3px, 3px; stroke-width: 1px;"/><path class="ygrid crisp" transform="translate(0,284.36)" d="M80,0h352" style="stroke: rgb(0, 0, 0); stroke-opacity: 1; stroke-dasharray: 3px, 3px; stroke-width: 1px;"/><path class="ygrid crisp" transform="translate(0,254.42)" d="M80,0h352" style="stroke: rgb(0, 0, 0); stroke-opacity: 1; stroke-dasharray: 3px, 3px; stroke-width: 1px;"/><path class="ygrid crisp" transform="translate(0,224.48000000000002)" d="M80,0h352" style="stroke: rgb(0, 0, 0); stroke-opacity: 1; stroke-dasharray: 3px, 3px; stroke-width: 1px;"/><path class="ygrid crisp" transform="translate(0,194.53)" d="M80,0h352" style="stroke: rgb(0, 0, 0); stroke-opacity: 1; stroke-dasharray: 3px, 3px; stroke-width: 1px;"/><path class="ygrid crisp" transform="translate(0,164.59)" d="M80,0h352" style="stroke: rgb(0, 0, 0); stroke-opacity: 1; stroke-dasharray: 3px, 3px; stroke-width: 1px;"/><path class="ygrid crisp" transform="translate(0,134.65)" d="M80,0h352" style="stroke: rgb(0, 0, 0); stroke-opacity: 1; stroke-dasharray: 3px, 3px; stroke-width: 1px;"/><path class="ygrid crisp" transform="translate(0,104.71)" d="M80,0h352" style="stroke: rgb(0, 0, 0); stroke-opacity: 1; stroke-dasharray: 3px, 3px; stroke-width: 1px;"/></g></g><g class="zerolinelayer"><path class="yzl zl crisp" transform="translate(0,404.12)" d="M80,0h352" style="stroke: rgb(68, 68, 68); stroke-opacity: 1; stroke-width: 1px;"/></g><path class="xlines-below"/><path class="ylines-below"/><g class="overlines-below"/><g class="xaxislayer-below"/><g class="yaxislayer-below"/><g class="overaxes-below"/><g class="plot" transform="translate(80,100)" clip-path="url(#clipa62c50xyplot)"><g class="scatterlayer mlayer"><g class="trace scatter trace9377fb" style="stroke-miterlimit: 2; opacity: 1;"><g class="fills"/><g class="errorbars"/><g class="lines"><path class="js-line" d="M0,16L42.94,20.43L43.3,20.47L96.1,28.56L96.45,28.63L131.3,36.31L131.65,36.4L158.4,44.05L158.75,44.16L180.22,51.69L180.58,51.83L198.88,59.42L199.23,59.57L222.11,70.83L222.46,71.02L239.36,80.76L239.71,80.98L261.18,95.33L261.54,95.58L284.06,113.19L284.42,113.49L300.96,128.15L301.31,128.48L323.14,150.06L323.49,150.42L347.78,177.14L348.13,177.55L352,182.04" style="vector-effect: non-scaling-stroke; fill: none; stroke: rgb(31, 119, 180); stroke-opacity: 1; stroke-width: 1px; opacity: 1;"/></g><g class="points"/><g class="text"/></g><g class="trace scatter tracedbd64d" style="stroke-miterlimit: 2; opacity: 1;"><g class="fills"/><g class="errorbars"/><g class="lines"><path class="js-line" d="M0,16.68L56.67,22.04L57.02,22.11L72.51,24.58L72.86,24.69L80.26,26.01L80.61,26.09L118.27,34.35L118.62,34.43L138.69,39.63L139.04,39.74L160.16,45.94L160.51,46.05L185.15,54.57L185.5,54.7L202.05,61.44L202.4,61.61L215.42,67.62L215.78,67.78L248.51,86.06L248.86,86.3L265.76,97.46L266.11,97.72L290.05,115.69L290.4,115.97L301.66,125.57L302.02,125.91L306.94,130.34L307.3,130.76L320.67,144.13L321.02,144.64L324.19,148.19L324.54,148.6L333.7,159.55L334.05,160.01L348.48,178.14L348.83,178.53L352,182.14" style="vector-effect: non-scaling-stroke; fill: none; stroke: rgb(255, 127, 14); stroke-opacity: 1; stroke-width: 1px; opacity: 1;"/></g><g class="points"/><g class="text"/></g><g class="trace scatter tracedc536c" style="stroke-miterlimit: 2; opacity: 1;"><g class="fills"/><g class="errorbars"/><g class="lines"><path class="js-line" d="M0,27.93L27.46,34.17L27.81,34.26L51.04,40.98L51.39,41.1L70.4,47.84L70.75,47.98L87.3,54.91L87.65,55.07L108.06,65.21L108.42,65.4L126.37,75.99L126.72,76.22L142.56,87.04L142.91,87.3L161.92,102.32L162.27,102.62L180.22,118.97L180.58,119.32L198.18,137.42L198.53,137.81L217.18,159.16L217.54,159.58L238.3,185.65L238.66,186.11L267.87,225.73L268.22,226.23L300.96,272.05L301.31,272.54L324.54,303.39L324.9,303.29L327.71,299.96L328.06,299.51L352,269.54" style="vector-effect: non-scaling-stroke; fill: none; stroke: rgb(44, 160, 44); stroke-opacity: 1; stroke-width: 1px; opacity: 1;"/></g><g class="points"/><g class="text"/></g><g class="trace scatter trace15d08c" style="stroke-miterlimit: 2; opacity: 1;"><g class="fills"/><g class="errorbars"/><g class="lines"><path class="js-line" d="M0,27.76L27.1,34.63L27.46,34.73L47.17,39.98L47.52,40.09L63.01,44.83L63.36,44.94L78.14,50.34L78.5,50.49L91.87,56.25L92.22,56.43L110.88,66.05L111.23,66.25L129.89,77.77L130.24,78.01L149.95,92.4L150.3,92.68L165.44,105.37L165.79,105.68L187.26,126.25L187.62,126.61L205.57,146.12L205.92,146.53L224.58,168.95L224.93,169.4L254.5,208.55L254.85,209.06L267.17,226.12L267.52,226.61L303.42,275.6L303.78,276.07L315.39,291.1L315.74,291.51L325.6,303.99L325.95,303.7L326.3,303.27L331.94,296.26L332.29,295.67L339.33,286.78L339.68,286.28L352,270.62" style="vector-effect: non-scaling-stroke; fill: none; stroke: rgb(214, 39, 40); stroke-opacity: 1; stroke-width: 1px; opacity: 1;"/></g><g class="points"/><g class="text"/></g><g class="trace scatter trace5130bf" style="stroke-miterlimit: 2; opacity: 1;"><g class="fills"/><g class="errorbars"/><g class="lines"><path class="js-line" d="M0,43.36L22.18,52.37L22.53,52.53L40.48,61.54L40.83,61.73L62.66,74.99L63.01,75.23L77.79,85.83L78.14,86.1L92.22,97.57L92.58,97.88L107.36,111.49L107.71,111.84L123.2,127.91L123.55,128.29L142.91,150.94L143.26,151.38L156.29,168.1L156.64,168.56L181.28,202.85L181.63,203.36L222.82,264.67L223.17,265.2L249.22,303.31L249.57,303.74L250.27,303.33L250.62,302.85L283.71,258.77L284.06,258.33L310.46,227.79L310.82,227.42L328.06,209.77L328.42,209.43L347.42,191.99L347.78,191.69L352,188.1" style="vector-effect: non-scaling-stroke; fill: none; stroke: rgb(148, 103, 189); stroke-opacity: 1; stroke-width: 1px; opacity: 1;"/></g><g class="points"/><g class="text"/></g><g class="trace scatter trace41dae3" style="stroke-miterlimit: 2; opacity: 1;"><g class="fills"/><g class="errorbars"/><g class="lines"><path class="js-line" d="M0,44.38L30.27,55.45L30.62,55.65L35.55,58.05L35.9,58.2L52.1,67.59L52.45,67.83L65.47,76.88L65.82,77.16L88.35,95.5L88.7,95.81L106.66,112.75L107.01,113.1L128.83,136.53L129.18,136.93L146.78,158.1L147.14,158.54L167.55,185.4L167.9,185.88L185.5,210.59L185.86,211.09L249.57,302.69L249.92,303.15L250.62,304L250.98,303.64L251.33,303.16L275.26,272.21L275.62,271.79L288.64,255.9L288.99,255.47L328.42,209.3L328.77,208.96L335.81,201.1L336.16,200.72L347.78,189.7L348.13,189.42L352,186.33" style="vector-effect: non-scaling-stroke; fill: none; stroke: rgb(140, 86, 75); stroke-opacity: 1; stroke-width: 1px; opacity: 1;"/></g><g class="points"/><g class="text"/></g><g class="trace scatter trace3b7bc1" style="stroke-miterlimit: 2; opacity: 1;"><g class="fills"/><g class="errorbars"/><g class="lines"><path class="js-line" d="M0,50.91L14.43,57.88L14.78,58.07L28.51,65.76L28.86,65.97L47.52,78.22L47.87,78.47L64.06,90.93L64.42,91.22L80.61,105.59L80.96,105.92L99.62,125.03L99.97,125.42L118.62,147.31L118.98,147.75L139.04,174.15L139.39,174.64L165.44,212.35L165.79,212.88L225.98,303.58L226.34,303.42L230.91,297.06L231.26,296.55L260.13,257.58L260.48,257.13L280.54,233.1L280.9,232.7L297.79,214.52L298.14,214.16L319.97,193.32L320.32,193.01L335.1,180.5L335.46,180.22L349.89,169.23L350.24,168.97L352,167.71" style="vector-effect: non-scaling-stroke; fill: none; stroke: rgb(227, 119, 194); stroke-opacity: 1; stroke-width: 1px; opacity: 1;"/></g><g class="points"/><g class="text"/></g><g class="trace scatter trace7d5dca" style="stroke-miterlimit: 2; opacity: 1;"><g class="fills"/><g class="errorbars"/><g class="lines"><path class="js-line" d="M0,50.66L21.47,60.49L21.82,60.83L25.34,62.67L25.7,62.92L40.83,72.78L41.18,73.03L60.19,88.15L60.54,88.45L73.57,100.26L73.92,100.58L104.19,132.27L104.54,132.67L121.09,152.61L121.44,153.06L140.1,177.71L140.45,178.19L162.62,209.86L162.98,210.38L226.34,303.53L226.69,303.56L229.15,300.46L229.5,299.98L255.9,265.26L256.26,264.82L273.5,243.84L273.86,243.42L295.68,218.4L296.03,218.04L305.54,207.71L305.89,207.38L312.93,200.06L313.28,199.76L319.97,193.17L320.32,192.91L323.84,189.66L324.19,189.19L327.36,186.56L327.71,186.19L333.7,181.36L334.05,181.08L352,168.65" style="vector-effect: non-scaling-stroke; fill: none; stroke: rgb(127, 127, 127); stroke-opacity: 1; stroke-width: 1px; opacity: 1;"/></g><g class="points"/><g class="text"/></g><g class="trace scatter tracefaa236" style="stroke-miterlimit: 2; opacity: 1;"><g class="fills"/><g class="errorbars"/><g class="lines"><path class="js-line" d="M0,70.92L17.25,83.64L17.6,83.92L37.31,101.13L37.66,101.46L52.45,116.42L52.8,116.8L69.7,136.21L70.05,136.64L87.65,159.44L88,159.93L107.71,188.22L108.06,188.75L127.07,218.05L127.42,218.61L147.49,250.61L147.84,251.18L180.93,302.81L181.28,303.1L182.34,302.54L182.69,302.09L197.12,281.04L197.47,280.53L217.89,252.62L218.24,252.17L234.43,232.1L234.78,231.69L254.14,210.2L254.5,209.83L269.98,194.53L270.34,194.2L287.23,179.29L287.58,179L310.11,161.73L310.46,161.48L331.23,147.94L331.58,147.73L352,136.38" style="vector-effect: non-scaling-stroke; fill: none; stroke: rgb(188, 189, 34); stroke-opacity: 1; stroke-width: 1px; opacity: 1;"/></g><g class="points"/><g class="text"/></g><g class="trace scatter trace8797a2" style="stroke-miterlimit: 2; opacity: 1;"><g class="fills"/><g class="errorbars"/><g class="lines"><path class="js-line" d="M0,69.15L13.38,79.16L13.73,79.48L21.47,86.25L21.82,86.67L27.1,91.54L27.46,91.88L48.93,113.68L49.28,114.06L68.64,136.18L68.99,136.6L93.28,168.16L93.63,168.65L115.81,200.97L116.16,201.51L143.62,244.44L143.97,245L181.63,303.12L181.98,303.14L183.39,301.61L183.74,301.12L221.06,249.77L221.41,249.32L241.47,225.3L241.82,224.9L267.17,197.77L267.52,197.41L291.46,175.08L291.81,174.79L308.35,161.98L308.7,161.76L320.32,154.57L320.67,154.43L328.06,150.64L328.42,150.47L344.26,143.84L344.61,143.64L352,139.6" style="vector-effect: non-scaling-stroke; fill: none; stroke: rgb(23, 190, 207); stroke-opacity: 1; stroke-width: 1px; opacity: 1;"/></g><g class="points"/><g class="text"/></g><g class="trace scatter traceb6c292" style="stroke-miterlimit: 2; opacity: 1;"><g class="fills"/><g class="errorbars"/><g class="lines"><path class="js-line" d="M0,121.66L15.14,140.5L15.49,140.97L30.98,162.55L31.33,163.07L48.22,189L48.58,189.56L72.86,229.82L73.22,230.42L115.1,300.81L115.46,301.33L117.22,302.7L117.57,302.45L120.74,297.91L121.09,297.36L145.02,261.12L145.38,260.61L164.03,235.23L164.38,234.78L185.5,209.47L185.86,209.08L202.4,191.75L202.75,191.41L217.54,177.67L217.89,177.36L234.08,164.02L234.43,163.74L252.74,150.56L253.09,150.32L274.91,136.85L275.26,136.65L304.83,121.7L305.18,121.55L328.77,111.86L329.12,111.73L352,103.75" style="vector-effect: non-scaling-stroke; fill: none; stroke: rgb(31, 119, 180); stroke-opacity: 1; stroke-width: 1px; opacity: 1;"/></g><g class="points"/><g class="text"/></g><g class="trace scatter traceb0a31b" style="stroke-miterlimit: 2; opacity: 1;"><g class="fills"/><g class="errorbars"/><g class="lines"><path class="js-line" d="M0,123.19L20.77,149.87L21.12,150.35L38.37,174.22L38.72,174.73L55.26,199.64L55.62,200.19L79.2,238.62L79.55,239.21L117.92,302.48L118.27,302.68L119.33,302.07L119.68,301.63L127.07,290.25L127.42,289.7L153.82,250.62L154.18,250.13L170.72,228.25L171.07,227.81L188.67,206.85L189.02,206.45L212.26,182.22L212.61,181.88L228.8,167.18L229.15,166.88L248.86,151.46L249.22,151.21L264.35,141.29L264.7,141.08L283.01,131.22L283.36,131.05L303.07,122.3L303.42,122.15L330.88,109.9L331.23,109.72L349.18,101.23L349.54,101.1L352,100.22" style="vector-effect: non-scaling-stroke; fill: none; stroke: rgb(255, 127, 14); stroke-opacity: 1; stroke-width: 1px; opacity: 1;"/></g><g class="points"/><g class="text"/></g><g class="trace scatter trace4363bf" style="stroke-miterlimit: 2; opacity: 1;"><g class="fills"/><g class="errorbars"/><g class="lines"><path class="js-line" d="M0,168.64L21.12,203.18L21.47,203.79L53.86,260.76L54.21,261.39L78.14,302.27L78.5,302.56L79.55,302.2L79.9,301.78L85.54,292.85L85.89,292.28L103.14,265.1L103.49,264.57L118.27,243.11L118.62,242.63L138.34,216.97L138.69,216.55L153.47,199.54L153.82,199.16L173.89,178.99L174.24,178.66L192.54,162.89L192.9,162.61L210.14,149.76L210.5,149.52L225.63,139.63L225.98,139.42L245.7,128.23L246.05,128.05L262.24,120.09L262.59,119.93L278.43,113.07L278.78,112.93L308.7,102.05L309.06,101.94L329.47,95.73L329.82,95.63L352,89.75" style="vector-effect: non-scaling-stroke; fill: none; stroke: rgb(44, 160, 44); stroke-opacity: 1; stroke-width: 1px; opacity: 1;"/></g><g class="points"/><g class="text"/></g><g class="trace scatter traceaf3770" style="stroke-miterlimit: 2; opacity: 1;"><g class="fills"/><g class="errorbars"/><g class="lines"><path class="js-line" d="M0,169.55L29.92,217.01L30.27,217.63L42.59,239.1L42.94,239.73L79.2,302.25L79.55,302.32L80.96,301.09L81.31,300.58L89.06,288.21L89.41,287.64L110.88,254.66L111.23,254.15L128.48,230.32L128.83,229.87L142.56,212.68L142.91,212.26L159.1,193.95L159.46,193.58L177.41,175.67L177.76,175.34L192.9,162.07L193.25,161.79L209.09,149.6L209.44,149.35L226.34,138.18L226.69,137.97L240.77,129.98L241.12,129.8L256.96,122.05L257.31,121.89L280.19,112.24L280.54,112.1L330.88,93.22L331.23,93.13L339.33,90.89L339.68,90.82L352,87.93" style="vector-effect: non-scaling-stroke; fill: none; stroke: rgb(214, 39, 40); stroke-opacity: 1; stroke-width: 1px; opacity: 1;"/></g><g class="points"/><g class="text"/></g><g class="trace scatter tracecdb8a5" style="stroke-miterlimit: 2; opacity: 1;"><g class="fills"/><g class="errorbars"/><g class="lines"><path class="js-line" d="M0,231.21L38.37,301L38.72,301.53L40.13,302.61L40.48,302.37L43.3,298.07L43.65,297.48L68.64,256.74L68.99,256.2L87.65,229.28L88,228.8L105.25,206.85L105.6,206.43L120.38,189.81L120.74,189.44L136.93,173.41L137.28,173.08L154.88,157.98L155.23,157.7L171.78,145.42L172.13,145.18L191.14,133.05L191.49,132.85L208.38,123.57L208.74,123.39L228.45,114.08L228.8,113.92L253.44,104.16L253.79,104.04L274.21,97.24L274.56,97.14L299.2,90.18L299.55,90.09L330.88,82.8L331.23,82.73L352,78.68" style="vector-effect: non-scaling-stroke; fill: none; stroke: rgb(148, 103, 189); stroke-opacity: 1; stroke-width: 1px; opacity: 1;"/></g><g class="points"/><g class="text"/></g><g class="trace scatter trace5de938" style="stroke-miterlimit: 2; opacity: 1;"><g class="fills"/><g class="errorbars"/><g class="lines"><path class="js-line" d="M0,229.83L23.94,275.02L24.29,275.82L27.81,282.33L28.16,282.94L34.85,295.2L35.2,295.82L39.07,301.56L39.42,301.68L40.48,301.25L40.83,300.83L44,295.96L44.35,295.37L69.7,254.02L70.05,253.49L83.42,233.83L83.78,233.35L93.98,219.48L94.34,219.02L109.47,200.34L109.82,199.93L127.78,180.57L128.13,180.22L143.26,166.14L143.62,165.82L160.51,152.29L160.86,152.03L179.87,139.2L180.22,138.98L198.88,128.44L199.23,128.25L220.35,118.22L220.7,118.07L242.88,109.01L243.23,108.88L292.16,92.4L292.51,92.34L298.5,90.71L298.85,90.64L316.45,86.84L316.8,86.8L329.82,84.78L330.18,84.84L352,81.6" style="vector-effect: non-scaling-stroke; fill: none; stroke: rgb(140, 86, 75); stroke-opacity: 1; stroke-width: 1px; opacity: 1;"/></g><g class="points"/><g class="text"/></g><g class="trace scatter trace60b673" style="stroke-miterlimit: 2; opacity: 1;"><g class="fills"/><g class="errorbars"/><g class="lines"><path class="js-line" d="M0,243.77L30.27,299.27L30.62,299.86L33.09,302.63L33.44,302.37L36.26,298.02L36.61,297.42L59.49,259.66L59.84,259.11L78.5,231.67L78.85,231.18L95.74,209.22L96.1,208.79L110.88,191.78L111.23,191.4L126.72,175.67L127.07,175.34L144.32,160.09L144.67,159.81L160.16,147.92L160.51,147.66L178.46,135.72L178.82,135.51L195.01,126.19L195.36,126L214.02,116.71L214.37,116.55L236.9,107.05L237.25,106.92L256.26,100.12L256.61,100L278.43,93.31L278.78,93.21L310.46,85.18L310.82,85.1L342.14,78.69L342.5,78.63L352,76.94" style="vector-effect: non-scaling-stroke; fill: none; stroke: rgb(227, 119, 194); stroke-opacity: 1; stroke-width: 1px; opacity: 1;"/></g><g class="points"/><g class="text"/></g><g class="trace scatter trace648b45" style="stroke-miterlimit: 2; opacity: 1;"><g class="fills"/><g class="errorbars"/><g class="lines"><path class="js-line" d="M0,242.52L31.33,300.52L31.68,300.83L32.74,301.04L33.09,300.72L34.5,299.18L34.85,298.65L39.07,291.77L39.42,291.16L71.46,240.21L71.81,239.7L85.54,220.59L85.89,220.14L98.21,204.5L98.56,204.07L115.1,185.37L115.46,185L130.24,170.45L130.59,170.12L149.95,153.91L150.3,153.64L171.78,138.94L172.13,138.72L192.54,127.32L192.9,127.14L219.65,114.92L220,114.77L241.82,106.23L242.18,106.12L271.04,96.17L271.39,96.07L301.31,88.09L301.66,88.1L304.48,87.44L304.83,87.46L308.7,86.6L309.06,86.56L318.21,85.1L318.56,84.91L329.82,83.33L330.18,83.41L350.94,80L351.3,79.94L352,79.82" style="vector-effect: non-scaling-stroke; fill: none; stroke: rgb(127, 127, 127); stroke-opacity: 1; stroke-width: 1px; opacity: 1;"/></g><g class="points"/><g class="text"/></g><g class="trace scatter trace316359" style="stroke-miterlimit: 2; opacity: 1;"><g class="fills"/><g class="errorbars"/><g class="lines"><path class="js-line" d="M0,268.88L18.66,302.5L19.01,302.71L20.06,301.91L20.42,301.39L29.92,285.07L30.27,284.47L48.58,254.55L48.93,254.01L63.71,232.13L64.06,231.64L81.66,208.43L82.02,207.99L97.86,189.68L98.21,189.29L113.34,173.92L113.7,173.58L130.94,158.34L131.3,158.06L146.78,146.2L147.14,145.95L160.86,136.69L161.22,136.47L180.58,125.15L180.93,124.96L199.58,115.67L199.94,115.51L215.42,108.81L215.78,108.66L240.77,99.46L241.12,99.34L262.94,92.63L263.3,92.53L290.4,85.56L290.75,85.47L326.3,78.09L326.66,78.03L351.3,73.86L351.65,73.81L352,73.75" style="vector-effect: non-scaling-stroke; fill: none; stroke: rgb(188, 189, 34); stroke-opacity: 1; stroke-width: 1px; opacity: 1;"/></g><g class="points"/><g class="text"/></g><g class="trace scatter tracece2f43" style="stroke-miterlimit: 2; opacity: 1;"><g class="fills"/><g class="errorbars"/><g class="lines"><path class="js-line" d="M0,268.29L17.25,299.9L17.6,300.28L19.01,300.95L19.36,300.72L20.42,299.63L20.77,299.16L24.64,292.76L24.99,291.93L45.41,257.8L45.76,257.25L60.9,234.44L61.25,233.95L75.68,214.22L76.03,213.79L86.24,201.01L86.59,200.59L104.9,180.2L105.25,179.84L120.38,165.32L120.74,165.02L136.58,151.96L136.93,151.7L148.54,143.37L148.9,143.13L167.9,131.48L168.26,131.29L184.1,123.09L184.45,122.93L212.61,110.8L212.96,110.65L236.9,101.86L237.25,101.75L255.9,95.59L256.26,95.5L288.99,86.76L289.34,86.7L319.26,81.11L319.62,81.44L320.67,80.92L321.02,80.88L324.54,80.47L324.9,80.33L326.66,80.17L327.01,80.08L329.82,79.49L330.18,79.59L346.02,76.24L346.37,76.18L352,75.27" style="vector-effect: non-scaling-stroke; fill: none; stroke: rgb(23, 190, 207); stroke-opacity: 1; stroke-width: 1px; opacity: 1;"/></g><g class="points"/><g class="text"/></g></g></g><g class="overplot"/><path class="xlines-above crisp" d="M0,0" style="fill: none;"/><path class="ylines-above crisp" d="M0,0" style="fill: none;"/><g class="overlines-above"/><g class="xaxislayer-above"><g class="xtick"><text text-anchor="middle" x="0" y="433" transform="translate(80,0)" style="font-family: 'Open Sans', verdana, arial, sans-serif; font-size: 12px; fill: rgb(68, 68, 68); fill-opacity: 1; white-space: pre; opacity: 1;">25</text></g><g class="xtick"><text text-anchor="middle" x="0" y="433" style="font-family: 'Open Sans', verdana, arial, sans-serif; font-size: 12px; fill: rgb(68, 68, 68); fill-opacity: 1; white-space: pre; opacity: 1;" transform="translate(115.2,0)">26</text></g><g class="xtick"><text text-anchor="middle" x="0" y="433" style="font-family: 'Open Sans', verdana, arial, sans-serif; font-size: 12px; fill: rgb(68, 68, 68); fill-opacity: 1; white-space: pre; opacity: 1;" transform="translate(150.4,0)">27</text></g><g class="xtick"><text text-anchor="middle" x="0" y="433" style="font-family: 'Open Sans', verdana, arial, sans-serif; font-size: 12px; fill: rgb(68, 68, 68); fill-opacity: 1; white-space: pre; opacity: 1;" transform="translate(185.6,0)">28</text></g><g class="xtick"><text text-anchor="middle" x="0" y="433" style="font-family: 'Open Sans', verdana, arial, sans-serif; font-size: 12px; fill: rgb(68, 68, 68); fill-opacity: 1; white-space: pre; opacity: 1;" transform="translate(220.8,0)">29</text></g><g class="xtick"><text text-anchor="middle" x="0" y="433" style="font-family: 'Open Sans', verdana, arial, sans-serif; font-size: 12px; fill: rgb(68, 68, 68); fill-opacity: 1; white-space: pre; opacity: 1;" transform="translate(256,0)">30</text></g><g class="xtick"><text text-anchor="middle" x="0" y="433" style="font-family: 'Open Sans', verdana, arial, sans-serif; font-size: 12px; fill: rgb(68, 68, 68); fill-opacity: 1; white-space: pre; opacity: 1;" transform="translate(291.2,0)">31</text></g><g class="xtick"><text text-anchor="middle" x="0" y="433" style="font-family: 'Open Sans', verdana, arial, sans-serif; font-size: 12px; fill: rgb(68, 68, 68); fill-opacity: 1; white-space: pre; opacity: 1;" transform="translate(326.4,0)">32</text></g><g class="xtick"><text text-anchor="middle" x="0" y="433" style="font-family: 'Open Sans', verdana, arial, sans-serif; font-size: 12px; fill: rgb(68, 68, 68); fill-opacity: 1; white-space: pre; opacity: 1;" transform="translate(361.6,0)">33</text></g><g class="xtick"><text text-anchor="middle" x="0" y="433" style="font-family: 'Open Sans', verdana, arial, sans-serif; font-size: 12px; fill: rgb(68, 68, 68); fill-opacity: 1; white-space: pre; opacity: 1;" transform="translate(396.8,0)">34</text></g><g class="xtick"><text text-anchor="middle" x="0" y="433" style="font-family: 'Open Sans', verdana, arial, sans-serif; font-size: 12px; fill: rgb(68, 68, 68); fill-opacity: 1; white-space: pre; opacity: 1;" transform="translate(432,0)">35</text></g></g><g class="yaxislayer-above"><g class="ytick"><text text-anchor="end" x="79" y="4.199999999999999" transform="translate(0,404.12)" style="font-family: 'Open Sans', verdana, arial, sans-serif; font-size: 12px; fill: rgb(68, 68, 68); fill-opacity: 1; white-space: pre; opacity: 1;">0</text></g><g class="ytick"><text text-anchor="end" x="79" y="4.199999999999999" style="font-family: 'Open Sans', verdana, arial, sans-serif; font-size: 12px; fill: rgb(68, 68, 68); fill-opacity: 1; white-space: pre; opacity: 1;" transform="translate(0,374.18)">0.1</text></g><g class="ytick"><text text-anchor="end" x="79" y="4.199999999999999" style="font-family: 'Open Sans', verdana, arial, sans-serif; font-size: 12px; fill: rgb(68, 68, 68); fill-opacity: 1; white-space: pre; opacity: 1;" transform="translate(0,344.24)">0.2</text></g><g class="ytick"><text text-anchor="end" x="79" y="4.199999999999999" style="font-family: 'Open Sans', verdana, arial, sans-serif; font-size: 12px; fill: rgb(68, 68, 68); fill-opacity: 1; white-space: pre; opacity: 1;" transform="translate(0,314.3)">0.3</text></g><g class="ytick"><text text-anchor="end" x="79" y="4.199999999999999" style="font-family: 'Open Sans', verdana, arial, sans-serif; font-size: 12px; fill: rgb(68, 68, 68); fill-opacity: 1; white-space: pre; opacity: 1;" transform="translate(0,284.36)">0.4</text></g><g class="ytick"><text text-anchor="end" x="79" y="4.199999999999999" style="font-family: 'Open Sans', verdana, arial, sans-serif; font-size: 12px; fill: rgb(68, 68, 68); fill-opacity: 1; white-space: pre; opacity: 1;" transform="translate(0,254.42)">0.5</text></g><g class="ytick"><text text-anchor="end" x="79" y="4.199999999999999" style="font-family: 'Open Sans', verdana, arial, sans-serif; font-size: 12px; fill: rgb(68, 68, 68); fill-opacity: 1; white-space: pre; opacity: 1;" transform="translate(0,224.48000000000002)">0.6</text></g><g class="ytick"><text text-anchor="end" x="79" y="4.199999999999999" style="font-family: 'Open Sans', verdana, arial, sans-serif; font-size: 12px; fill: rgb(68, 68, 68); fill-opacity: 1; white-space: pre; opacity: 1;" transform="translate(0,194.53)">0.7</text></g><g class="ytick"><text text-anchor="end" x="79" y="4.199999999999999" style="font-family: 'Open Sans', verdana, arial, sans-serif; font-size: 12px; fill: rgb(68, 68, 68); fill-opacity: 1; white-space: pre; opacity: 1;" transform="translate(0,164.59)">0.8</text></g><g class="ytick"><text text-anchor="end" x="79" y="4.199999999999999" style="font-family: 'Open Sans', verdana, arial, sans-serif; font-size: 12px; fill: rgb(68, 68, 68); fill-opacity: 1; white-space: pre; opacity: 1;" transform="translate(0,134.65)">0.9</text></g><g class="ytick"><text text-anchor="end" x="79" y="4.199999999999999" style="font-family: 'Open Sans', verdana, arial, sans-serif; font-size: 12px; fill: rgb(68, 68, 68); fill-opacity: 1; white-space: pre; opacity: 1;" transform="translate(0,104.71)">1</text></g></g><g class="overaxes-above"/></g></g><g class="polarlayer"/><g class="smithlayer"/><g class="ternarylayer"/><g class="geolayer"/><g class="funnelarealayer"/><g class="pielayer"/><g class="iciclelayer"/><g class="treemaplayer"/><g class="sunburstlayer"/><g class="glimages"/><defs id="topdefs-a62c50"><g class="clips"/><clipPath id="legenda62c50"><rect width="249" height="320" x="0" y="0"/></clipPath></defs><g class="layer-above"><g class="imagelayer"/><g class="shapelayer"/></g><g class="infolayer"><g class="legend" pointer-events="all" transform="translate(439.04,100)"><rect class="bg" shape-rendering="crispEdges" style="stroke: rgb(68, 68, 68); stroke-opacity: 1; fill: rgb(255, 255, 255); fill-opacity: 1; stroke-width: 0px;" width="249" height="320" x="0" y="0"/><g class="scrollbox" transform="" clip-path="url(#legenda62c50)"><g class="groups"><g class="traces" transform="translate(0,14.5)" style="opacity: 1;"><text class="legendtext" text-anchor="start" x="40" y="4.680000000000001" style="font-family: 'Open Sans', verdana, arial, sans-serif; font-size: 12px; fill: rgb(68, 68, 68); fill-opacity: 1; white-space: pre;"> TrueLambda= 7.1005025125628</text><g class="layers" style="opacity: 1;"><g class="legendfill"/><g class="legendlines"><path class="js-line" d="M5,0h30" style="fill: none; stroke: rgb(31, 119, 180); stroke-opacity: 1; stroke-width: 1px;"/></g><g class="legendsymbols"><g class="legendpoints"/></g></g><rect class="legendtoggle" x="0" y="-9.5" width="243.609375" height="19" style="fill: rgb(0, 0, 0); fill-opacity: 0;"/></g><g class="traces" transform="translate(0,33.5)" style="opacity: 1;"><text class="legendtext" text-anchor="start" x="40" y="4.680000000000001" style="font-family: 'Open Sans', verdana, arial, sans-serif; font-size: 12px; fill: rgb(68, 68, 68); fill-opacity: 1; white-space: pre;">PredLambda= 7.1005025125628</text><g class="layers" style="opacity: 1;"><g class="legendfill"/><g class="legendlines"><path class="js-line" d="M5,0h30" style="fill: none; stroke: rgb(255, 127, 14); stroke-opacity: 1; stroke-width: 1px;"/></g><g class="legendsymbols"><g class="legendpoints"/></g></g><rect class="legendtoggle" x="0" y="-9.5" width="243.609375" height="19" style="fill: rgb(0, 0, 0); fill-opacity: 0;"/></g><g class="traces" transform="translate(0,52.5)" style="opacity: 1;"><text class="legendtext" text-anchor="start" x="40" y="4.680000000000001" style="font-family: 'Open Sans', verdana, arial, sans-serif; font-size: 12px; fill: rgb(68, 68, 68); fill-opacity: 1; white-space: pre;"> TrueLambda= 7.8442211055276</text><g class="layers" style="opacity: 1;"><g class="legendfill"/><g class="legendlines"><path class="js-line" d="M5,0h30" style="fill: none; stroke: rgb(44, 160, 44); stroke-opacity: 1; stroke-width: 1px;"/></g><g class="legendsymbols"><g class="legendpoints"/></g></g><rect class="legendtoggle" x="0" y="-9.5" width="243.609375" height="19" style="fill: rgb(0, 0, 0); fill-opacity: 0;"/></g><g class="traces" transform="translate(0,71.5)" style="opacity: 1;"><text class="legendtext" text-anchor="start" x="40" y="4.680000000000001" style="font-family: 'Open Sans', verdana, arial, sans-serif; font-size: 12px; fill: rgb(68, 68, 68); fill-opacity: 1; white-space: pre;">PredLambda= 7.8442211055276</text><g class="layers" style="opacity: 1;"><g class="legendfill"/><g class="legendlines"><path class="js-line" d="M5,0h30" style="fill: none; stroke: rgb(214, 39, 40); stroke-opacity: 1; stroke-width: 1px;"/></g><g class="legendsymbols"><g class="legendpoints"/></g></g><rect class="legendtoggle" x="0" y="-9.5" width="243.609375" height="19" style="fill: rgb(0, 0, 0); fill-opacity: 0;"/></g><g class="traces" transform="translate(0,90.5)" style="opacity: 1;"><text class="legendtext" text-anchor="start" x="40" y="4.680000000000001" style="font-family: 'Open Sans', verdana, arial, sans-serif; font-size: 12px; fill: rgb(68, 68, 68); fill-opacity: 1; white-space: pre;"> TrueLambda= 8.3668341708543</text><g class="layers" style="opacity: 1;"><g class="legendfill"/><g class="legendlines"><path class="js-line" d="M5,0h30" style="fill: none; stroke: rgb(148, 103, 189); stroke-opacity: 1; stroke-width: 1px;"/></g><g class="legendsymbols"><g class="legendpoints"/></g></g><rect class="legendtoggle" x="0" y="-9.5" width="243.609375" height="19" style="fill: rgb(0, 0, 0); fill-opacity: 0;"/></g><g class="traces" transform="translate(0,109.5)" style="opacity: 1;"><text class="legendtext" text-anchor="start" x="40" y="4.680000000000001" style="font-family: 'Open Sans', verdana, arial, sans-serif; font-size: 12px; fill: rgb(68, 68, 68); fill-opacity: 1; white-space: pre;">PredLambda= 8.3668341708543</text><g class="layers" style="opacity: 1;"><g class="legendfill"/><g class="legendlines"><path class="js-line" d="M5,0h30" style="fill: none; stroke: rgb(140, 86, 75); stroke-opacity: 1; stroke-width: 1px;"/></g><g class="legendsymbols"><g class="legendpoints"/></g></g><rect class="legendtoggle" x="0" y="-9.5" width="243.609375" height="19" style="fill: rgb(0, 0, 0); fill-opacity: 0;"/></g><g class="traces" transform="translate(0,128.5)" style="opacity: 1;"><text class="legendtext" text-anchor="start" x="40" y="4.680000000000001" style="font-family: 'Open Sans', verdana, arial, sans-serif; font-size: 12px; fill: rgb(68, 68, 68); fill-opacity: 1; white-space: pre;"> TrueLambda= 8.5477386934673</text><g class="layers" style="opacity: 1;"><g class="legendfill"/><g class="legendlines"><path class="js-line" d="M5,0h30" style="fill: none; stroke: rgb(227, 119, 194); stroke-opacity: 1; stroke-width: 1px;"/></g><g class="legendsymbols"><g class="legendpoints"/></g></g><rect class="legendtoggle" x="0" y="-9.5" width="243.609375" height="19" style="fill: rgb(0, 0, 0); fill-opacity: 0;"/></g><g class="traces" transform="translate(0,147.5)" style="opacity: 1;"><text class="legendtext" text-anchor="start" x="40" y="4.680000000000001" style="font-family: 'Open Sans', verdana, arial, sans-serif; font-size: 12px; fill: rgb(68, 68, 68); fill-opacity: 1; white-space: pre;">PredLambda= 8.5477386934673</text><g class="layers" style="opacity: 1;"><g class="legendfill"/><g class="legendlines"><path class="js-line" d="M5,0h30" style="fill: none; stroke: rgb(127, 127, 127); stroke-opacity: 1; stroke-width: 1px;"/></g><g class="legendsymbols"><g class="legendpoints"/></g></g><rect class="legendtoggle" x="0" y="-9.5" width="243.609375" height="19" style="fill: rgb(0, 0, 0); fill-opacity: 0;"/></g><g class="traces" transform="translate(0,166.5)" style="opacity: 1;"><text class="legendtext" text-anchor="start" x="40" y="4.680000000000001" style="font-family: 'Open Sans', verdana, arial, sans-serif; font-size: 12px; fill: rgb(68, 68, 68); fill-opacity: 1; white-space: pre;"> TrueLambda= 8.9095477386935</text><g class="layers" style="opacity: 1;"><g class="legendfill"/><g class="legendlines"><path class="js-line" d="M5,0h30" style="fill: none; stroke: rgb(188, 189, 34); stroke-opacity: 1; stroke-width: 1px;"/></g><g class="legendsymbols"><g class="legendpoints"/></g></g><rect class="legendtoggle" x="0" y="-9.5" width="243.609375" height="19" style="fill: rgb(0, 0, 0); fill-opacity: 0;"/></g><g class="traces" transform="translate(0,185.5)" style="opacity: 1;"><text class="legendtext" text-anchor="start" x="40" y="4.680000000000001" style="font-family: 'Open Sans', verdana, arial, sans-serif; font-size: 12px; fill: rgb(68, 68, 68); fill-opacity: 1; white-space: pre;">PredLambda= 8.9095477386935</text><g class="layers" style="opacity: 1;"><g class="legendfill"/><g class="legendlines"><path class="js-line" d="M5,0h30" style="fill: none; stroke: rgb(23, 190, 207); stroke-opacity: 1; stroke-width: 1px;"/></g><g class="legendsymbols"><g class="legendpoints"/></g></g><rect class="legendtoggle" x="0" y="-9.5" width="243.609375" height="19" style="fill: rgb(0, 0, 0); fill-opacity: 0;"/></g><g class="traces" transform="translate(0,204.5)" style="opacity: 1;"><text class="legendtext" text-anchor="start" x="40" y="4.680000000000001" style="font-family: 'Open Sans', verdana, arial, sans-serif; font-size: 12px; fill: rgb(68, 68, 68); fill-opacity: 1; white-space: pre;"> TrueLambda= 9.4924623115578</text><g class="layers" style="opacity: 1;"><g class="legendfill"/><g class="legendlines"><path class="js-line" d="M5,0h30" style="fill: none; stroke: rgb(31, 119, 180); stroke-opacity: 1; stroke-width: 1px;"/></g><g class="legendsymbols"><g class="legendpoints"/></g></g><rect class="legendtoggle" x="0" y="-9.5" width="243.609375" height="19" style="fill: rgb(0, 0, 0); fill-opacity: 0;"/></g><g class="traces" transform="translate(0,223.5)" style="opacity: 1;"><text class="legendtext" text-anchor="start" x="40" y="4.680000000000001" style="font-family: 'Open Sans', verdana, arial, sans-serif; font-size: 12px; fill: rgb(68, 68, 68); fill-opacity: 1; white-space: pre;">PredLambda= 9.4924623115578</text><g class="layers" style="opacity: 1;"><g class="legendfill"/><g class="legendlines"><path class="js-line" d="M5,0h30" style="fill: none; stroke: rgb(255, 127, 14); stroke-opacity: 1; stroke-width: 1px;"/></g><g class="legendsymbols"><g class="legendpoints"/></g></g><rect class="legendtoggle" x="0" y="-9.5" width="243.609375" height="19" style="fill: rgb(0, 0, 0); fill-opacity: 0;"/></g><g class="traces" transform="translate(0,242.5)" style="opacity: 1;"><text class="legendtext" text-anchor="start" x="40" y="4.680000000000001" style="font-family: 'Open Sans', verdana, arial, sans-serif; font-size: 12px; fill: rgb(68, 68, 68); fill-opacity: 1; white-space: pre;"> TrueLambda= 9.8743718592965</text><g class="layers" style="opacity: 1;"><g class="legendfill"/><g class="legendlines"><path class="js-line" d="M5,0h30" style="fill: none; stroke: rgb(44, 160, 44); stroke-opacity: 1; stroke-width: 1px;"/></g><g class="legendsymbols"><g class="legendpoints"/></g></g><rect class="legendtoggle" x="0" y="-9.5" width="243.609375" height="19" style="fill: rgb(0, 0, 0); fill-opacity: 0;"/></g><g class="traces" transform="translate(0,261.5)" style="opacity: 1;"><text class="legendtext" text-anchor="start" x="40" y="4.680000000000001" style="font-family: 'Open Sans', verdana, arial, sans-serif; font-size: 12px; fill: rgb(68, 68, 68); fill-opacity: 1; white-space: pre;">PredLambda= 9.8743718592965</text><g class="layers" style="opacity: 1;"><g class="legendfill"/><g class="legendlines"><path class="js-line" d="M5,0h30" style="fill: none; stroke: rgb(214, 39, 40); stroke-opacity: 1; stroke-width: 1px;"/></g><g class="legendsymbols"><g class="legendpoints"/></g></g><rect class="legendtoggle" x="0" y="-9.5" width="243.609375" height="19" style="fill: rgb(0, 0, 0); fill-opacity: 0;"/></g><g class="traces" transform="translate(0,280.5)" style="opacity: 1;"><text class="legendtext" text-anchor="start" x="40" y="4.680000000000001" style="font-family: 'Open Sans', verdana, arial, sans-serif; font-size: 12px; fill: rgb(68, 68, 68); fill-opacity: 1; white-space: pre;"> TrueLambda= 10.29648241206</text><g class="layers" style="opacity: 1;"><g class="legendfill"/><g class="legendlines"><path class="js-line" d="M5,0h30" style="fill: none; stroke: rgb(148, 103, 189); stroke-opacity: 1; stroke-width: 1px;"/></g><g class="legendsymbols"><g class="legendpoints"/></g></g><rect class="legendtoggle" x="0" y="-9.5" width="243.609375" height="19" style="fill: rgb(0, 0, 0); fill-opacity: 0;"/></g><g class="traces" transform="translate(0,299.5)" style="opacity: 1;"><text class="legendtext" text-anchor="start" x="40" y="4.680000000000001" style="font-family: 'Open Sans', verdana, arial, sans-serif; font-size: 12px; fill: rgb(68, 68, 68); fill-opacity: 1; white-space: pre;">PredLambda= 10.29648241206</text><g class="layers" style="opacity: 1;"><g class="legendfill"/><g class="legendlines"><path class="js-line" d="M5,0h30" style="fill: none; stroke: rgb(140, 86, 75); stroke-opacity: 1; stroke-width: 1px;"/></g><g class="legendsymbols"><g class="legendpoints"/></g></g><rect class="legendtoggle" x="0" y="-9.5" width="243.609375" height="19" style="fill: rgb(0, 0, 0); fill-opacity: 0;"/></g><g class="traces" transform="translate(0,318.5)" style="opacity: 1;"><text class="legendtext" text-anchor="start" x="40" y="4.680000000000001" style="font-family: 'Open Sans', verdana, arial, sans-serif; font-size: 12px; fill: rgb(68, 68, 68); fill-opacity: 1; white-space: pre;"> TrueLambda= 10.376884422111</text><g class="layers" style="opacity: 1;"><g class="legendfill"/><g class="legendlines"><path class="js-line" d="M5,0h30" style="fill: none; stroke: rgb(227, 119, 194); stroke-opacity: 1; stroke-width: 1px;"/></g><g class="legendsymbols"><g class="legendpoints"/></g></g><rect class="legendtoggle" x="0" y="-9.5" width="243.609375" height="19" style="fill: rgb(0, 0, 0); fill-opacity: 0;"/></g><g class="traces" transform="translate(0,337.5)" style="opacity: 1;"><text class="legendtext" text-anchor="start" x="40" y="4.680000000000001" style="font-family: 'Open Sans', verdana, arial, sans-serif; font-size: 12px; fill: rgb(68, 68, 68); fill-opacity: 1; white-space: pre;">PredLambda= 10.376884422111</text><g class="layers" style="opacity: 1;"><g class="legendfill"/><g class="legendlines"><path class="js-line" d="M5,0h30" style="fill: none; stroke: rgb(127, 127, 127); stroke-opacity: 1; stroke-width: 1px;"/></g><g class="legendsymbols"><g class="legendpoints"/></g></g><rect class="legendtoggle" x="0" y="-9.5" width="243.609375" height="19" style="fill: rgb(0, 0, 0); fill-opacity: 0;"/></g><g class="traces" transform="translate(0,356.5)" style="opacity: 1;"><text class="legendtext" text-anchor="start" x="40" y="4.680000000000001" style="font-family: 'Open Sans', verdana, arial, sans-serif; font-size: 12px; fill: rgb(68, 68, 68); fill-opacity: 1; white-space: pre;"> TrueLambda= 10.537688442211</text><g class="layers" style="opacity: 1;"><g class="legendfill"/><g class="legendlines"><path class="js-line" d="M5,0h30" style="fill: none; stroke: rgb(188, 189, 34); stroke-opacity: 1; stroke-width: 1px;"/></g><g class="legendsymbols"><g class="legendpoints"/></g></g><rect class="legendtoggle" x="0" y="-9.5" width="243.609375" height="19" style="fill: rgb(0, 0, 0); fill-opacity: 0;"/></g><g class="traces" transform="translate(0,375.5)" style="opacity: 1;"><text class="legendtext" text-anchor="start" x="40" y="4.680000000000001" style="font-family: 'Open Sans', verdana, arial, sans-serif; font-size: 12px; fill: rgb(68, 68, 68); fill-opacity: 1; white-space: pre;">PredLambda= 10.537688442211</text><g class="layers" style="opacity: 1;"><g class="legendfill"/><g class="legendlines"><path class="js-line" d="M5,0h30" style="fill: none; stroke: rgb(23, 190, 207); stroke-opacity: 1; stroke-width: 1px;"/></g><g class="legendsymbols"><g class="legendpoints"/></g></g><rect class="legendtoggle" x="0" y="-9.5" width="243.609375" height="19" style="fill: rgb(0, 0, 0); fill-opacity: 0;"/></g></g></g><rect class="scrollbar" rx="20" ry="3" width="0" height="0" style="fill: rgb(128, 139, 164); fill-opacity: 1;" x="0" y="0"/></g><g class="g-gtitle"><text class="gtitle" x="350" y="50" text-anchor="middle" dy="0em" style="font-family: Rockwell; font-size: 24px; fill: rgb(68, 68, 68); opacity: 1; font-weight: normal; white-space: pre;">S-Parameters [Magnitude]</text></g><g class="g-xtitle"/><g class="g-ytitle"/></g></svg>