<svg class="main-svg" xmlns="http://www.w3.org/2000/svg" xmlns:xlink="http://www.w3.org/1999/xlink" width="700" height="500" style="" viewBox="0 0 700 500"><rect x="0" y="0" width="700" height="500" style="fill: rgb(255, 255, 255); fill-opacity: 1;"/><defs id="defs-e34a47"><g class="clips"><clipPath id="clipe34a47xyplot" class="plotclip"><rect width="352" height="320"/></clipPath><clipPath class="axesclip" id="clipe34a47x"><rect x="80" y="0" width="352" height="500"/></clipPath><clipPath class="axesclip" id="clipe34a47y"><rect x="0" y="100" width="700" height="320"/></clipPath><clipPath class="axesclip" id="clipe34a47xy"><rect x="80" y="100" width="352" height="320"/></clipPath></g><g class="gradients"/><g class="patterns"/></defs><g class="bglayer"/><g class="layer-below"><g class="imagelayer"/><g class="shapelayer"/></g><g class="cartesianlayer"><g class="subplot xy"><g class="layer-subplot"><g class="shapelayer"/><g class="imagelayer"/></g><g class="minor-gridlayer"><g class="x"/><g class="y"/></g><g class="gridlayer"><g class="x"><path class="xgrid crisp" transform="translate(115.2,0)" d="M0,100v320" style="stroke: rgb(0, 0, 0); stroke-opacity: 1; stroke-dasharray: 3px, 3px; stroke-width: 1px;"/><path class="xgrid crisp" transform="translate(150.4,0)" d="M0,100v320" style="stroke: rgb(0, 0, 0); stroke-opacity: 1; stroke-dasharray: 3px, 3px; stroke-width: 1px;"/><path class="xgrid crisp" transform="translate(185.6,0)" d="M0,100v320" style="stroke: rgb(0, 0, 0); stroke-opacity: 1; stroke-dasharray: 3px, 3px; stroke-width: 1px;"/><path class="xgrid crisp" transform="translate(220.8,0)" d="M0,100v320" style="stroke: rgb(0, 0, 0); stroke-opacity: 1; stroke-dasharray: 3px, 3px; stroke-width: 1px;"/><path class="xgrid crisp" transform="translate(256,0)" d="M0,100v320" style="stroke: rgb(0, 0, 0); stroke-opacity: 1; stroke-dasharray: 3px, 3px; stroke-width: 1px;"/><path class="xgrid crisp" transform="translate(291.2,0)" d="M0,100v320" style="stroke: rgb(0, 0, 0); stroke-opacity: 1; stroke-dasharray: 3px, 3px; stroke-width: 1px;"/><path class="xgrid crisp" transform="translate(326.4,0)" d="M0,100v320" style="stroke: rgb(0, 0, 0); stroke-opacity: 1; stroke-dasharray: 3px, 3px; stroke-width: 1px;"/><path class="xgrid crisp" transform="translate(361.6,0)" d="M0,100v320" style="stroke: rgb(0, 0, 0); stroke-opacity: 1; stroke-dasharray: 3px, 3px; stroke-width: 1px;"/><path class="xgrid crisp" transform="translate(396.8,0)" d="M0,100v320" style="stroke: rgb(0, 0, 0); stroke-opacity: 1; stroke-dasharray: 3px, 3px; stroke-width: 1px;"/></g><g class="y"><path class="ygrid crisp" transform="translate(0,374.22)" d="M80,0h352" style="stroke: rgb(0, 0, 0); stroke-opacity: 1; stroke-dasharray: 3px, 3px; stroke-width: 1px;"/><path class="ygrid crisp" transform="translate(0,344.40999999999997)" d="M80,0h352" style="stroke: rgb(0, 0, 0); stroke-opacity: 1; stroke-dasharray: 3px, 3px; stroke-width: 1px;"/><path class="ygrid crisp" transform="translate(0,314.6)" d="M80,0h352" style="stroke: rgb(0, 0, 0); stroke-opacity: 1; stroke-dasharray: 3px, 3px; stroke-width: 1px;"/><path class="ygrid crisp" transform="translate(0,284.8)" d="M80,0h352" style="stroke: rgb(0, 0, 0); stroke-opacity: 1; stroke-dasharray: 3px, 3px; stroke-width: 1px;"/><path class="ygrid crisp" transform="translate(0,254.99)" d="M80,0h352" style="stroke: rgb(0, 0, 0); stroke-opacity: 1; stroke-dasharray: 3px, 3px; stroke-width: 1px;"/><path class="ygrid crisp" transform="translate(0,225.18)" d="M80,0h352" style="stroke: rgb(0, 0, 0); stroke-opacity: 1; stroke-dasharray: 3px, 3px; stroke-width: 1px;"/><path class="ygrid crisp" transform="translate(0,195.37)" d="M80,0h352" style="stroke: rgb(0, 0, 0); stroke-opacity: 1; stroke-dasharray: 3px, 3px; stroke-width: 1px;"/><path class="ygrid crisp" transform="translate(0,165.56)" d="M80,0h352" style="stroke: rgb(0, 0, 0); stroke-opacity: 1; stroke-dasharray: 3px, 3px; stroke-width: 1px;"/><path class="ygrid crisp" transform="translate(0,135.75)" d="M80,0h352" style="stroke: rgb(0, 0, 0); stroke-opacity: 1; stroke-dasharray: 3px, 3px; stroke-width: 1px;"/><path class="ygrid crisp" transform="translate(0,105.94)" d="M80,0h352" style="stroke: rgb(0, 0, 0); stroke-opacity: 1; stroke-dasharray: 3px, 3px; stroke-width: 1px;"/></g></g><g class="zerolinelayer"><path class="yzl zl crisp" transform="translate(0,404.03)" d="M80,0h352" style="stroke: rgb(68, 68, 68); stroke-opacity: 1; stroke-width: 1px;"/></g><path class="xlines-below"/><path class="ylines-below"/><g class="overlines-below"/><g class="xaxislayer-below"/><g class="yaxislayer-below"/><g class="overaxes-below"/><g class="plot" transform="translate(80,100)" clip-path="url(#clipe34a47xyplot)"><g class="scatterlayer mlayer"><g class="trace scatter traceb80c7f" style="stroke-miterlimit: 2; opacity: 1;"><g class="fills"/><g class="errorbars"/><g class="lines"><path class="js-line" d="M0,16.16L58.08,21.83L58.43,21.87L111.94,30.06L112.29,30.12L147.84,37.96L148.19,38.05L174.94,45.68L175.3,45.8L197.12,53.43L197.47,53.56L224.22,65.01L224.58,65.17L247.46,77.11L247.81,77.31L273.86,93.71L274.21,93.96L291.81,106.91L292.16,107.18L315.04,126.41L315.39,126.73L332.64,143.01L332.99,143.36L350.59,161.48L350.94,161.86L352,162.99" style="vector-effect: non-scaling-stroke; fill: none; stroke: rgb(31, 119, 180); stroke-opacity: 1; stroke-width: 1px; opacity: 1;"/></g><g class="points"/><g class="text"/></g><g class="trace scatter tracef1c459" style="stroke-miterlimit: 2; opacity: 1;"><g class="fills"/><g class="errorbars"/><g class="lines"><path class="js-line" d="M0,16L49.63,20.9L49.98,20.95L85.54,26.62L85.89,26.69L115.1,32.45L115.46,32.53L135.87,37.37L136.22,37.46L163.68,45.09L164.03,45.19L210.85,60.59L211.2,60.71L237.6,71.28L237.95,71.44L256.26,80.61L256.61,80.8L275.26,92.3L275.62,92.54L301.31,111.04L301.66,111.33L316.45,123.59L316.8,123.91L317.86,124.63L318.21,124.96L340.38,146.1L340.74,146.47L352,158.46" style="vector-effect: non-scaling-stroke; fill: none; stroke: rgb(255, 127, 14); stroke-opacity: 1; stroke-width: 1px; opacity: 1;"/></g><g class="points"/><g class="text"/></g><g class="trace scatter trace827f2d" style="stroke-miterlimit: 2; opacity: 1;"><g class="fills"/><g class="errorbars"/><g class="lines"><path class="js-line" d="M0,20.34L36.26,25.23L36.61,25.29L60.54,29.45L60.9,29.52L92.93,36.66L93.28,36.75L118.98,44.13L119.33,44.24L139.74,51.42L140.1,51.56L158.05,59.02L158.4,59.18L180.22,69.97L180.58,70.16L199.94,81.52L200.29,81.74L222.82,97.37L223.17,97.64L239.36,110.6L239.71,110.9L259.78,129.08L260.13,129.42L280.54,150.28L280.9,150.66L303.07,175.81L303.42,176.22L323.14,200.35L323.49,200.79L352,237.52" style="vector-effect: non-scaling-stroke; fill: none; stroke: rgb(44, 160, 44); stroke-opacity: 1; stroke-width: 1px; opacity: 1;"/></g><g class="points"/><g class="text"/></g><g class="trace scatter trace7e10a1" style="stroke-miterlimit: 2; opacity: 1;"><g class="fills"/><g class="errorbars"/><g class="lines"><path class="js-line" d="M0,20.53L36.61,25.45L36.96,25.51L81.66,33.79L82.02,33.88L100.67,38.35L101.02,38.45L122.14,44.5L122.5,44.61L143.97,52.13L144.32,52.27L160.16,58.93L160.51,59.09L179.87,68.75L180.22,68.94L199.94,80.74L200.29,80.97L218.59,93.87L218.94,94.14L235.14,107.2L235.49,107.5L253.79,124.15L254.14,124.48L274.56,145.36L274.91,145.73L303.78,178.87L304.13,179.3L329.47,210.86L329.82,211.31L352,239.89" style="vector-effect: non-scaling-stroke; fill: none; stroke: rgb(214, 39, 40); stroke-opacity: 1; stroke-width: 1px; opacity: 1;"/></g><g class="points"/><g class="text"/></g><g class="trace scatter trace1bbda8" style="stroke-miterlimit: 2; opacity: 1;"><g class="fills"/><g class="errorbars"/><g class="lines"><path class="js-line" d="M0,23.18L33.09,28.65L33.44,28.72L66.88,36.14L67.23,36.23L91.87,43.33L92.22,43.44L110.18,49.71L110.53,49.85L129.89,57.84L130.24,58L151.71,68.63L152.06,68.82L167.55,77.81L167.9,78.03L184.45,89L184.8,89.25L203.46,103.47L203.81,103.76L223.52,121.05L223.87,121.38L243.23,140.64L243.58,141.02L259.07,158.01L259.42,158.41L275.62,177.52L275.97,177.95L303.78,213.29L304.13,213.75L352,277.4" style="vector-effect: non-scaling-stroke; fill: none; stroke: rgb(148, 103, 189); stroke-opacity: 1; stroke-width: 1px; opacity: 1;"/></g><g class="points"/><g class="text"/></g><g class="trace scatter tracee27142" style="stroke-miterlimit: 2; opacity: 1;"><g class="fills"/><g class="errorbars"/><g class="lines"><path class="js-line" d="M0,23.5L36.26,29.43L36.61,29.5L73.57,37.6L73.92,37.69L99.62,45.06L99.97,45.18L113.7,49.88L114.05,50.01L134.46,58.38L134.82,58.54L153.12,67.72L153.47,67.92L169.66,77.55L170.02,77.78L185.15,88.17L185.5,88.42L200.99,100.5L201.34,100.8L215.42,113.09L215.78,113.42L232.67,129.84L233.02,130.2L247.81,146.05L248.16,146.44L272.45,175.25L272.8,175.69L296.74,206.27L297.09,206.73L350.94,277.81L351.3,278.27L352,279.19" style="vector-effect: non-scaling-stroke; fill: none; stroke: rgb(140, 86, 75); stroke-opacity: 1; stroke-width: 1px; opacity: 1;"/></g><g class="points"/><g class="text"/></g><g class="trace scatter trace50cf5e" style="stroke-miterlimit: 2; opacity: 1;"><g class="fills"/><g class="errorbars"/><g class="lines"><path class="js-line" d="M0,39.48L24.29,47.88L24.64,48.02L45.41,57.12L45.76,57.29L64.42,67.18L64.77,67.39L81.31,77.7L81.66,77.93L97.86,89.63L98.21,89.9L118.27,106.85L118.62,107.18L131.65,119.74L132,120.1L151.01,140.68L151.36,141.09L172.83,167.36L173.18,167.82L187.62,187.03L187.97,187.51L224.93,240.42L225.28,240.93L264.35,297.64L264.7,298.13L268.93,304L269.28,303.54L269.63,303.05L295.33,269.04L295.68,268.59L315.74,244.57L316.1,244.17L335.1,223.59L335.46,223.23L352,206.97" style="vector-effect: non-scaling-stroke; fill: none; stroke: rgb(227, 119, 194); stroke-opacity: 1; stroke-width: 1px; opacity: 1;"/></g><g class="points"/><g class="text"/></g><g class="trace scatter trace489a81" style="stroke-miterlimit: 2; opacity: 1;"><g class="fills"/><g class="errorbars"/><g class="lines"><path class="js-line" d="M0,39.03L22.88,46.92L23.23,47.06L38.72,53.6L39.07,53.75L55.97,62.22L56.32,62.46L72.51,72.06L72.86,72.29L85.18,80.67L85.54,80.93L104.19,95.68L104.54,95.98L118.27,108.38L118.62,108.71L135.17,125.35L135.52,125.72L158.05,151.2L158.4,151.63L179.17,177.71L179.52,178.16L215.78,227.96L216.13,228.46L266.82,299.57L267.17,300.03L270.34,303.78L270.69,303.31L289.7,278.48L290.05,278.04L310.46,252.98L310.82,252.57L327.71,233.47L328.06,233.09L352,208.73" style="vector-effect: non-scaling-stroke; fill: none; stroke: rgb(127, 127, 127); stroke-opacity: 1; stroke-width: 1px; opacity: 1;"/></g><g class="points"/><g class="text"/></g><g class="trace scatter trace848688" style="stroke-miterlimit: 2; opacity: 1;"><g class="fills"/><g class="errorbars"/><g class="lines"><path class="js-line" d="M0,40.83L19.71,47.8L20.06,47.94L38.02,55.71L38.37,55.88L53.5,63.59L53.86,63.79L70.75,73.8L71.1,74.03L88,85.71L88.35,85.98L104.54,98.93L104.9,99.23L125.31,118.25L125.66,118.6L141.5,135.49L141.86,135.89L162.27,160.32L162.62,160.76L180.22,183.94L180.58,184.42L206.98,221.86L207.33,222.38L263.65,303.65L264,303.16L285.82,273.89L286.18,273.44L306.24,248.84L306.59,248.43L325.25,227.71L325.6,227.33L344.61,208.3L344.96,207.97L352,201.45" style="vector-effect: non-scaling-stroke; fill: none; stroke: rgb(188, 189, 34); stroke-opacity: 1; stroke-width: 1px; opacity: 1;"/></g><g class="points"/><g class="text"/></g><g class="trace scatter trace7f4092" style="stroke-miterlimit: 2; opacity: 1;"><g class="fills"/><g class="errorbars"/><g class="lines"><path class="js-line" d="M0,40.33L19.36,47.17L19.71,47.31L39.78,56.14L40.13,56.31L52.45,62.74L52.8,62.94L67.58,71.79L67.94,72.02L86.24,84.92L86.59,85.2L99.62,95.81L99.97,96.12L115.81,110.65L116.16,110.99L133.41,128.77L133.76,129.15L152.06,150.12L152.42,150.54L172.48,175.75L172.83,176.21L199.23,212.13L199.58,212.62L236.19,264.74L236.54,265.24L264.7,303.81L265.06,303.33L298.5,260.48L298.85,260.05L322.08,233.3L322.43,232.92L342.5,212.21L342.85,211.87L352,203.18" style="vector-effect: non-scaling-stroke; fill: none; stroke: rgb(23, 190, 207); stroke-opacity: 1; stroke-width: 1px; opacity: 1;"/></g><g class="points"/><g class="text"/></g><g class="trace scatter tracec648b2" style="stroke-miterlimit: 2; opacity: 1;"><g class="fills"/><g class="errorbars"/><g class="lines"><path class="js-line" d="M0,109.92L15.84,127.72L16.19,128.14L34.85,152.17L35.2,152.65L55.26,181.99L55.62,182.53L84.13,228.63L84.48,229.22L129.18,302.54L129.54,302.73L130.59,302.07L130.94,301.63L138.69,289.85L139.04,289.31L158.4,260.78L158.75,260.28L177.76,234.93L178.11,234.48L195.36,213.96L195.71,213.56L213.31,195.03L213.66,194.69L232.67,177.23L233.02,176.93L254.14,160.27L254.5,160.02L270.34,149.17L270.69,148.95L287.58,138.74L287.94,138.54L306.59,128.73L306.94,128.56L332.29,117.37L332.64,117.23L352,109.99" style="vector-effect: non-scaling-stroke; fill: none; stroke: rgb(31, 119, 180); stroke-opacity: 1; stroke-width: 1px; opacity: 1;"/></g><g class="points"/><g class="text"/></g><g class="trace scatter tracea948ce" style="stroke-miterlimit: 2; opacity: 1;"><g class="fills"/><g class="errorbars"/><g class="lines"><path class="js-line" d="M0,110.52L19.01,132.19L19.36,132.62L35.55,153.67L35.9,154.15L49.98,174.15L50.34,174.67L74.27,211.53L74.62,212.09L95.39,245.78L95.74,246.36L130.94,302.71L131.3,302.7L133.06,300.68L133.41,300.16L165.44,252.78L165.79,252.29L185.5,226.51L185.86,226.08L200.64,208.68L200.99,208.28L218.94,189.39L219.3,189.04L237.95,171.92L238.3,171.62L261.18,153.97L261.54,153.73L275.97,144.33L276.32,144.12L298.14,131.89L298.5,131.72L318.91,122.06L319.26,121.91L347.42,110.9L347.78,110.78L352,109.36" style="vector-effect: non-scaling-stroke; fill: none; stroke: rgb(255, 127, 14); stroke-opacity: 1; stroke-width: 1px; opacity: 1;"/></g><g class="points"/><g class="text"/></g><g class="trace scatter trace8fe500" style="stroke-miterlimit: 2; opacity: 1;"><g class="fills"/><g class="errorbars"/><g class="lines"><path class="js-line" d="M0,200.8L33.79,261.16L34.14,261.79L57.73,302.46L58.08,302.56L59.49,301.16L59.84,300.63L96.1,244.07L96.45,243.57L111.94,222.71L112.29,222.26L130.59,200.43L130.94,200.04L150.3,180.1L150.66,179.76L167.9,164.48L168.26,164.19L184.45,151.72L184.8,151.47L203.46,139.04L203.81,138.82L226.34,126.15L226.69,125.97L247.1,116.31L247.46,116.16L264,109.4L264.35,109.27L292.51,99.58L292.86,99.47L322.78,91.1L323.14,91.01L352,84.37" style="vector-effect: non-scaling-stroke; fill: none; stroke: rgb(44, 160, 44); stroke-opacity: 1; stroke-width: 1px; opacity: 1;"/></g><g class="points"/><g class="text"/></g><g class="trace scatter traceb51e98" style="stroke-miterlimit: 2; opacity: 1;"><g class="fills"/><g class="errorbars"/><g class="lines"><path class="js-line" d="M0,200.48L37.31,266.93L37.66,267.57L58.08,302.46L58.43,302.47L59.84,300.91L60.19,300.37L95.04,245.28L95.39,244.76L113.34,220.38L113.7,219.93L128.48,202.13L128.83,201.73L143.97,185.56L144.32,185.2L160.86,169.72L161.22,169.42L175.65,157.61L176,157.34L192.19,145.77L192.54,145.53L215.42,131.75L215.78,131.56L236.19,121.32L236.54,121.16L265.06,109.25L265.41,109.11L293.22,99.56L293.57,99.44L334.4,88.42L334.75,88.33L352,84.45" style="vector-effect: non-scaling-stroke; fill: none; stroke: rgb(214, 39, 40); stroke-opacity: 1; stroke-width: 1px; opacity: 1;"/></g><g class="points"/><g class="text"/></g><g class="trace scatter trace92fd19" style="stroke-miterlimit: 2; opacity: 1;"><g class="fills"/><g class="errorbars"/><g class="lines"><path class="js-line" d="M0,225.23L42.94,302.28L43.3,302.53L44.35,301.94L44.7,301.47L51.04,291.01L51.39,290.42L70.75,259.25L71.1,258.71L91.52,229.36L91.87,228.89L105.25,211.78L105.6,211.35L120.38,194.37L120.74,193.99L136.22,178.25L136.58,177.91L153.82,162.63L154.18,162.34L170.02,150.15L170.37,149.9L189.02,137.49L189.38,137.28L205.57,127.98L205.92,127.79L224.58,118.5L224.93,118.34L247.46,108.83L247.81,108.7L266.82,101.89L267.17,101.77L289.34,94.96L289.7,94.86L317.15,87.79L317.5,87.7L352,80.48" style="vector-effect: non-scaling-stroke; fill: none; stroke: rgb(148, 103, 189); stroke-opacity: 1; stroke-width: 1px; opacity: 1;"/></g><g class="points"/><g class="text"/></g><g class="trace scatter trace6ae043" style="stroke-miterlimit: 2; opacity: 1;"><g class="fills"/><g class="errorbars"/><g class="lines"><path class="js-line" d="M0,224.57L43.3,302.45L43.65,302.46L45.06,300.88L45.41,300.33L80.61,243.42L80.96,242.91L95.04,223.3L95.39,222.83L111.94,202.29L112.29,201.89L126.72,186.11L127.07,185.75L142.21,171.23L142.56,170.91L159.46,156.9L159.81,156.63L179.87,142.62L180.22,142.4L197.47,132.24L197.82,132.05L215.42,123.11L215.78,122.95L234.43,114.71L234.78,114.56L258.37,105.52L258.72,105.4L277.73,99.12L278.08,99.01L303.42,91.82L303.78,91.73L337.57,83.8L337.92,83.73L342.14,82.81L342.5,82.75L352,80.85" style="vector-effect: non-scaling-stroke; fill: none; stroke: rgb(140, 86, 75); stroke-opacity: 1; stroke-width: 1px; opacity: 1;"/></g><g class="points"/><g class="text"/></g><g class="trace scatter trace486038" style="stroke-miterlimit: 2; opacity: 1;"><g class="fills"/><g class="errorbars"/><g class="lines"><path class="js-line" d="M0,237.68L35.2,301.48L35.55,301.96L36.61,302.53L36.96,302.28L39.78,297.97L40.13,297.37L64.77,257.21L65.12,256.67L80.96,233.59L81.31,233.1L98.56,210.69L98.91,210.26L113.7,193.27L114.05,192.89L129.54,177.16L129.89,176.82L147.14,161.57L147.49,161.28L163.33,149.12L163.68,148.87L181.63,136.95L181.98,136.73L201.7,125.55L202.05,125.37L224.22,114.79L224.58,114.63L248.86,105.01L249.22,104.88L269.63,98.08L269.98,97.97L298.5,90.03L298.85,89.94L326.3,83.64L326.66,83.57L348.83,79.27L349.18,79.2L352,78.7" style="vector-effect: non-scaling-stroke; fill: none; stroke: rgb(227, 119, 194); stroke-opacity: 1; stroke-width: 1px; opacity: 1;"/></g><g class="points"/><g class="text"/></g><g class="trace scatter trace366113" style="stroke-miterlimit: 2; opacity: 1;"><g class="fills"/><g class="errorbars"/><g class="lines"><path class="js-line" d="M0,236.94L35.9,302.3L36.26,302.49L37.31,301.77L37.66,301.27L43.3,291.67L43.65,291.07L62.66,259.41L63.01,258.86L68.29,250.59L68.64,250.05L83.42,228.54L83.78,228.06L97.15,210.59L97.5,210.15L114.75,190.23L115.1,189.85L132.35,172.7L132.7,172.38L151.71,156.4L152.06,156.13L170.72,143.02L171.07,142.79L191.14,131.03L191.49,130.85L209.79,121.76L210.14,121.6L239.01,109.54L239.36,109.41L268.58,99.33L268.93,99.21L293.57,92.24L293.92,92.17L314.69,86.99L315.04,86.93L350.94,79.38L351.3,79.33L352,79.21" style="vector-effect: non-scaling-stroke; fill: none; stroke: rgb(127, 127, 127); stroke-opacity: 1; stroke-width: 1px; opacity: 1;"/></g><g class="points"/><g class="text"/></g><g class="trace scatter tracec6ed8f" style="stroke-miterlimit: 2; opacity: 1;"><g class="fills"/><g class="errorbars"/><g class="lines"><path class="js-line" d="M0,293.45L5.63,302.69L5.98,302.63L7.74,300.17L8.1,299.57L36.61,251.83L36.96,251.28L54.21,226.04L54.56,225.56L67.94,208.07L68.29,207.63L82.02,191.53L82.37,191.15L97.15,175.78L97.5,175.44L116.86,158.1L117.22,157.81L132.7,145.92L133.06,145.67L150.66,134L151.01,133.78L166.85,124.7L167.2,124.51L185.15,115.6L185.5,115.44L203.81,107.62L204.16,107.48L225.63,99.67L225.98,99.56L251.68,91.77L252.03,91.67L291.1,82.3L291.46,82.23L313.63,77.93L313.98,77.87L339.68,73.63L340.03,73.57L352,71.83" style="vector-effect: non-scaling-stroke; fill: none; stroke: rgb(188, 189, 34); stroke-opacity: 1; stroke-width: 1px; opacity: 1;"/></g><g class="points"/><g class="text"/></g><g class="trace scatter traced2eb8c" style="stroke-miterlimit: 2; opacity: 1;"><g class="fills"/><g class="errorbars"/><g class="lines"><path class="js-line" d="M0,293.16L5.98,302.76L6.34,302.47L9.86,296.62L10.21,295.99L26.75,267.25L27.1,266.67L47.17,235.19L47.52,234.66L61.6,215.07L61.95,214.61L74.62,198.8L74.98,198.38L91.52,180.09L91.87,179.73L106.3,165.92L106.66,165.6L126.72,149.32L127.07,149.06L142.56,138.46L142.91,138.23L162.27,126.94L162.62,126.74L191.49,113.01L191.84,112.86L212.96,104.6L213.31,104.48L234.08,97.54L234.43,97.44L258.72,90.59L259.07,90.49L291.81,82.83L292.16,82.76L315.74,78.13L316.1,78.08L352,72.21" style="vector-effect: non-scaling-stroke; fill: none; stroke: rgb(23, 190, 207); stroke-opacity: 1; stroke-width: 1px; opacity: 1;"/></g><g class="points"/><g class="text"/></g></g></g><g class="overplot"/><path class="xlines-above crisp" d="M0,0" style="fill: none;"/><path class="ylines-above crisp" d="M0,0" style="fill: none;"/><g class="overlines-above"/><g class="xaxislayer-above"><g class="xtick"><text text-anchor="middle" x="0" y="433" transform="translate(80,0)" style="font-family: 'Open Sans', verdana, arial, sans-serif; font-size: 12px; fill: rgb(68, 68, 68); fill-opacity: 1; white-space: pre; opacity: 1;">25</text></g><g class="xtick"><text text-anchor="middle" x="0" y="433" style="font-family: 'Open Sans', verdana, arial, sans-serif; font-size: 12px; fill: rgb(68, 68, 68); fill-opacity: 1; white-space: pre; opacity: 1;" transform="translate(115.2,0)">26</text></g><g class="xtick"><text text-anchor="middle" x="0" y="433" style="font-family: 'Open Sans', verdana, arial, sans-serif; font-size: 12px; fill: rgb(68, 68, 68); fill-opacity: 1; white-space: pre; opacity: 1;" transform="translate(150.4,0)">27</text></g><g class="xtick"><text text-anchor="middle" x="0" y="433" style="font-family: 'Open Sans', verdana, arial, sans-serif; font-size: 12px; fill: rgb(68, 68, 68); fill-opacity: 1; white-space: pre; opacity: 1;" transform="translate(185.6,0)">28</text></g><g class="xtick"><text text-anchor="middle" x="0" y="433" style="font-family: 'Open Sans', verdana, arial, sans-serif; font-size: 12px; fill: rgb(68, 68, 68); fill-opacity: 1; white-space: pre; opacity: 1;" transform="translate(220.8,0)">29</text></g><g class="xtick"><text text-anchor="middle" x="0" y="433" style="font-family: 'Open Sans', verdana, arial, sans-serif; font-size: 12px; fill: rgb(68, 68, 68); fill-opacity: 1; white-space: pre; opacity: 1;" transform="translate(256,0)">30</text></g><g class="xtick"><text text-anchor="middle" x="0" y="433" style="font-family: 'Open Sans', verdana, arial, sans-serif; font-size: 12px; fill: rgb(68, 68, 68); fill-opacity: 1; white-space: pre; opacity: 1;" transform="translate(291.2,0)">31</text></g><g class="xtick"><text text-anchor="middle" x="0" y="433" style="font-family: 'Open Sans', verdana, arial, sans-serif; font-size: 12px; fill: rgb(68, 68, 68); fill-opacity: 1; white-space: pre; opacity: 1;" transform="translate(326.4,0)">32</text></g><g class="xtick"><text text-anchor="middle" x="0" y="433" style="font-family: 'Open Sans', verdana, arial, sans-serif; font-size: 12px; fill: rgb(68, 68, 68); fill-opacity: 1; white-space: pre; opacity: 1;" transform="translate(361.6,0)">33</text></g><g class="xtick"><text text-anchor="middle" x="0" y="433" style="font-family: 'Open Sans', verdana, arial, sans-serif; font-size: 12px; fill: rgb(68, 68, 68); fill-opacity: 1; white-space: pre; opacity: 1;" transform="translate(396.8,0)">34</text></g><g class="xtick"><text text-anchor="middle" x="0" y="433" style="font-family: 'Open Sans', verdana, arial, sans-serif; font-size: 12px; fill: rgb(68, 68, 68); fill-opacity: 1; white-space: pre; opacity: 1;" transform="translate(432,0)">35</text></g></g><g class="yaxislayer-above"><g class="ytick"><text text-anchor="end" x="79" y="4.199999999999999" transform="translate(0,404.03)" style="font-family: 'Open Sans', verdana, arial, sans-serif; font-size: 12px; fill: rgb(68, 68, 68); fill-opacity: 1; white-space: pre; opacity: 1;">0</text></g><g class="ytick"><text text-anchor="end" x="79" y="4.199999999999999" style="font-family: 'Open Sans', verdana, arial, sans-serif; font-size: 12px; fill: rgb(68, 68, 68); fill-opacity: 1; white-space: pre; opacity: 1;" transform="translate(0,374.22)">0.1</text></g><g class="ytick"><text text-anchor="end" x="79" y="4.199999999999999" style="font-family: 'Open Sans', verdana, arial, sans-serif; font-size: 12px; fill: rgb(68, 68, 68); fill-opacity: 1; white-space: pre; opacity: 1;" transform="translate(0,344.40999999999997)">0.2</text></g><g class="ytick"><text text-anchor="end" x="79" y="4.199999999999999" style="font-family: 'Open Sans', verdana, arial, sans-serif; font-size: 12px; fill: rgb(68, 68, 68); fill-opacity: 1; white-space: pre; opacity: 1;" transform="translate(0,314.6)">0.3</text></g><g class="ytick"><text text-anchor="end" x="79" y="4.199999999999999" style="font-family: 'Open Sans', verdana, arial, sans-serif; font-size: 12px; fill: rgb(68, 68, 68); fill-opacity: 1; white-space: pre; opacity: 1;" transform="translate(0,284.8)">0.4</text></g><g class="ytick"><text text-anchor="end" x="79" y="4.199999999999999" style="font-family: 'Open Sans', verdana, arial, sans-serif; font-size: 12px; fill: rgb(68, 68, 68); fill-opacity: 1; white-space: pre; opacity: 1;" transform="translate(0,254.99)">0.5</text></g><g class="ytick"><text text-anchor="end" x="79" y="4.199999999999999" style="font-family: 'Open Sans', verdana, arial, sans-serif; font-size: 12px; fill: rgb(68, 68, 68); fill-opacity: 1; white-space: pre; opacity: 1;" transform="translate(0,225.18)">0.6</text></g><g class="ytick"><text text-anchor="end" x="79" y="4.199999999999999" style="font-family: 'Open Sans', verdana, arial, sans-serif; font-size: 12px; fill: rgb(68, 68, 68); fill-opacity: 1; white-space: pre; opacity: 1;" transform="translate(0,195.37)">0.7</text></g><g class="ytick"><text text-anchor="end" x="79" y="4.199999999999999" style="font-family: 'Open Sans', verdana, arial, sans-serif; font-size: 12px; fill: rgb(68, 68, 68); fill-opacity: 1; white-space: pre; opacity: 1;" transform="translate(0,165.56)">0.8</text></g><g class="ytick"><text text-anchor="end" x="79" y="4.199999999999999" style="font-family: 'Open Sans', verdana, arial, sans-serif; font-size: 12px; fill: rgb(68, 68, 68); fill-opacity: 1; white-space: pre; opacity: 1;" transform="translate(0,135.75)">0.9</text></g><g class="ytick"><text text-anchor="end" x="79" y="4.199999999999999" style="font-family: 'Open Sans', verdana, arial, sans-serif; font-size: 12px; fill: rgb(68, 68, 68); fill-opacity: 1; white-space: pre; opacity: 1;" transform="translate(0,105.94)">1</text></g></g><g class="overaxes-above"/></g></g><g class="polarlayer"/><g class="smithlayer"/><g class="ternarylayer"/><g class="geolayer"/><g class="funnelarealayer"/><g class="pielayer"/><g class="iciclelayer"/><g class="treemaplayer"/><g class="sunburstlayer"/><g class="glimages"/><defs id="topdefs-e34a47"><g class="clips"/><clipPath id="legende34a47"><rect width="249" height="320" x="0" y="0"/></clipPath></defs><g class="layer-above"><g class="imagelayer"/><g class="shapelayer"/></g><g class="infolayer"><g class="legend" pointer-events="all" transform="translate(439.04,100)"><rect class="bg" shape-rendering="crispEdges" style="stroke: rgb(68, 68, 68); stroke-opacity: 1; fill: rgb(255, 255, 255); fill-opacity: 1; stroke-width: 0px;" width="249" height="320" x="0" y="0"/><g class="scrollbox" transform="" clip-path="url(#legende34a47)"><g class="groups"><g class="traces" transform="translate(0,14.5)" style="opacity: 1;"><text class="legendtext" text-anchor="start" x="40" y="4.680000000000001" style="font-family: 'Open Sans', verdana, arial, sans-serif; font-size: 12px; fill: rgb(68, 68, 68); fill-opacity: 1; white-space: pre;"> TrueLambda= 7.0</text><g class="layers" style="opacity: 1;"><g class="legendfill"/><g class="legendlines"><path class="js-line" d="M5,0h30" style="fill: none; stroke: rgb(31, 119, 180); stroke-opacity: 1; stroke-width: 1px;"/></g><g class="legendsymbols"><g class="legendpoints"/></g></g><rect class="legendtoggle" x="0" y="-9.5" width="243.609375" height="19" style="fill: rgb(0, 0, 0); fill-opacity: 0;"/></g><g class="traces" transform="translate(0,33.5)" style="opacity: 1;"><text class="legendtext" text-anchor="start" x="40" y="4.680000000000001" style="font-family: 'Open Sans', verdana, arial, sans-serif; font-size: 12px; fill: rgb(68, 68, 68); fill-opacity: 1; white-space: pre;">PredLambda= 7.0</text><g class="layers" style="opacity: 1;"><g class="legendfill"/><g class="legendlines"><path class="js-line" d="M5,0h30" style="fill: none; stroke: rgb(255, 127, 14); stroke-opacity: 1; stroke-width: 1px;"/></g><g class="legendsymbols"><g class="legendpoints"/></g></g><rect class="legendtoggle" x="0" y="-9.5" width="243.609375" height="19" style="fill: rgb(0, 0, 0); fill-opacity: 0;"/></g><g class="traces" transform="translate(0,52.5)" style="opacity: 1;"><text class="legendtext" text-anchor="start" x="40" y="4.680000000000001" style="font-family: 'Open Sans', verdana, arial, sans-serif; font-size: 12px; fill: rgb(68, 68, 68); fill-opacity: 1; white-space: pre;"> TrueLambda= 7.3618090452261</text><g class="layers" style="opacity: 1;"><g class="legendfill"/><g class="legendlines"><path class="js-line" d="M5,0h30" style="fill: none; stroke: rgb(44, 160, 44); stroke-opacity: 1; stroke-width: 1px;"/></g><g class="legendsymbols"><g class="legendpoints"/></g></g><rect class="legendtoggle" x="0" y="-9.5" width="243.609375" height="19" style="fill: rgb(0, 0, 0); fill-opacity: 0;"/></g><g class="traces" transform="translate(0,71.5)" style="opacity: 1;"><text class="legendtext" text-anchor="start" x="40" y="4.680000000000001" style="font-family: 'Open Sans', verdana, arial, sans-serif; font-size: 12px; fill: rgb(68, 68, 68); fill-opacity: 1; white-space: pre;">PredLambda= 7.3618090452261</text><g class="layers" style="opacity: 1;"><g class="legendfill"/><g class="legendlines"><path class="js-line" d="M5,0h30" style="fill: none; stroke: rgb(214, 39, 40); stroke-opacity: 1; stroke-width: 1px;"/></g><g class="legendsymbols"><g class="legendpoints"/></g></g><rect class="legendtoggle" x="0" y="-9.5" width="243.609375" height="19" style="fill: rgb(0, 0, 0); fill-opacity: 0;"/></g><g class="traces" transform="translate(0,90.5)" style="opacity: 1;"><text class="legendtext" text-anchor="start" x="40" y="4.680000000000001" style="font-family: 'Open Sans', verdana, arial, sans-serif; font-size: 12px; fill: rgb(68, 68, 68); fill-opacity: 1; white-space: pre;"> TrueLambda= 7.5427135678392</text><g class="layers" style="opacity: 1;"><g class="legendfill"/><g class="legendlines"><path class="js-line" d="M5,0h30" style="fill: none; stroke: rgb(148, 103, 189); stroke-opacity: 1; stroke-width: 1px;"/></g><g class="legendsymbols"><g class="legendpoints"/></g></g><rect class="legendtoggle" x="0" y="-9.5" width="243.609375" height="19" style="fill: rgb(0, 0, 0); fill-opacity: 0;"/></g><g class="traces" transform="translate(0,109.5)" style="opacity: 1;"><text class="legendtext" text-anchor="start" x="40" y="4.680000000000001" style="font-family: 'Open Sans', verdana, arial, sans-serif; font-size: 12px; fill: rgb(68, 68, 68); fill-opacity: 1; white-space: pre;">PredLambda= 7.5427135678392</text><g class="layers" style="opacity: 1;"><g class="legendfill"/><g class="legendlines"><path class="js-line" d="M5,0h30" style="fill: none; stroke: rgb(140, 86, 75); stroke-opacity: 1; stroke-width: 1px;"/></g><g class="legendsymbols"><g class="legendpoints"/></g></g><rect class="legendtoggle" x="0" y="-9.5" width="243.609375" height="19" style="fill: rgb(0, 0, 0); fill-opacity: 0;"/></g><g class="traces" transform="translate(0,128.5)" style="opacity: 1;"><text class="legendtext" text-anchor="start" x="40" y="4.680000000000001" style="font-family: 'Open Sans', verdana, arial, sans-serif; font-size: 12px; fill: rgb(68, 68, 68); fill-opacity: 1; white-space: pre;"> TrueLambda= 8.2261306532663</text><g class="layers" style="opacity: 1;"><g class="legendfill"/><g class="legendlines"><path class="js-line" d="M5,0h30" style="fill: none; stroke: rgb(227, 119, 194); stroke-opacity: 1; stroke-width: 1px;"/></g><g class="legendsymbols"><g class="legendpoints"/></g></g><rect class="legendtoggle" x="0" y="-9.5" width="243.609375" height="19" style="fill: rgb(0, 0, 0); fill-opacity: 0;"/></g><g class="traces" transform="translate(0,147.5)" style="opacity: 1;"><text class="legendtext" text-anchor="start" x="40" y="4.680000000000001" style="font-family: 'Open Sans', verdana, arial, sans-serif; font-size: 12px; fill: rgb(68, 68, 68); fill-opacity: 1; white-space: pre;">PredLambda= 8.2261306532663</text><g class="layers" style="opacity: 1;"><g class="legendfill"/><g class="legendlines"><path class="js-line" d="M5,0h30" style="fill: none; stroke: rgb(127, 127, 127); stroke-opacity: 1; stroke-width: 1px;"/></g><g class="legendsymbols"><g class="legendpoints"/></g></g><rect class="legendtoggle" x="0" y="-9.5" width="243.609375" height="19" style="fill: rgb(0, 0, 0); fill-opacity: 0;"/></g><g class="traces" transform="translate(0,166.5)" style="opacity: 1;"><text class="legendtext" text-anchor="start" x="40" y="4.680000000000001" style="font-family: 'Open Sans', verdana, arial, sans-serif; font-size: 12px; fill: rgb(68, 68, 68); fill-opacity: 1; white-space: pre;"> TrueLambda= 8.2663316582915</text><g class="layers" style="opacity: 1;"><g class="legendfill"/><g class="legendlines"><path class="js-line" d="M5,0h30" style="fill: none; stroke: rgb(188, 189, 34); stroke-opacity: 1; stroke-width: 1px;"/></g><g class="legendsymbols"><g class="legendpoints"/></g></g><rect class="legendtoggle" x="0" y="-9.5" width="243.609375" height="19" style="fill: rgb(0, 0, 0); fill-opacity: 0;"/></g><g class="traces" transform="translate(0,185.5)" style="opacity: 1;"><text class="legendtext" text-anchor="start" x="40" y="4.680000000000001" style="font-family: 'Open Sans', verdana, arial, sans-serif; font-size: 12px; fill: rgb(68, 68, 68); fill-opacity: 1; white-space: pre;">PredLambda= 8.2663316582915</text><g class="layers" style="opacity: 1;"><g class="legendfill"/><g class="legendlines"><path class="js-line" d="M5,0h30" style="fill: none; stroke: rgb(23, 190, 207); stroke-opacity: 1; stroke-width: 1px;"/></g><g class="legendsymbols"><g class="legendpoints"/></g></g><rect class="legendtoggle" x="0" y="-9.5" width="243.609375" height="19" style="fill: rgb(0, 0, 0); fill-opacity: 0;"/></g><g class="traces" transform="translate(0,204.5)" style="opacity: 1;"><text class="legendtext" text-anchor="start" x="40" y="4.680000000000001" style="font-family: 'Open Sans', verdana, arial, sans-serif; font-size: 12px; fill: rgb(68, 68, 68); fill-opacity: 1; white-space: pre;"> TrueLambda= 9.3718592964824</text><g class="layers" style="opacity: 1;"><g class="legendfill"/><g class="legendlines"><path class="js-line" d="M5,0h30" style="fill: none; stroke: rgb(31, 119, 180); stroke-opacity: 1; stroke-width: 1px;"/></g><g class="legendsymbols"><g class="legendpoints"/></g></g><rect class="legendtoggle" x="0" y="-9.5" width="243.609375" height="19" style="fill: rgb(0, 0, 0); fill-opacity: 0;"/></g><g class="traces" transform="translate(0,223.5)" style="opacity: 1;"><text class="legendtext" text-anchor="start" x="40" y="4.680000000000001" style="font-family: 'Open Sans', verdana, arial, sans-serif; font-size: 12px; fill: rgb(68, 68, 68); fill-opacity: 1; white-space: pre;">PredLambda= 9.3718592964824</text><g class="layers" style="opacity: 1;"><g class="legendfill"/><g class="legendlines"><path class="js-line" d="M5,0h30" style="fill: none; stroke: rgb(255, 127, 14); stroke-opacity: 1; stroke-width: 1px;"/></g><g class="legendsymbols"><g class="legendpoints"/></g></g><rect class="legendtoggle" x="0" y="-9.5" width="243.609375" height="19" style="fill: rgb(0, 0, 0); fill-opacity: 0;"/></g><g class="traces" transform="translate(0,242.5)" style="opacity: 1;"><text class="legendtext" text-anchor="start" x="40" y="4.680000000000001" style="font-family: 'Open Sans', verdana, arial, sans-serif; font-size: 12px; fill: rgb(68, 68, 68); fill-opacity: 1; white-space: pre;"> TrueLambda= 10.095477386935</text><g class="layers" style="opacity: 1;"><g class="legendfill"/><g class="legendlines"><path class="js-line" d="M5,0h30" style="fill: none; stroke: rgb(44, 160, 44); stroke-opacity: 1; stroke-width: 1px;"/></g><g class="legendsymbols"><g class="legendpoints"/></g></g><rect class="legendtoggle" x="0" y="-9.5" width="243.609375" height="19" style="fill: rgb(0, 0, 0); fill-opacity: 0;"/></g><g class="traces" transform="translate(0,261.5)" style="opacity: 1;"><text class="legendtext" text-anchor="start" x="40" y="4.680000000000001" style="font-family: 'Open Sans', verdana, arial, sans-serif; font-size: 12px; fill: rgb(68, 68, 68); fill-opacity: 1; white-space: pre;">PredLambda= 10.095477386935</text><g class="layers" style="opacity: 1;"><g class="legendfill"/><g class="legendlines"><path class="js-line" d="M5,0h30" style="fill: none; stroke: rgb(214, 39, 40); stroke-opacity: 1; stroke-width: 1px;"/></g><g class="legendsymbols"><g class="legendpoints"/></g></g><rect class="legendtoggle" x="0" y="-9.5" width="243.609375" height="19" style="fill: rgb(0, 0, 0); fill-opacity: 0;"/></g><g class="traces" transform="translate(0,280.5)" style="opacity: 1;"><text class="legendtext" text-anchor="start" x="40" y="4.680000000000001" style="font-family: 'Open Sans', verdana, arial, sans-serif; font-size: 12px; fill: rgb(68, 68, 68); fill-opacity: 1; white-space: pre;"> TrueLambda= 10.256281407035</text><g class="layers" style="opacity: 1;"><g class="legendfill"/><g class="legendlines"><path class="js-line" d="M5,0h30" style="fill: none; stroke: rgb(148, 103, 189); stroke-opacity: 1; stroke-width: 1px;"/></g><g class="legendsymbols"><g class="legendpoints"/></g></g><rect class="legendtoggle" x="0" y="-9.5" width="243.609375" height="19" style="fill: rgb(0, 0, 0); fill-opacity: 0;"/></g><g class="traces" transform="translate(0,299.5)" style="opacity: 1;"><text class="legendtext" text-anchor="start" x="40" y="4.680000000000001" style="font-family: 'Open Sans', verdana, arial, sans-serif; font-size: 12px; fill: rgb(68, 68, 68); fill-opacity: 1; white-space: pre;">PredLambda= 10.256281407035</text><g class="layers" style="opacity: 1;"><g class="legendfill"/><g class="legendlines"><path class="js-line" d="M5,0h30" style="fill: none; stroke: rgb(140, 86, 75); stroke-opacity: 1; stroke-width: 1px;"/></g><g class="legendsymbols"><g class="legendpoints"/></g></g><rect class="legendtoggle" x="0" y="-9.5" width="243.609375" height="19" style="fill: rgb(0, 0, 0); fill-opacity: 0;"/></g><g class="traces" transform="translate(0,318.5)" style="opacity: 1;"><text class="legendtext" text-anchor="start" x="40" y="4.680000000000001" style="font-family: 'Open Sans', verdana, arial, sans-serif; font-size: 12px; fill: rgb(68, 68, 68); fill-opacity: 1; white-space: pre;"> TrueLambda= 10.336683417085</text><g class="layers" style="opacity: 1;"><g class="legendfill"/><g class="legendlines"><path class="js-line" d="M5,0h30" style="fill: none; stroke: rgb(227, 119, 194); stroke-opacity: 1; stroke-width: 1px;"/></g><g class="legendsymbols"><g class="legendpoints"/></g></g><rect class="legendtoggle" x="0" y="-9.5" width="243.609375" height="19" style="fill: rgb(0, 0, 0); fill-opacity: 0;"/></g><g class="traces" transform="translate(0,337.5)" style="opacity: 1;"><text class="legendtext" text-anchor="start" x="40" y="4.680000000000001" style="font-family: 'Open Sans', verdana, arial, sans-serif; font-size: 12px; fill: rgb(68, 68, 68); fill-opacity: 1; white-space: pre;">PredLambda= 10.336683417085</text><g class="layers" style="opacity: 1;"><g class="legendfill"/><g class="legendlines"><path class="js-line" d="M5,0h30" style="fill: none; stroke: rgb(127, 127, 127); stroke-opacity: 1; stroke-width: 1px;"/></g><g class="legendsymbols"><g class="legendpoints"/></g></g><rect class="legendtoggle" x="0" y="-9.5" width="243.609375" height="19" style="fill: rgb(0, 0, 0); fill-opacity: 0;"/></g><g class="traces" transform="translate(0,356.5)" style="opacity: 1;"><text class="legendtext" text-anchor="start" x="40" y="4.680000000000001" style="font-family: 'Open Sans', verdana, arial, sans-serif; font-size: 12px; fill: rgb(68, 68, 68); fill-opacity: 1; white-space: pre;"> TrueLambda= 10.698492462312</text><g class="layers" style="opacity: 1;"><g class="legendfill"/><g class="legendlines"><path class="js-line" d="M5,0h30" style="fill: none; stroke: rgb(188, 189, 34); stroke-opacity: 1; stroke-width: 1px;"/></g><g class="legendsymbols"><g class="legendpoints"/></g></g><rect class="legendtoggle" x="0" y="-9.5" width="243.609375" height="19" style="fill: rgb(0, 0, 0); fill-opacity: 0;"/></g><g class="traces" transform="translate(0,375.5)" style="opacity: 1;"><text class="legendtext" text-anchor="start" x="40" y="4.680000000000001" style="font-family: 'Open Sans', verdana, arial, sans-serif; font-size: 12px; fill: rgb(68, 68, 68); fill-opacity: 1; white-space: pre;">PredLambda= 10.698492462312</text><g class="layers" style="opacity: 1;"><g class="legendfill"/><g class="legendlines"><path class="js-line" d="M5,0h30" style="fill: none; stroke: rgb(23, 190, 207); stroke-opacity: 1; stroke-width: 1px;"/></g><g class="legendsymbols"><g class="legendpoints"/></g></g><rect class="legendtoggle" x="0" y="-9.5" width="243.609375" height="19" style="fill: rgb(0, 0, 0); fill-opacity: 0;"/></g></g></g><rect class="scrollbar" rx="20" ry="3" width="0" height="0" style="fill: rgb(128, 139, 164); fill-opacity: 1;" x="0" y="0"/></g><g class="g-gtitle"><text class="gtitle" x="350" y="50" text-anchor="middle" dy="0em" style="font-family: Rockwell; font-size: 24px; fill: rgb(68, 68, 68); opacity: 1; font-weight: normal; white-space: pre;">S-Parameters [Magnitude]</text></g><g class="g-xtitle"/><g class="g-ytitle"/></g></svg>