<svg class="main-svg" xmlns="http://www.w3.org/2000/svg" xmlns:xlink="http://www.w3.org/1999/xlink" width="700" height="500" style="" viewBox="0 0 700 500"><rect x="0" y="0" width="700" height="500" style="fill: rgb(255, 255, 255); fill-opacity: 1;"/><defs id="defs-426906"><g class="clips"><clipPath id="clip426906xyplot" class="plotclip"><rect width="352" height="320"/></clipPath><clipPath class="axesclip" id="clip426906x"><rect x="80" y="0" width="352" height="500"/></clipPath><clipPath class="axesclip" id="clip426906y"><rect x="0" y="100" width="700" height="320"/></clipPath><clipPath class="axesclip" id="clip426906xy"><rect x="80" y="100" width="352" height="320"/></clipPath></g><g class="gradients"/><g class="patterns"/></defs><g class="bglayer"/><g class="layer-below"><g class="imagelayer"/><g class="shapelayer"/></g><g class="cartesianlayer"><g class="subplot xy"><g class="layer-subplot"><g class="shapelayer"/><g class="imagelayer"/></g><g class="minor-gridlayer"><g class="x"/><g class="y"/></g><g class="gridlayer"><g class="x"><path class="xgrid crisp" transform="translate(115.2,0)" d="M0,100v320" style="stroke: rgb(0, 0, 0); stroke-opacity: 1; stroke-dasharray: 3px, 3px; stroke-width: 1px;"/><path class="xgrid crisp" transform="translate(150.4,0)" d="M0,100v320" style="stroke: rgb(0, 0, 0); stroke-opacity: 1; stroke-dasharray: 3px, 3px; stroke-width: 1px;"/><path class="xgrid crisp" transform="translate(185.6,0)" d="M0,100v320" style="stroke: rgb(0, 0, 0); stroke-opacity: 1; stroke-dasharray: 3px, 3px; stroke-width: 1px;"/><path class="xgrid crisp" transform="translate(220.8,0)" d="M0,100v320" style="stroke: rgb(0, 0, 0); stroke-opacity: 1; stroke-dasharray: 3px, 3px; stroke-width: 1px;"/><path class="xgrid crisp" transform="translate(256,0)" d="M0,100v320" style="stroke: rgb(0, 0, 0); stroke-opacity: 1; stroke-dasharray: 3px, 3px; stroke-width: 1px;"/><path class="xgrid crisp" transform="translate(291.2,0)" d="M0,100v320" style="stroke: rgb(0, 0, 0); stroke-opacity: 1; stroke-dasharray: 3px, 3px; stroke-width: 1px;"/><path class="xgrid crisp" transform="translate(326.4,0)" d="M0,100v320" style="stroke: rgb(0, 0, 0); stroke-opacity: 1; stroke-dasharray: 3px, 3px; stroke-width: 1px;"/><path class="xgrid crisp" transform="translate(361.6,0)" d="M0,100v320" style="stroke: rgb(0, 0, 0); stroke-opacity: 1; stroke-dasharray: 3px, 3px; stroke-width: 1px;"/><path class="xgrid crisp" transform="translate(396.8,0)" d="M0,100v320" style="stroke: rgb(0, 0, 0); stroke-opacity: 1; stroke-dasharray: 3px, 3px; stroke-width: 1px;"/></g><g class="y"><path class="ygrid crisp" transform="translate(0,374.07)" d="M80,0h352" style="stroke: rgb(0, 0, 0); stroke-opacity: 1; stroke-dasharray: 3px, 3px; stroke-width: 1px;"/><path class="ygrid crisp" transform="translate(0,344.12)" d="M80,0h352" style="stroke: rgb(0, 0, 0); stroke-opacity: 1; stroke-dasharray: 3px, 3px; stroke-width: 1px;"/><path class="ygrid crisp" transform="translate(0,314.16999999999996)" d="M80,0h352" style="stroke: rgb(0, 0, 0); stroke-opacity: 1; stroke-dasharray: 3px, 3px; stroke-width: 1px;"/><path class="ygrid crisp" transform="translate(0,284.21000000000004)" d="M80,0h352" style="stroke: rgb(0, 0, 0); stroke-opacity: 1; stroke-dasharray: 3px, 3px; stroke-width: 1px;"/><path class="ygrid crisp" transform="translate(0,254.26)" d="M80,0h352" style="stroke: rgb(0, 0, 0); stroke-opacity: 1; stroke-dasharray: 3px, 3px; stroke-width: 1px;"/><path class="ygrid crisp" transform="translate(0,224.31)" d="M80,0h352" style="stroke: rgb(0, 0, 0); stroke-opacity: 1; stroke-dasharray: 3px, 3px; stroke-width: 1px;"/><path class="ygrid crisp" transform="translate(0,194.35)" d="M80,0h352" style="stroke: rgb(0, 0, 0); stroke-opacity: 1; stroke-dasharray: 3px, 3px; stroke-width: 1px;"/><path class="ygrid crisp" transform="translate(0,164.4)" d="M80,0h352" style="stroke: rgb(0, 0, 0); stroke-opacity: 1; stroke-dasharray: 3px, 3px; stroke-width: 1px;"/><path class="ygrid crisp" transform="translate(0,134.45)" d="M80,0h352" style="stroke: rgb(0, 0, 0); stroke-opacity: 1; stroke-dasharray: 3px, 3px; stroke-width: 1px;"/><path class="ygrid crisp" transform="translate(0,104.49)" d="M80,0h352" style="stroke: rgb(0, 0, 0); stroke-opacity: 1; stroke-dasharray: 3px, 3px; stroke-width: 1px;"/></g></g><g class="zerolinelayer"><path class="yzl zl crisp" transform="translate(0,404.03)" d="M80,0h352" style="stroke: rgb(68, 68, 68); stroke-opacity: 1; stroke-width: 1px;"/></g><path class="xlines-below"/><path class="ylines-below"/><g class="overlines-below"/><g class="xaxislayer-below"/><g class="yaxislayer-below"/><g class="overaxes-below"/><g class="plot" transform="translate(80,100)" clip-path="url(#clip426906xyplot)"><g class="scatterlayer mlayer"><g class="trace scatter trace26b68f" style="stroke-miterlimit: 2; opacity: 1;"><g class="fills"/><g class="errorbars"/><g class="lines"><path class="js-line" d="M0,16L40.13,20.19L40.48,20.23L70.75,24.44L71.1,24.5L93.28,28.33L93.63,28.4L128.48,36.1L128.83,36.19L155.23,43.75L155.58,43.87L174.24,50.34L174.59,50.47L195.01,58.83L195.36,58.99L218.59,70.39L218.94,70.58L235.84,80.33L236.19,80.54L257.66,94.9L258.02,95.15L280.19,112.49L280.54,112.78L297.79,128.1L298.14,128.43L314.34,144.28L314.69,144.63L337.22,168.87L337.57,169.26L352,185.95" style="vector-effect: non-scaling-stroke; fill: none; stroke: rgb(31, 119, 180); stroke-opacity: 1; stroke-width: 1px; opacity: 1;"/></g><g class="points"/><g class="text"/></g><g class="trace scatter trace9225a2" style="stroke-miterlimit: 2; opacity: 1;"><g class="fills"/><g class="errorbars"/><g class="lines"><path class="js-line" d="M0,18.84L2.11,18.85L2.46,19.02L7.04,19.41L7.39,19.28L9.86,19.68L10.21,19.5L11.97,19.79L12.32,19.62L19.01,19.57L19.36,19.8L21.12,19.65L21.47,19.63L26.75,19.56L27.1,19.62L49.28,20.78L49.63,20.81L63.71,22.75L64.06,22.81L74.27,24.68L74.62,24.76L106.3,31.63L106.66,31.71L144.67,41.16L145.02,41.26L172.48,49.63L172.83,49.76L186.56,54.84L186.91,54.98L210.5,65.78L210.85,65.96L227.39,75.29L227.74,75.5L239.01,82.61L239.36,82.82L292.16,119.71L292.51,119.98L305.89,131.17L306.24,131.58L315.39,141.12L315.74,141.58L323.14,150.97L323.49,151.42L329.82,160.99L330.18,161.73L334.75,169.56L335.1,170.23L341.44,182.01L341.79,182.73L346.72,190.92L347.07,190.04L349.54,193.54L349.89,194.17L352,196.88" style="vector-effect: non-scaling-stroke; fill: none; stroke: rgb(255, 127, 14); stroke-opacity: 1; stroke-width: 1px; opacity: 1;"/></g><g class="points"/><g class="text"/></g><g class="trace scatter trace603755" style="stroke-miterlimit: 2; opacity: 1;"><g class="fills"/><g class="errorbars"/><g class="lines"><path class="js-line" d="M0,25.54L25.34,30.64L25.7,30.72L52.8,37.68L53.15,37.78L74.27,44.57L74.62,44.7L90.46,50.75L90.82,50.9L108.42,58.74L108.77,58.91L128.48,69.31L128.83,69.51L146.08,80.21L146.43,80.44L166.85,95.29L167.2,95.57L186.21,111.71L186.56,112.03L204.86,129.76L205.22,130.13L223.52,149.99L223.87,150.4L244.29,174.86L244.64,175.3L269.63,207.89L269.98,208.36L289.7,235.33L290.05,235.82L331.23,292.2L331.58,292.66L340.38,303.07L340.74,302.87L344.26,298.7L344.61,298.25L352,288.92" style="vector-effect: non-scaling-stroke; fill: none; stroke: rgb(44, 160, 44); stroke-opacity: 1; stroke-width: 1px; opacity: 1;"/></g><g class="points"/><g class="text"/></g><g class="trace scatter tracea95422" style="stroke-miterlimit: 2; opacity: 1;"><g class="fills"/><g class="errorbars"/><g class="lines"><path class="js-line" d="M0,24.75L2.11,25.04L2.46,25.27L5.28,25.78L5.63,25.74L8.1,26.49L8.45,26.41L70.05,42.83L70.4,42.98L73.92,44.08L74.27,44.21L97.86,53.02L98.21,53.17L116.51,61.81L116.86,62L130.94,69.85L131.3,70.06L149.25,81.7L149.6,81.94L168.96,96.65L169.31,96.94L183.74,109.43L184.1,109.74L202.4,127.48L202.75,127.84L230.91,159.21L231.26,159.63L246.05,177.97L246.4,178.45L260.48,196.93L260.83,197.4L285.82,231.8L286.18,232.29L319.62,277.02L319.97,277.36L337.92,298.94L338.27,299.34L342.14,302.52L342.5,302.52L345.31,299.77L345.66,299.25L350.59,293.07L350.94,292.56L352,291.31" style="vector-effect: non-scaling-stroke; fill: none; stroke: rgb(214, 39, 40); stroke-opacity: 1; stroke-width: 1px; opacity: 1;"/></g><g class="points"/><g class="text"/></g><g class="trace scatter traceca0984" style="stroke-miterlimit: 2; opacity: 1;"><g class="fills"/><g class="errorbars"/><g class="lines"><path class="js-line" d="M0,25.96L23.23,30.69L23.58,30.77L47.52,36.85L47.87,36.95L71.46,44.44L71.81,44.57L89.76,51.49L90.11,51.64L112.29,61.92L112.64,62.1L131.65,72.7L132,72.91L153.82,87.45L154.18,87.7L173.89,103.26L174.24,103.56L192.19,119.89L192.54,120.23L206.98,134.88L207.33,135.25L225.28,155.3L225.63,155.71L252.38,188.9L252.74,189.36L284.77,232.67L285.12,233.16L329.82,294.48L330.18,294.95L337.22,303.11L337.57,302.91L341.44,298.26L341.79,297.81L352,284.93" style="vector-effect: non-scaling-stroke; fill: none; stroke: rgb(148, 103, 189); stroke-opacity: 1; stroke-width: 1px; opacity: 1;"/></g><g class="points"/><g class="text"/></g><g class="trace scatter trace31d9e2" style="stroke-miterlimit: 2; opacity: 1;"><g class="fills"/><g class="errorbars"/><g class="lines"><path class="js-line" d="M0,25.32L2.11,25.62L2.46,25.86L5.28,26.38L5.63,26.33L8.1,27.1L8.45,27.02L28.86,32.32L29.22,32.43L42.94,35.93L43.3,36.02L80.26,47.12L80.61,47.28L88.7,50.34L89.06,50.49L107.36,58.58L107.71,58.75L130.24,71.09L130.59,71.31L146.43,81.67L146.78,81.92L159.1,91.02L159.46,91.29L180.58,109.09L180.93,109.41L199.23,127.14L199.58,127.49L222.82,153.03L223.17,153.45L243.23,178.08L243.58,178.52L266.11,208.49L266.46,208.98L275.62,221.58L275.97,222.08L324.9,287.42L325.25,287.82L328.77,292.19L329.12,292.6L337.92,302.91L338.27,303.14L339.33,302.74L339.68,302.37L344.96,296.09L345.31,295.64L351.3,287.87L351.65,287.45L352,287.02" style="vector-effect: non-scaling-stroke; fill: none; stroke: rgb(140, 86, 75); stroke-opacity: 1; stroke-width: 1px; opacity: 1;"/></g><g class="points"/><g class="text"/></g><g class="trace scatter traceb79a65" style="stroke-miterlimit: 2; opacity: 1;"><g class="fills"/><g class="errorbars"/><g class="lines"><path class="js-line" d="M0,26.82L32.38,34.03L32.74,34.12L56.32,40.95L56.67,41.06L84.13,51.2L84.48,51.35L106.66,61.63L107.01,61.81L126.02,72.4L126.37,72.62L142.91,83.4L143.26,83.65L155.94,92.99L156.29,93.27L172.48,106.68L172.83,106.99L190.78,123.87L191.14,124.22L209.09,143.2L209.44,143.6L228.8,166.29L229.15,166.72L251.68,195.58L252.03,196.05L289.7,247.85L290.05,248.35L328.42,300.8L328.77,301.25L330.88,303.21L331.23,303.03L334.75,298.8L335.1,298.34L352,277.1" style="vector-effect: non-scaling-stroke; fill: none; stroke: rgb(227, 119, 194); stroke-opacity: 1; stroke-width: 1px; opacity: 1;"/></g><g class="points"/><g class="text"/></g><g class="trace scatter traced74a7b" style="stroke-miterlimit: 2; opacity: 1;"><g class="fills"/><g class="errorbars"/><g class="lines"><path class="js-line" d="M0,26.52L2.11,26.84L2.46,27.07L5.28,27.61L5.63,27.57L7.74,28.18L8.1,28.35L10.21,28.66L10.56,28.89L13.73,29.73L14.08,29.96L15.49,30.2L15.84,30.35L21.47,31.7L21.82,31.75L26.4,33.03L26.75,33L32.38,34.5L32.74,34.58L34.85,35.12L35.2,35.21L44.35,37.57L44.7,37.67L63.71,43.19L64.06,43.3L75.68,47.29L76.03,47.45L86.24,51.42L86.59,51.58L97.5,56.4L97.86,56.57L118.62,67.45L118.98,67.64L145.38,84.87L145.73,85.14L165.09,100.39L165.44,100.69L184.1,117.63L184.45,117.98L202.75,136.8L203.1,137.19L214.37,149.83L214.72,150.24L236.9,177.35L237.25,177.8L263.3,212.49L263.65,212.99L302.72,266.46L303.07,266.86L312.58,279.42L312.93,279.87L331.94,303.87L332.29,303.54L352,278.39" style="vector-effect: non-scaling-stroke; fill: none; stroke: rgb(127, 127, 127); stroke-opacity: 1; stroke-width: 1px; opacity: 1;"/></g><g class="points"/><g class="text"/></g><g class="trace scatter trace66a398" style="stroke-miterlimit: 2; opacity: 1;"><g class="fills"/><g class="errorbars"/><g class="lines"><path class="js-line" d="M0,42.41L17.6,49.21L17.95,49.36L36.96,58.32L37.31,58.5L54.56,68.2L54.91,68.42L70.4,78.56L70.75,78.81L89.06,92.76L89.41,93.06L105.95,107.71L106.3,108.04L122.14,124.02L122.5,124.4L137.63,141.46L137.98,141.87L153.47,161.05L153.82,161.51L167.9,180.28L168.26,180.77L191.49,213.9L191.84,214.42L229.86,271.13L230.21,271.66L252.38,303.77L252.74,303.56L288.99,255.6L289.34,255.17L312.93,228.1L313.28,227.72L330.53,210.07L330.88,209.72L349.89,192.27L350.24,191.96L352,190.45" style="vector-effect: non-scaling-stroke; fill: none; stroke: rgb(188, 189, 34); stroke-opacity: 1; stroke-width: 1px; opacity: 1;"/></g><g class="points"/><g class="text"/></g><g class="trace scatter trace4d1666" style="stroke-miterlimit: 2; opacity: 1;"><g class="fills"/><g class="errorbars"/><g class="lines"><path class="js-line" d="M0,44.05L1.41,44.33L1.76,44.64L3.17,44.92L3.52,45.23L4.93,45.53L5.28,45.84L6.69,46.15L7.04,46.46L8.45,46.78L8.8,47.1L10.56,47.63L10.91,47.68L26.05,52.7L26.4,52.9L29.57,54.11L29.92,54.29L49.98,64.6L50.34,64.82L63.71,73.71L64.06,73.96L76.74,83.65L77.09,83.93L97.86,102.06L98.21,102.39L116.86,120.99L117.22,121.36L140.45,147.61L140.8,148.03L160.16,172.4L160.51,172.86L191.49,215.61L191.84,216.11L230.56,272.31L230.91,272.81L253.44,303.9L253.79,303.45L279.84,270.36L280.19,269.95L304.48,241.25L304.83,240.88L346.37,192.2L346.72,191.83L347.42,191.5L347.78,191.15L352,187.61" style="vector-effect: non-scaling-stroke; fill: none; stroke: rgb(23, 190, 207); stroke-opacity: 1; stroke-width: 1px; opacity: 1;"/></g><g class="points"/><g class="text"/></g><g class="trace scatter trace4b676a" style="stroke-miterlimit: 2; opacity: 1;"><g class="fills"/><g class="errorbars"/><g class="lines"><path class="js-line" d="M0,43.16L22.18,52.17L22.53,52.33L40.48,61.35L40.83,61.54L57.38,71.35L57.73,71.57L77.44,85.37L77.79,85.64L95.04,99.85L95.39,100.17L111.23,115.16L111.58,115.51L127.07,132.04L127.42,132.44L142.56,150.35L142.91,150.78L165.09,179.83L165.44,180.32L187.97,212.47L188.32,212.98L249.92,303.67L250.27,303.24L281.95,260.85L282.3,260.41L306.24,232.27L306.59,231.88L328.06,209.64L328.42,209.3L343.2,195.55L343.55,195.24L352,187.96" style="vector-effect: non-scaling-stroke; fill: none; stroke: rgb(31, 119, 180); stroke-opacity: 1; stroke-width: 1px; opacity: 1;"/></g><g class="points"/><g class="text"/></g><g class="trace scatter trace861926" style="stroke-miterlimit: 2; opacity: 1;"><g class="fills"/><g class="errorbars"/><g class="lines"><path class="js-line" d="M0,44.69L1.41,44.97L1.76,45.29L3.17,45.58L3.52,45.9L4.93,46.21L5.28,46.52L6.69,46.84L7.04,47.16L8.45,47.49L8.8,47.81L10.56,48.35L10.91,48.4L27.81,54.33L28.16,54.5L30.27,55.44L30.62,55.56L34.5,57.34L34.85,57.53L47.87,64.64L48.22,64.84L66.53,77.37L66.88,77.66L85.54,92.94L85.89,93.23L104.54,110.74L104.9,111.09L128.13,135.98L128.48,136.39L151.71,164.67L152.06,165.12L167.55,185.66L167.9,186.14L186.56,212.25L186.91,212.76L250.62,304L250.98,303.53L278.78,268.11L279.14,267.7L319.62,220.2L319.97,219.87L340.03,196.33L340.38,195.94L348.48,188.17L348.83,188.24L352,185.42" style="vector-effect: non-scaling-stroke; fill: none; stroke: rgb(255, 127, 14); stroke-opacity: 1; stroke-width: 1px; opacity: 1;"/></g><g class="points"/><g class="text"/></g><g class="trace scatter trace94535e" style="stroke-miterlimit: 2; opacity: 1;"><g class="fills"/><g class="errorbars"/><g class="lines"><path class="js-line" d="M0,60.81L21.12,74.3L21.47,74.54L40.13,88.78L40.48,89.07L60.54,107.19L60.9,107.54L78.5,126.15L78.85,126.55L92.93,143.33L93.28,143.77L111.58,167.97L111.94,168.46L134.46,201.24L134.82,201.77L200.64,303.17L200.99,303.2L202.75,301.08L203.1,300.58L235.84,255.17L236.19,254.72L251.33,236.04L251.68,235.62L270.69,214.47L271.04,214.1L287.58,197.69L287.94,197.36L305.54,181.78L305.89,181.48L325.6,166.1L325.95,165.84L347.07,151.66L347.42,151.44L352,148.68" style="vector-effect: non-scaling-stroke; fill: none; stroke: rgb(44, 160, 44); stroke-opacity: 1; stroke-width: 1px; opacity: 1;"/></g><g class="points"/><g class="text"/></g><g class="trace scatter traceee29e1" style="stroke-miterlimit: 2; opacity: 1;"><g class="fills"/><g class="errorbars"/><g class="lines"><path class="js-line" d="M0,59.58L2.11,60.64L2.46,60.92L8.8,64.67L9.15,64.76L14.08,68.1L14.43,68.2L20.42,72.47L20.77,72.56L24.64,75.55L24.99,75.79L36.26,85.07L36.61,85.37L55.26,102.85L55.62,103.21L69.7,117.93L70.05,118.32L95.04,147.83L95.39,148.27L116.86,177.07L117.22,177.56L143.97,217.06L144.32,217.59L200.29,302.79L200.64,303.14L201.7,302.72L202.05,302.29L235.84,256.85L236.19,256.41L255.9,232.8L256.26,232.4L280.19,206.15L280.54,205.78L302.72,184L303.07,183.7L318.21,171.21L318.56,170.95L332.99,161.76L333.34,161.61L341.79,157.53L342.14,157.4L344.96,156.19L345.31,155.72L352,151.98" style="vector-effect: non-scaling-stroke; fill: none; stroke: rgb(214, 39, 40); stroke-opacity: 1; stroke-width: 1px; opacity: 1;"/></g><g class="points"/><g class="text"/></g><g class="trace scatter trace297b4b" style="stroke-miterlimit: 2; opacity: 1;"><g class="fills"/><g class="errorbars"/><g class="lines"><path class="js-line" d="M0,299.32L2.46,302.71L2.82,302.56L4.93,299.35L5.28,298.74L28.86,258.48L29.22,257.92L44,235.27L44.35,234.76L60.19,213L60.54,212.54L80.26,188.99L80.61,188.6L97.5,171.32L97.86,170.98L114.75,156.08L115.1,155.79L137.63,139.1L137.98,138.86L161.57,124.57L161.92,124.38L182.34,114.14L182.69,113.98L204.86,104.66L205.22,104.52L233.02,94.95L233.38,94.84L257.66,87.99L258.02,87.9L275.62,83.64L275.97,83.56L307.65,77.08L308,77.02L332.29,72.91L332.64,72.86L352,70.03" style="vector-effect: non-scaling-stroke; fill: none; stroke: rgb(148, 103, 189); stroke-opacity: 1; stroke-width: 1px; opacity: 1;"/></g><g class="points"/><g class="text"/></g><g class="trace scatter tracef17d2e" style="stroke-miterlimit: 2; opacity: 1;"><g class="fills"/><g class="errorbars"/><g class="lines"><path class="js-line" d="M0,299.22L1.76,302L2.11,302.34L3.52,301.42L3.87,300.52L11.97,287.01L12.32,285.74L13.73,283.84L14.08,283.35L16.19,279.67L16.54,279.28L20.06,272.97L20.42,272.59L34.5,249.54L34.85,248.98L51.39,223.86L51.74,223.42L67.94,201.64L68.29,201.23L78.14,189.46L78.5,189.07L97.5,169.43L97.86,169.1L109.82,158.5L110.18,158.21L126.37,145.73L126.72,145.48L139.74,136.74L140.1,136.53L158.4,125.9L158.75,125.71L171.78,119.1L172.13,118.94L199.58,107.13L199.94,107L219.3,100.04L219.65,99.93L229.86,96.64L230.21,96.53L254.5,89.68L254.85,89.63L266.11,86.84L266.46,86.83L272.8,85.26L273.15,85.22L283.01,83.06L283.36,82.98L314.69,76.57L315.04,76.53L316.8,76.05L317.15,75.9L318.91,75.47L319.26,75.37L320.67,75.21L321.02,74.89L323.14,74.56L323.49,74.34L352,68.84" style="vector-effect: non-scaling-stroke; fill: none; stroke: rgb(140, 86, 75); stroke-opacity: 1; stroke-width: 1px; opacity: 1;"/></g><g class="points"/><g class="text"/></g><g class="trace scatter traceb48648" style="stroke-miterlimit: 2; opacity: 1;"><g class="fills"/><g class="errorbars"/><g class="lines"><path class="js-line" d="M0,296.55L20.06,261.93L20.42,261.36L35.55,237.72L35.9,237.2L55.26,210.44L55.62,209.99L70.75,191.74L71.1,191.34L88.7,172.88L89.06,172.54L104.54,158.5L104.9,158.2L123.55,143.68L123.9,143.43L144.67,129.86L145.02,129.65L166.5,117.97L166.85,117.8L189.73,107.48L190.08,107.34L215.78,97.84L216.13,97.72L237.95,91.02L238.3,90.92L268.93,83.18L269.28,83.1L299.9,76.86L300.26,76.79L348.83,69.16L349.18,69.11L352,68.74" style="vector-effect: non-scaling-stroke; fill: none; stroke: rgb(227, 119, 194); stroke-opacity: 1; stroke-width: 1px; opacity: 1;"/></g><g class="points"/><g class="text"/></g><g class="trace scatter trace0f1e09" style="stroke-miterlimit: 2; opacity: 1;"><g class="fills"/><g class="errorbars"/><g class="lines"><path class="js-line" d="M0,296.76L2.11,292.51L2.46,291.99L3.17,291.19L3.52,290.33L5.63,286.14L5.98,285.62L6.69,284.85L7.04,283.99L9.15,279.87L9.5,279.36L10.21,278.61L10.56,277.83L14.08,272.73L14.43,271.87L48.22,219.92L48.58,219.42L65.47,196.91L65.82,196.52L76.38,184.24L76.74,183.88L86.94,173.33L87.3,172.97L105.25,156.97L105.6,156.67L119.68,145.96L120.03,145.7L136.93,134.51L137.28,134.31L149.95,126.87L150.3,126.67L178.46,112.56L178.82,112.4L198.88,104.04L199.23,103.91L225.63,94.87L225.98,94.76L248.51,88.61L248.86,88.57L265.06,84.76L265.41,84.75L336.51,69.05L336.86,69.06L342.5,68.08L342.85,68.23L345.31,67.9L345.66,68.12L347.07,67.62L347.42,67.85L348.83,67.35L349.18,67.58L350.59,67.08L350.94,67.31L352,66.93" style="vector-effect: non-scaling-stroke; fill: none; stroke: rgb(127, 127, 127); stroke-opacity: 1; stroke-width: 1px; opacity: 1;"/></g><g class="points"/><g class="text"/></g><g class="trace scatter trace99ff40" style="stroke-miterlimit: 2; opacity: 1;"><g class="fills"/><g class="errorbars"/><g class="lines"><path class="js-line" d="M0,287.92L19.71,254.5L20.06,253.93L40.83,222.9L41.18,222.42L58.78,199.66L59.14,199.24L74.62,181.79L74.98,181.42L90.11,166.51L90.46,166.18L110.53,149.28L110.88,149.01L127.42,137.19L127.78,136.96L141.86,128.18L142.21,127.98L158.4,119.14L158.75,118.97L177.41,110.2L177.76,110.04L201.34,100.73L201.7,100.61L221.41,94.06L221.76,93.96L245.34,87.33L245.7,87.24L275.62,80.31L275.97,80.24L316.8,72.81L317.15,72.76L345.31,68.68L345.66,68.64L352,67.82" style="vector-effect: non-scaling-stroke; fill: none; stroke: rgb(188, 189, 34); stroke-opacity: 1; stroke-width: 1px; opacity: 1;"/></g><g class="points"/><g class="text"/></g><g class="trace scatter tracece0316" style="stroke-miterlimit: 2; opacity: 1;"><g class="fills"/><g class="errorbars"/><g class="lines"><path class="js-line" d="M0,288.12L2.11,283.93L2.46,283.43L3.17,282.67L3.52,281.83L5.63,277.71L5.98,277.21L6.69,276.49L7.04,275.65L9.15,271.6L9.5,271.11L10.21,270.42L10.56,269.65L14.08,264.76L14.43,263.91L42.24,222.21L42.59,221.69L54.56,205.18L54.91,204.78L66.53,190.4L66.88,190.05L74.98,181.02L75.33,180.68L87.3,168.77L87.65,168.46L101.02,156.83L101.38,156.55L119.33,143.13L119.68,142.91L130.59,135.7L130.94,135.48L162.27,117.81L162.62,117.64L185.5,107.02L185.86,106.88L215.07,95.88L215.42,95.76L244.64,87.46L244.99,87.44L254.5,85.19L254.85,85.16L266.11,82.7L266.46,82.71L271.39,81.58L271.74,81.54L284.42,78.79L284.77,78.72L309.41,73.19L309.76,72.84L318.21,71.16L318.56,71.16L320.32,70.73L320.67,70.66L322.08,70.19L322.43,70.04L324.9,69.67L325.25,69.5L331.58,68.51L331.94,68.53L334.05,68L334.4,68.01L337.57,67.54L337.92,67.53L348.48,66.51L348.83,66.34L349.89,66.38L350.24,66.26L352,66.01" style="vector-effect: non-scaling-stroke; fill: none; stroke: rgb(23, 190, 207); stroke-opacity: 1; stroke-width: 1px; opacity: 1;"/></g><g class="points"/><g class="text"/></g></g></g><g class="overplot"/><path class="xlines-above crisp" d="M0,0" style="fill: none;"/><path class="ylines-above crisp" d="M0,0" style="fill: none;"/><g class="overlines-above"/><g class="xaxislayer-above"><g class="xtick"><text text-anchor="middle" x="0" y="433" transform="translate(80,0)" style="font-family: 'Open Sans', verdana, arial, sans-serif; font-size: 12px; fill: rgb(68, 68, 68); fill-opacity: 1; white-space: pre; opacity: 1;">25</text></g><g class="xtick"><text text-anchor="middle" x="0" y="433" style="font-family: 'Open Sans', verdana, arial, sans-serif; font-size: 12px; fill: rgb(68, 68, 68); fill-opacity: 1; white-space: pre; opacity: 1;" transform="translate(115.2,0)">26</text></g><g class="xtick"><text text-anchor="middle" x="0" y="433" style="font-family: 'Open Sans', verdana, arial, sans-serif; font-size: 12px; fill: rgb(68, 68, 68); fill-opacity: 1; white-space: pre; opacity: 1;" transform="translate(150.4,0)">27</text></g><g class="xtick"><text text-anchor="middle" x="0" y="433" style="font-family: 'Open Sans', verdana, arial, sans-serif; font-size: 12px; fill: rgb(68, 68, 68); fill-opacity: 1; white-space: pre; opacity: 1;" transform="translate(185.6,0)">28</text></g><g class="xtick"><text text-anchor="middle" x="0" y="433" style="font-family: 'Open Sans', verdana, arial, sans-serif; font-size: 12px; fill: rgb(68, 68, 68); fill-opacity: 1; white-space: pre; opacity: 1;" transform="translate(220.8,0)">29</text></g><g class="xtick"><text text-anchor="middle" x="0" y="433" style="font-family: 'Open Sans', verdana, arial, sans-serif; font-size: 12px; fill: rgb(68, 68, 68); fill-opacity: 1; white-space: pre; opacity: 1;" transform="translate(256,0)">30</text></g><g class="xtick"><text text-anchor="middle" x="0" y="433" style="font-family: 'Open Sans', verdana, arial, sans-serif; font-size: 12px; fill: rgb(68, 68, 68); fill-opacity: 1; white-space: pre; opacity: 1;" transform="translate(291.2,0)">31</text></g><g class="xtick"><text text-anchor="middle" x="0" y="433" style="font-family: 'Open Sans', verdana, arial, sans-serif; font-size: 12px; fill: rgb(68, 68, 68); fill-opacity: 1; white-space: pre; opacity: 1;" transform="translate(326.4,0)">32</text></g><g class="xtick"><text text-anchor="middle" x="0" y="433" style="font-family: 'Open Sans', verdana, arial, sans-serif; font-size: 12px; fill: rgb(68, 68, 68); fill-opacity: 1; white-space: pre; opacity: 1;" transform="translate(361.6,0)">33</text></g><g class="xtick"><text text-anchor="middle" x="0" y="433" style="font-family: 'Open Sans', verdana, arial, sans-serif; font-size: 12px; fill: rgb(68, 68, 68); fill-opacity: 1; white-space: pre; opacity: 1;" transform="translate(396.8,0)">34</text></g><g class="xtick"><text text-anchor="middle" x="0" y="433" style="font-family: 'Open Sans', verdana, arial, sans-serif; font-size: 12px; fill: rgb(68, 68, 68); fill-opacity: 1; white-space: pre; opacity: 1;" transform="translate(432,0)">35</text></g></g><g class="yaxislayer-above"><g class="ytick"><text text-anchor="end" x="79" y="4.199999999999999" transform="translate(0,404.03)" style="font-family: 'Open Sans', verdana, arial, sans-serif; font-size: 12px; fill: rgb(68, 68, 68); fill-opacity: 1; white-space: pre; opacity: 1;">0</text></g><g class="ytick"><text text-anchor="end" x="79" y="4.199999999999999" style="font-family: 'Open Sans', verdana, arial, sans-serif; font-size: 12px; fill: rgb(68, 68, 68); fill-opacity: 1; white-space: pre; opacity: 1;" transform="translate(0,374.07)">0.1</text></g><g class="ytick"><text text-anchor="end" x="79" y="4.199999999999999" style="font-family: 'Open Sans', verdana, arial, sans-serif; font-size: 12px; fill: rgb(68, 68, 68); fill-opacity: 1; white-space: pre; opacity: 1;" transform="translate(0,344.12)">0.2</text></g><g class="ytick"><text text-anchor="end" x="79" y="4.199999999999999" style="font-family: 'Open Sans', verdana, arial, sans-serif; font-size: 12px; fill: rgb(68, 68, 68); fill-opacity: 1; white-space: pre; opacity: 1;" transform="translate(0,314.16999999999996)">0.3</text></g><g class="ytick"><text text-anchor="end" x="79" y="4.199999999999999" style="font-family: 'Open Sans', verdana, arial, sans-serif; font-size: 12px; fill: rgb(68, 68, 68); fill-opacity: 1; white-space: pre; opacity: 1;" transform="translate(0,284.21000000000004)">0.4</text></g><g class="ytick"><text text-anchor="end" x="79" y="4.199999999999999" style="font-family: 'Open Sans', verdana, arial, sans-serif; font-size: 12px; fill: rgb(68, 68, 68); fill-opacity: 1; white-space: pre; opacity: 1;" transform="translate(0,254.26)">0.5</text></g><g class="ytick"><text text-anchor="end" x="79" y="4.199999999999999" style="font-family: 'Open Sans', verdana, arial, sans-serif; font-size: 12px; fill: rgb(68, 68, 68); fill-opacity: 1; white-space: pre; opacity: 1;" transform="translate(0,224.31)">0.6</text></g><g class="ytick"><text text-anchor="end" x="79" y="4.199999999999999" style="font-family: 'Open Sans', verdana, arial, sans-serif; font-size: 12px; fill: rgb(68, 68, 68); fill-opacity: 1; white-space: pre; opacity: 1;" transform="translate(0,194.35)">0.7</text></g><g class="ytick"><text text-anchor="end" x="79" y="4.199999999999999" style="font-family: 'Open Sans', verdana, arial, sans-serif; font-size: 12px; fill: rgb(68, 68, 68); fill-opacity: 1; white-space: pre; opacity: 1;" transform="translate(0,164.4)">0.8</text></g><g class="ytick"><text text-anchor="end" x="79" y="4.199999999999999" style="font-family: 'Open Sans', verdana, arial, sans-serif; font-size: 12px; fill: rgb(68, 68, 68); fill-opacity: 1; white-space: pre; opacity: 1;" transform="translate(0,134.45)">0.9</text></g><g class="ytick"><text text-anchor="end" x="79" y="4.199999999999999" style="font-family: 'Open Sans', verdana, arial, sans-serif; font-size: 12px; fill: rgb(68, 68, 68); fill-opacity: 1; white-space: pre; opacity: 1;" transform="translate(0,104.49)">1</text></g></g><g class="overaxes-above"/></g></g><g class="polarlayer"/><g class="smithlayer"/><g class="ternarylayer"/><g class="geolayer"/><g class="funnelarealayer"/><g class="pielayer"/><g class="iciclelayer"/><g class="treemaplayer"/><g class="sunburstlayer"/><g class="glimages"/><defs id="topdefs-426906"><g class="clips"/><clipPath id="legend426906"><rect width="249" height="320" x="0" y="0"/></clipPath></defs><g class="layer-above"><g class="imagelayer"/><g class="shapelayer"/></g><g class="infolayer"><g class="legend" pointer-events="all" transform="translate(439.04,100)"><rect class="bg" shape-rendering="crispEdges" style="stroke: rgb(68, 68, 68); stroke-opacity: 1; fill: rgb(255, 255, 255); fill-opacity: 1; stroke-width: 0px;" width="249" height="320" x="0" y="0"/><g class="scrollbox" transform="" clip-path="url(#legend426906)"><g class="groups"><g class="traces" transform="translate(0,14.5)" style="opacity: 1;"><text class="legendtext" text-anchor="start" x="40" y="4.680000000000001" style="font-family: 'Open Sans', verdana, arial, sans-serif; font-size: 12px; fill: rgb(68, 68, 68); fill-opacity: 1; white-space: pre;"> TrueLambda= 7.1206030150754</text><g class="layers" style="opacity: 1;"><g class="legendfill"/><g class="legendlines"><path class="js-line" d="M5,0h30" style="fill: none; stroke: rgb(31, 119, 180); stroke-opacity: 1; stroke-width: 1px;"/></g><g class="legendsymbols"><g class="legendpoints"/></g></g><rect class="legendtoggle" x="0" y="-9.5" width="243.609375" height="19" style="fill: rgb(0, 0, 0); fill-opacity: 0;"/></g><g class="traces" transform="translate(0,33.5)" style="opacity: 1;"><text class="legendtext" text-anchor="start" x="40" y="4.680000000000001" style="font-family: 'Open Sans', verdana, arial, sans-serif; font-size: 12px; fill: rgb(68, 68, 68); fill-opacity: 1; white-space: pre;">PredLambda= 7.1206030150754</text><g class="layers" style="opacity: 1;"><g class="legendfill"/><g class="legendlines"><path class="js-line" d="M5,0h30" style="fill: none; stroke: rgb(255, 127, 14); stroke-opacity: 1; stroke-width: 1px;"/></g><g class="legendsymbols"><g class="legendpoints"/></g></g><rect class="legendtoggle" x="0" y="-9.5" width="243.609375" height="19" style="fill: rgb(0, 0, 0); fill-opacity: 0;"/></g><g class="traces" transform="translate(0,52.5)" style="opacity: 1;"><text class="legendtext" text-anchor="start" x="40" y="4.680000000000001" style="font-family: 'Open Sans', verdana, arial, sans-serif; font-size: 12px; fill: rgb(68, 68, 68); fill-opacity: 1; white-space: pre;"> TrueLambda= 7.7437185929648</text><g class="layers" style="opacity: 1;"><g class="legendfill"/><g class="legendlines"><path class="js-line" d="M5,0h30" style="fill: none; stroke: rgb(44, 160, 44); stroke-opacity: 1; stroke-width: 1px;"/></g><g class="legendsymbols"><g class="legendpoints"/></g></g><rect class="legendtoggle" x="0" y="-9.5" width="243.609375" height="19" style="fill: rgb(0, 0, 0); fill-opacity: 0;"/></g><g class="traces" transform="translate(0,71.5)" style="opacity: 1;"><text class="legendtext" text-anchor="start" x="40" y="4.680000000000001" style="font-family: 'Open Sans', verdana, arial, sans-serif; font-size: 12px; fill: rgb(68, 68, 68); fill-opacity: 1; white-space: pre;">PredLambda= 7.7437185929648</text><g class="layers" style="opacity: 1;"><g class="legendfill"/><g class="legendlines"><path class="js-line" d="M5,0h30" style="fill: none; stroke: rgb(214, 39, 40); stroke-opacity: 1; stroke-width: 1px;"/></g><g class="legendsymbols"><g class="legendpoints"/></g></g><rect class="legendtoggle" x="0" y="-9.5" width="243.609375" height="19" style="fill: rgb(0, 0, 0); fill-opacity: 0;"/></g><g class="traces" transform="translate(0,90.5)" style="opacity: 1;"><text class="legendtext" text-anchor="start" x="40" y="4.680000000000001" style="font-family: 'Open Sans', verdana, arial, sans-serif; font-size: 12px; fill: rgb(68, 68, 68); fill-opacity: 1; white-space: pre;"> TrueLambda= 7.7638190954774</text><g class="layers" style="opacity: 1;"><g class="legendfill"/><g class="legendlines"><path class="js-line" d="M5,0h30" style="fill: none; stroke: rgb(148, 103, 189); stroke-opacity: 1; stroke-width: 1px;"/></g><g class="legendsymbols"><g class="legendpoints"/></g></g><rect class="legendtoggle" x="0" y="-9.5" width="243.609375" height="19" style="fill: rgb(0, 0, 0); fill-opacity: 0;"/></g><g class="traces" transform="translate(0,109.5)" style="opacity: 1;"><text class="legendtext" text-anchor="start" x="40" y="4.680000000000001" style="font-family: 'Open Sans', verdana, arial, sans-serif; font-size: 12px; fill: rgb(68, 68, 68); fill-opacity: 1; white-space: pre;">PredLambda= 7.7638190954774</text><g class="layers" style="opacity: 1;"><g class="legendfill"/><g class="legendlines"><path class="js-line" d="M5,0h30" style="fill: none; stroke: rgb(140, 86, 75); stroke-opacity: 1; stroke-width: 1px;"/></g><g class="legendsymbols"><g class="legendpoints"/></g></g><rect class="legendtoggle" x="0" y="-9.5" width="243.609375" height="19" style="fill: rgb(0, 0, 0); fill-opacity: 0;"/></g><g class="traces" transform="translate(0,128.5)" style="opacity: 1;"><text class="legendtext" text-anchor="start" x="40" y="4.680000000000001" style="font-family: 'Open Sans', verdana, arial, sans-serif; font-size: 12px; fill: rgb(68, 68, 68); fill-opacity: 1; white-space: pre;"> TrueLambda= 7.8040201005025</text><g class="layers" style="opacity: 1;"><g class="legendfill"/><g class="legendlines"><path class="js-line" d="M5,0h30" style="fill: none; stroke: rgb(227, 119, 194); stroke-opacity: 1; stroke-width: 1px;"/></g><g class="legendsymbols"><g class="legendpoints"/></g></g><rect class="legendtoggle" x="0" y="-9.5" width="243.609375" height="19" style="fill: rgb(0, 0, 0); fill-opacity: 0;"/></g><g class="traces" transform="translate(0,147.5)" style="opacity: 1;"><text class="legendtext" text-anchor="start" x="40" y="4.680000000000001" style="font-family: 'Open Sans', verdana, arial, sans-serif; font-size: 12px; fill: rgb(68, 68, 68); fill-opacity: 1; white-space: pre;">PredLambda= 7.8040201005025</text><g class="layers" style="opacity: 1;"><g class="legendfill"/><g class="legendlines"><path class="js-line" d="M5,0h30" style="fill: none; stroke: rgb(127, 127, 127); stroke-opacity: 1; stroke-width: 1px;"/></g><g class="legendsymbols"><g class="legendpoints"/></g></g><rect class="legendtoggle" x="0" y="-9.5" width="243.609375" height="19" style="fill: rgb(0, 0, 0); fill-opacity: 0;"/></g><g class="traces" transform="translate(0,166.5)" style="opacity: 1;"><text class="legendtext" text-anchor="start" x="40" y="4.680000000000001" style="font-family: 'Open Sans', verdana, arial, sans-serif; font-size: 12px; fill: rgb(68, 68, 68); fill-opacity: 1; white-space: pre;"> TrueLambda= 8.3467336683417</text><g class="layers" style="opacity: 1;"><g class="legendfill"/><g class="legendlines"><path class="js-line" d="M5,0h30" style="fill: none; stroke: rgb(188, 189, 34); stroke-opacity: 1; stroke-width: 1px;"/></g><g class="legendsymbols"><g class="legendpoints"/></g></g><rect class="legendtoggle" x="0" y="-9.5" width="243.609375" height="19" style="fill: rgb(0, 0, 0); fill-opacity: 0;"/></g><g class="traces" transform="translate(0,185.5)" style="opacity: 1;"><text class="legendtext" text-anchor="start" x="40" y="4.680000000000001" style="font-family: 'Open Sans', verdana, arial, sans-serif; font-size: 12px; fill: rgb(68, 68, 68); fill-opacity: 1; white-space: pre;">PredLambda= 8.3467336683417</text><g class="layers" style="opacity: 1;"><g class="legendfill"/><g class="legendlines"><path class="js-line" d="M5,0h30" style="fill: none; stroke: rgb(23, 190, 207); stroke-opacity: 1; stroke-width: 1px;"/></g><g class="legendsymbols"><g class="legendpoints"/></g></g><rect class="legendtoggle" x="0" y="-9.5" width="243.609375" height="19" style="fill: rgb(0, 0, 0); fill-opacity: 0;"/></g><g class="traces" transform="translate(0,204.5)" style="opacity: 1;"><text class="legendtext" text-anchor="start" x="40" y="4.680000000000001" style="font-family: 'Open Sans', verdana, arial, sans-serif; font-size: 12px; fill: rgb(68, 68, 68); fill-opacity: 1; white-space: pre;"> TrueLambda= 8.3668341708543</text><g class="layers" style="opacity: 1;"><g class="legendfill"/><g class="legendlines"><path class="js-line" d="M5,0h30" style="fill: none; stroke: rgb(31, 119, 180); stroke-opacity: 1; stroke-width: 1px;"/></g><g class="legendsymbols"><g class="legendpoints"/></g></g><rect class="legendtoggle" x="0" y="-9.5" width="243.609375" height="19" style="fill: rgb(0, 0, 0); fill-opacity: 0;"/></g><g class="traces" transform="translate(0,223.5)" style="opacity: 1;"><text class="legendtext" text-anchor="start" x="40" y="4.680000000000001" style="font-family: 'Open Sans', verdana, arial, sans-serif; font-size: 12px; fill: rgb(68, 68, 68); fill-opacity: 1; white-space: pre;">PredLambda= 8.3668341708543</text><g class="layers" style="opacity: 1;"><g class="legendfill"/><g class="legendlines"><path class="js-line" d="M5,0h30" style="fill: none; stroke: rgb(255, 127, 14); stroke-opacity: 1; stroke-width: 1px;"/></g><g class="legendsymbols"><g class="legendpoints"/></g></g><rect class="legendtoggle" x="0" y="-9.5" width="243.609375" height="19" style="fill: rgb(0, 0, 0); fill-opacity: 0;"/></g><g class="traces" transform="translate(0,242.5)" style="opacity: 1;"><text class="legendtext" text-anchor="start" x="40" y="4.680000000000001" style="font-family: 'Open Sans', verdana, arial, sans-serif; font-size: 12px; fill: rgb(68, 68, 68); fill-opacity: 1; white-space: pre;"> TrueLambda= 8.748743718593</text><g class="layers" style="opacity: 1;"><g class="legendfill"/><g class="legendlines"><path class="js-line" d="M5,0h30" style="fill: none; stroke: rgb(44, 160, 44); stroke-opacity: 1; stroke-width: 1px;"/></g><g class="legendsymbols"><g class="legendpoints"/></g></g><rect class="legendtoggle" x="0" y="-9.5" width="243.609375" height="19" style="fill: rgb(0, 0, 0); fill-opacity: 0;"/></g><g class="traces" transform="translate(0,261.5)" style="opacity: 1;"><text class="legendtext" text-anchor="start" x="40" y="4.680000000000001" style="font-family: 'Open Sans', verdana, arial, sans-serif; font-size: 12px; fill: rgb(68, 68, 68); fill-opacity: 1; white-space: pre;">PredLambda= 8.748743718593</text><g class="layers" style="opacity: 1;"><g class="legendfill"/><g class="legendlines"><path class="js-line" d="M5,0h30" style="fill: none; stroke: rgb(214, 39, 40); stroke-opacity: 1; stroke-width: 1px;"/></g><g class="legendsymbols"><g class="legendpoints"/></g></g><rect class="legendtoggle" x="0" y="-9.5" width="243.609375" height="19" style="fill: rgb(0, 0, 0); fill-opacity: 0;"/></g><g class="traces" transform="translate(0,280.5)" style="opacity: 1;"><text class="legendtext" text-anchor="start" x="40" y="4.680000000000001" style="font-family: 'Open Sans', verdana, arial, sans-serif; font-size: 12px; fill: rgb(68, 68, 68); fill-opacity: 1; white-space: pre;"> TrueLambda= 10.738693467337</text><g class="layers" style="opacity: 1;"><g class="legendfill"/><g class="legendlines"><path class="js-line" d="M5,0h30" style="fill: none; stroke: rgb(148, 103, 189); stroke-opacity: 1; stroke-width: 1px;"/></g><g class="legendsymbols"><g class="legendpoints"/></g></g><rect class="legendtoggle" x="0" y="-9.5" width="243.609375" height="19" style="fill: rgb(0, 0, 0); fill-opacity: 0;"/></g><g class="traces" transform="translate(0,299.5)" style="opacity: 1;"><text class="legendtext" text-anchor="start" x="40" y="4.680000000000001" style="font-family: 'Open Sans', verdana, arial, sans-serif; font-size: 12px; fill: rgb(68, 68, 68); fill-opacity: 1; white-space: pre;">PredLambda= 10.738693467337</text><g class="layers" style="opacity: 1;"><g class="legendfill"/><g class="legendlines"><path class="js-line" d="M5,0h30" style="fill: none; stroke: rgb(140, 86, 75); stroke-opacity: 1; stroke-width: 1px;"/></g><g class="legendsymbols"><g class="legendpoints"/></g></g><rect class="legendtoggle" x="0" y="-9.5" width="243.609375" height="19" style="fill: rgb(0, 0, 0); fill-opacity: 0;"/></g><g class="traces" transform="translate(0,318.5)" style="opacity: 1;"><text class="legendtext" text-anchor="start" x="40" y="4.680000000000001" style="font-family: 'Open Sans', verdana, arial, sans-serif; font-size: 12px; fill: rgb(68, 68, 68); fill-opacity: 1; white-space: pre;"> TrueLambda= 10.819095477387</text><g class="layers" style="opacity: 1;"><g class="legendfill"/><g class="legendlines"><path class="js-line" d="M5,0h30" style="fill: none; stroke: rgb(227, 119, 194); stroke-opacity: 1; stroke-width: 1px;"/></g><g class="legendsymbols"><g class="legendpoints"/></g></g><rect class="legendtoggle" x="0" y="-9.5" width="243.609375" height="19" style="fill: rgb(0, 0, 0); fill-opacity: 0;"/></g><g class="traces" transform="translate(0,337.5)" style="opacity: 1;"><text class="legendtext" text-anchor="start" x="40" y="4.680000000000001" style="font-family: 'Open Sans', verdana, arial, sans-serif; font-size: 12px; fill: rgb(68, 68, 68); fill-opacity: 1; white-space: pre;">PredLambda= 10.819095477387</text><g class="layers" style="opacity: 1;"><g class="legendfill"/><g class="legendlines"><path class="js-line" d="M5,0h30" style="fill: none; stroke: rgb(127, 127, 127); stroke-opacity: 1; stroke-width: 1px;"/></g><g class="legendsymbols"><g class="legendpoints"/></g></g><rect class="legendtoggle" x="0" y="-9.5" width="243.609375" height="19" style="fill: rgb(0, 0, 0); fill-opacity: 0;"/></g><g class="traces" transform="translate(0,356.5)" style="opacity: 1;"><text class="legendtext" text-anchor="start" x="40" y="4.680000000000001" style="font-family: 'Open Sans', verdana, arial, sans-serif; font-size: 12px; fill: rgb(68, 68, 68); fill-opacity: 1; white-space: pre;"> TrueLambda= 10.879396984925</text><g class="layers" style="opacity: 1;"><g class="legendfill"/><g class="legendlines"><path class="js-line" d="M5,0h30" style="fill: none; stroke: rgb(188, 189, 34); stroke-opacity: 1; stroke-width: 1px;"/></g><g class="legendsymbols"><g class="legendpoints"/></g></g><rect class="legendtoggle" x="0" y="-9.5" width="243.609375" height="19" style="fill: rgb(0, 0, 0); fill-opacity: 0;"/></g><g class="traces" transform="translate(0,375.5)" style="opacity: 1;"><text class="legendtext" text-anchor="start" x="40" y="4.680000000000001" style="font-family: 'Open Sans', verdana, arial, sans-serif; font-size: 12px; fill: rgb(68, 68, 68); fill-opacity: 1; white-space: pre;">PredLambda= 10.879396984925</text><g class="layers" style="opacity: 1;"><g class="legendfill"/><g class="legendlines"><path class="js-line" d="M5,0h30" style="fill: none; stroke: rgb(23, 190, 207); stroke-opacity: 1; stroke-width: 1px;"/></g><g class="legendsymbols"><g class="legendpoints"/></g></g><rect class="legendtoggle" x="0" y="-9.5" width="243.609375" height="19" style="fill: rgb(0, 0, 0); fill-opacity: 0;"/></g></g></g><rect class="scrollbar" rx="20" ry="3" width="0" height="0" style="fill: rgb(128, 139, 164); fill-opacity: 1;" x="0" y="0"/></g><g class="g-gtitle"><text class="gtitle" x="350" y="50" text-anchor="middle" dy="0em" style="font-family: Rockwell; font-size: 24px; fill: rgb(68, 68, 68); opacity: 1; font-weight: normal; white-space: pre;">S-Parameters [Magnitude]</text></g><g class="g-xtitle"/><g class="g-ytitle"/></g></svg>