<svg class="main-svg" xmlns="http://www.w3.org/2000/svg" xmlns:xlink="http://www.w3.org/1999/xlink" width="700" height="500" style="" viewBox="0 0 700 500"><rect x="0" y="0" width="700" height="500" style="fill: rgb(255, 255, 255); fill-opacity: 1;"/><defs id="defs-e017c1"><g class="clips"><clipPath id="clipe017c1xyplot" class="plotclip"><rect width="352" height="320"/></clipPath><clipPath class="axesclip" id="clipe017c1x"><rect x="80" y="0" width="352" height="500"/></clipPath><clipPath class="axesclip" id="clipe017c1y"><rect x="0" y="100" width="700" height="320"/></clipPath><clipPath class="axesclip" id="clipe017c1xy"><rect x="80" y="100" width="352" height="320"/></clipPath></g><g class="gradients"/><g class="patterns"/></defs><g class="bglayer"/><g class="layer-below"><g class="imagelayer"/><g class="shapelayer"/></g><g class="cartesianlayer"><g class="subplot xy"><g class="layer-subplot"><g class="shapelayer"/><g class="imagelayer"/></g><g class="minor-gridlayer"><g class="x"/><g class="y"/></g><g class="gridlayer"><g class="x"><path class="xgrid crisp" transform="translate(115.2,0)" d="M0,100v320" style="stroke: rgb(0, 0, 0); stroke-opacity: 1; stroke-dasharray: 3px, 3px; stroke-width: 1px;"/><path class="xgrid crisp" transform="translate(150.4,0)" d="M0,100v320" style="stroke: rgb(0, 0, 0); stroke-opacity: 1; stroke-dasharray: 3px, 3px; stroke-width: 1px;"/><path class="xgrid crisp" transform="translate(185.6,0)" d="M0,100v320" style="stroke: rgb(0, 0, 0); stroke-opacity: 1; stroke-dasharray: 3px, 3px; stroke-width: 1px;"/><path class="xgrid crisp" transform="translate(220.8,0)" d="M0,100v320" style="stroke: rgb(0, 0, 0); stroke-opacity: 1; stroke-dasharray: 3px, 3px; stroke-width: 1px;"/><path class="xgrid crisp" transform="translate(256,0)" d="M0,100v320" style="stroke: rgb(0, 0, 0); stroke-opacity: 1; stroke-dasharray: 3px, 3px; stroke-width: 1px;"/><path class="xgrid crisp" transform="translate(291.2,0)" d="M0,100v320" style="stroke: rgb(0, 0, 0); stroke-opacity: 1; stroke-dasharray: 3px, 3px; stroke-width: 1px;"/><path class="xgrid crisp" transform="translate(326.4,0)" d="M0,100v320" style="stroke: rgb(0, 0, 0); stroke-opacity: 1; stroke-dasharray: 3px, 3px; stroke-width: 1px;"/><path class="xgrid crisp" transform="translate(361.6,0)" d="M0,100v320" style="stroke: rgb(0, 0, 0); stroke-opacity: 1; stroke-dasharray: 3px, 3px; stroke-width: 1px;"/><path class="xgrid crisp" transform="translate(396.8,0)" d="M0,100v320" style="stroke: rgb(0, 0, 0); stroke-opacity: 1; stroke-dasharray: 3px, 3px; stroke-width: 1px;"/></g><g class="y"><path class="ygrid crisp" transform="translate(0,374.48)" d="M80,0h352" style="stroke: rgb(0, 0, 0); stroke-opacity: 1; stroke-dasharray: 3px, 3px; stroke-width: 1px;"/><path class="ygrid crisp" transform="translate(0,344.48)" d="M80,0h352" style="stroke: rgb(0, 0, 0); stroke-opacity: 1; stroke-dasharray: 3px, 3px; stroke-width: 1px;"/><path class="ygrid crisp" transform="translate(0,314.48)" d="M80,0h352" style="stroke: rgb(0, 0, 0); stroke-opacity: 1; stroke-dasharray: 3px, 3px; stroke-width: 1px;"/><path class="ygrid crisp" transform="translate(0,284.48)" d="M80,0h352" style="stroke: rgb(0, 0, 0); stroke-opacity: 1; stroke-dasharray: 3px, 3px; stroke-width: 1px;"/><path class="ygrid crisp" transform="translate(0,254.48)" d="M80,0h352" style="stroke: rgb(0, 0, 0); stroke-opacity: 1; stroke-dasharray: 3px, 3px; stroke-width: 1px;"/><path class="ygrid crisp" transform="translate(0,224.48000000000002)" d="M80,0h352" style="stroke: rgb(0, 0, 0); stroke-opacity: 1; stroke-dasharray: 3px, 3px; stroke-width: 1px;"/><path class="ygrid crisp" transform="translate(0,194.48000000000002)" d="M80,0h352" style="stroke: rgb(0, 0, 0); stroke-opacity: 1; stroke-dasharray: 3px, 3px; stroke-width: 1px;"/><path class="ygrid crisp" transform="translate(0,164.48000000000002)" d="M80,0h352" style="stroke: rgb(0, 0, 0); stroke-opacity: 1; stroke-dasharray: 3px, 3px; stroke-width: 1px;"/><path class="ygrid crisp" transform="translate(0,134.48)" d="M80,0h352" style="stroke: rgb(0, 0, 0); stroke-opacity: 1; stroke-dasharray: 3px, 3px; stroke-width: 1px;"/><path class="ygrid crisp" transform="translate(0,104.47)" d="M80,0h352" style="stroke: rgb(0, 0, 0); stroke-opacity: 1; stroke-dasharray: 3px, 3px; stroke-width: 1px;"/></g></g><g class="zerolinelayer"><path class="yzl zl crisp" transform="translate(0,404.49)" d="M80,0h352" style="stroke: rgb(68, 68, 68); stroke-opacity: 1; stroke-width: 1px;"/></g><path class="xlines-below"/><path class="ylines-below"/><g class="overlines-below"/><g class="xaxislayer-below"/><g class="yaxislayer-below"/><g class="overaxes-below"/><g class="plot" transform="translate(80,100)" clip-path="url(#clipe017c1xyplot)"><g class="scatterlayer mlayer"><g class="trace scatter trace2c2262" style="stroke-miterlimit: 2; opacity: 1;"><g class="fills"/><g class="errorbars"/><g class="lines"><path class="js-line" d="M0,16L40.13,20.19L40.48,20.24L70.75,24.45L71.1,24.51L92.93,28.29L93.28,28.35L128.13,36.04L128.48,36.13L154.88,43.69L155.23,43.8L176.7,51.33L177.06,51.46L203.1,62.63L203.46,62.8L225.63,74.38L225.98,74.58L242.18,84.43L242.53,84.66L258.02,95.28L258.37,95.54L274.91,108.27L275.26,108.56L292.16,123.1L292.51,123.42L313.28,143.4L313.63,143.76L336.86,168.71L337.22,169.11L352,186.22" style="vector-effect: non-scaling-stroke; fill: none; stroke: rgb(31, 119, 180); stroke-opacity: 1; stroke-width: 1px; opacity: 1;"/></g><g class="points"/><g class="text"/></g><g class="trace scatter traceb378b5" style="stroke-miterlimit: 2; opacity: 1;"><g class="fills"/><g class="errorbars"/><g class="lines"><path class="js-line" d="M0,17.27L27.46,18.99L27.81,19.01L32.74,19.46L33.09,19.44L41.54,20.19L41.89,20.22L79.9,26.12L80.26,26.22L137.63,39.73L137.98,39.82L159.81,46.32L160.16,46.42L174.24,51.2L174.59,51.33L192.19,58.14L192.54,58.28L217.89,70.25L218.24,70.44L225.28,74.27L225.63,74.45L230.56,77.25L230.91,77.53L243.58,85.17L243.94,85.39L280.19,110.76L280.54,111.03L292.16,120.28L292.51,120.6L310.82,137.35L311.17,137.83L314.69,141.18L315.04,141.65L330.88,160.97L331.23,161.62L336.16,168.3L336.51,168.86L346.37,183.63L346.72,184.14L350.59,190.16L350.94,190.56L352,191.77" style="vector-effect: non-scaling-stroke; fill: none; stroke: rgb(255, 127, 14); stroke-opacity: 1; stroke-width: 1px; opacity: 1;"/></g><g class="points"/><g class="text"/></g><g class="trace scatter traceb1df5f" style="stroke-miterlimit: 2; opacity: 1;"><g class="fills"/><g class="errorbars"/><g class="lines"><path class="js-line" d="M0,16.68L32.74,20.23L33.09,20.27L84.13,28.15L84.48,28.22L118.98,35.84L119.33,35.93L145.38,43.39L145.73,43.5L166.85,50.9L167.2,51.04L185.5,58.63L185.86,58.79L208.38,69.88L208.74,70.07L228.8,81.81L229.15,82.03L246.75,93.95L247.1,94.2L265.41,108.33L265.76,108.62L285.47,125.9L285.82,126.22L302.37,142.38L302.72,142.74L324.54,166.22L324.9,166.62L352,198.66" style="vector-effect: non-scaling-stroke; fill: none; stroke: rgb(44, 160, 44); stroke-opacity: 1; stroke-width: 1px; opacity: 1;"/></g><g class="points"/><g class="text"/></g><g class="trace scatter trace491017" style="stroke-miterlimit: 2; opacity: 1;"><g class="fills"/><g class="errorbars"/><g class="lines"><path class="js-line" d="M0,18.72L15.84,19.7L16.19,19.33L17.95,19.59L18.3,19.53L37.31,20.65L37.66,20.73L40.83,20.96L41.18,21L73.22,26.01L73.57,26.08L83.78,28.22L84.13,28.3L109.12,34.04L109.47,34.12L123.55,37.65L123.9,37.77L158.4,48.02L158.75,48.16L174.24,53.8L174.59,53.95L190.08,60.47L190.43,60.67L203.81,67.22L204.16,67.43L209.09,70.05L209.44,70.2L221.06,76.99L221.41,77.22L243.94,92.11L244.29,92.39L288.29,126.55L288.64,126.9L296.38,133.81L296.74,134.16L314.69,152.77L315.04,153.27L327.71,170.26L328.06,170.88L329.82,173.35L330.18,173.95L352,208.89" style="vector-effect: non-scaling-stroke; fill: none; stroke: rgb(214, 39, 40); stroke-opacity: 1; stroke-width: 1px; opacity: 1;"/></g><g class="points"/><g class="text"/></g><g class="trace scatter trace255259" style="stroke-miterlimit: 2; opacity: 1;"><g class="fills"/><g class="errorbars"/><g class="lines"><path class="js-line" d="M0,49.83L16.19,57.56L16.54,57.74L34.85,68.22L35.2,68.44L52.45,80.13L52.8,80.39L70.75,94.65L71.1,94.95L84.13,106.78L84.48,107.12L98.56,121.42L98.91,121.79L116.86,142.34L117.22,142.77L133.06,162.94L133.41,163.41L151.01,187.76L151.36,188.27L175.3,223.74L175.65,224.28L228.45,303.92L228.8,303.91L231.97,299.61L232.32,299.11L255.9,266.71L256.26,266.25L274.56,243.42L274.91,243L295.68,219.77L296.03,219.4L313.63,201.88L313.98,201.54L336.86,181.51L337.22,181.23L352,169.87" style="vector-effect: non-scaling-stroke; fill: none; stroke: rgb(148, 103, 189); stroke-opacity: 1; stroke-width: 1px; opacity: 1;"/></g><g class="points"/><g class="text"/></g><g class="trace scatter trace45afd2" style="stroke-miterlimit: 2; opacity: 1;"><g class="fills"/><g class="errorbars"/><g class="lines"><path class="js-line" d="M0,50.38L24.29,60.81L24.64,60.99L32.38,65.56L32.74,65.82L38.72,69.73L39.07,69.97L50.34,78.27L50.69,78.54L70.4,95.23L70.75,95.57L88.35,112.64L88.7,113.01L102.78,128.15L103.14,128.52L123.9,153.33L124.26,153.77L158.4,200.35L158.75,200.86L183.39,237.36L183.74,237.9L199.94,262.15L200.29,262.67L223.87,297.05L224.22,297.52L229.5,303.83L229.86,303.43L274.91,245.69L275.26,245.28L306.94,209.34L307.3,209.04L312.58,203.38L312.93,203.06L321.02,194.99L321.38,194.51L324.19,191.95L324.54,191.64L331.23,185.65L331.58,185.4L343.9,176.26L344.26,176.08L352,171.47" style="vector-effect: non-scaling-stroke; fill: none; stroke: rgb(140, 86, 75); stroke-opacity: 1; stroke-width: 1px; opacity: 1;"/></g><g class="points"/><g class="text"/></g><g class="trace scatter trace50b74a" style="stroke-miterlimit: 2; opacity: 1;"><g class="fills"/><g class="errorbars"/><g class="lines"><path class="js-line" d="M0,101.24L16.54,118.83L16.9,119.23L32.74,138.43L33.09,138.88L52.45,165.49L52.8,166L76.03,201.78L76.38,202.35L92.58,228.92L92.93,229.5L135.52,299.86L135.87,300.4L138.34,303.22L138.69,303.09L140.8,300.35L141.15,299.82L171.07,255.7L171.42,255.21L194.66,225.35L195.01,224.93L211.55,206.25L211.9,205.88L230.21,187.63L230.56,187.3L250.27,170.24L250.62,169.96L268.22,156.73L268.58,156.48L285.12,145.57L285.47,145.35L302.72,135.38L303.07,135.19L322.78,125.34L323.14,125.18L340.03,117.81L340.38,117.67L352,113.07" style="vector-effect: non-scaling-stroke; fill: none; stroke: rgb(227, 119, 194); stroke-opacity: 1; stroke-width: 1px; opacity: 1;"/></g><g class="points"/><g class="text"/></g><g class="trace scatter trace988284" style="stroke-miterlimit: 2; opacity: 1;"><g class="fills"/><g class="errorbars"/><g class="lines"><path class="js-line" d="M0,100.87L8.45,110.62L8.8,111L19.01,123.22L19.36,123.61L23.94,129.22L24.29,129.65L47.87,159.76L48.22,160.24L71.1,193.19L71.46,193.71L113.7,262.26L114.05,262.86L139.04,302.97L139.39,303.17L140.45,302.52L140.8,302.07L155.23,280.16L155.58,279.63L182.34,242.07L182.69,241.61L204.16,215.16L204.51,214.77L228.45,189.07L228.8,188.72L257.31,163.23L257.66,162.94L281.95,146L282.3,145.78L296.74,137.81L297.09,137.63L326.3,124.23L326.66,124.08L338.98,118.01L339.33,117.82L352,110.64" style="vector-effect: non-scaling-stroke; fill: none; stroke: rgb(127, 127, 127); stroke-opacity: 1; stroke-width: 1px; opacity: 1;"/></g><g class="points"/><g class="text"/></g><g class="trace scatter tracedc0a86" style="stroke-miterlimit: 2; opacity: 1;"><g class="fills"/><g class="errorbars"/><g class="lines"><path class="js-line" d="M0,105.06L15.49,122.05L15.84,122.46L31.68,142.15L32.03,142.61L51.39,169.8L51.74,170.33L65.82,191.97L66.18,192.53L96.1,241.78L96.45,242.37L132.7,302.1L133.06,302.55L134.46,302.97L134.82,302.62L139.74,295.27L140.1,294.73L159.1,266.24L159.46,265.74L175.65,243.47L176,243.01L193.25,221.56L193.6,221.14L210.85,202.06L211.2,201.69L225.98,187.12L226.34,186.8L242.18,172.88L242.53,172.59L260.13,158.98L260.48,158.72L280.54,145.29L280.9,145.07L298.14,135.09L298.5,134.9L318.21,125.03L318.56,124.87L335.1,117.64L335.46,117.5L352,111.04" style="vector-effect: non-scaling-stroke; fill: none; stroke: rgb(188, 189, 34); stroke-opacity: 1; stroke-width: 1px; opacity: 1;"/></g><g class="points"/><g class="text"/></g><g class="trace scatter trace87a9a0" style="stroke-miterlimit: 2; opacity: 1;"><g class="fills"/><g class="errorbars"/><g class="lines"><path class="js-line" d="M0,105.07L10.56,117.62L10.91,118.07L47.87,165.29L48.22,165.78L70.75,198.89L71.1,199.44L82.72,217.87L83.07,218.46L134.82,302.99L135.17,303.16L136.22,302.42L136.58,301.98L149.6,282.08L149.95,281.56L177.06,243.12L177.41,242.66L196.42,218.88L196.77,218.46L209.44,204.07L209.79,203.69L228.45,184.45L228.8,184.11L257.31,159.4L257.66,159.13L281.6,143.1L281.95,142.89L292.16,137.33L292.51,137.14L320.67,124.26L321.02,124.14L330.53,119.7L330.88,119.54L338.62,115.54L338.98,115.36L352,107.97" style="vector-effect: non-scaling-stroke; fill: none; stroke: rgb(23, 190, 207); stroke-opacity: 1; stroke-width: 1px; opacity: 1;"/></g><g class="points"/><g class="text"/></g><g class="trace scatter trace6c0c2b" style="stroke-miterlimit: 2; opacity: 1;"><g class="fills"/><g class="errorbars"/><g class="lines"><path class="js-line" d="M0,117.35L16.19,136.98L16.54,137.43L30.98,157.07L31.33,157.58L48.58,183.51L48.93,184.06L71.1,220.29L71.46,220.89L120.74,302.98L121.09,303.14L122.14,302.42L122.5,301.96L133.41,285.1L133.76,284.56L153.12,256.04L153.47,255.55L171.42,231.66L171.78,231.22L185.86,214.32L186.21,213.92L203.1,195.75L203.46,195.4L217.89,181.61L218.24,181.29L234.08,167.82L234.43,167.54L252.38,154.14L252.74,153.9L268.22,143.75L268.58,143.53L285.82,133.57L286.18,133.38L305.89,123.53L306.24,123.37L329.12,113.7L329.47,113.57L349.89,106.19L350.24,106.07L352,105.48" style="vector-effect: non-scaling-stroke; fill: none; stroke: rgb(31, 119, 180); stroke-opacity: 1; stroke-width: 1px; opacity: 1;"/></g><g class="points"/><g class="text"/></g><g class="trace scatter trace310c26" style="stroke-miterlimit: 2; opacity: 1;"><g class="fills"/><g class="errorbars"/><g class="lines"><path class="js-line" d="M0,118.4L16.19,138.94L16.54,139.42L28.86,155.63L29.22,156.11L38.72,169.23L39.07,169.73L55.62,194.17L55.97,194.71L77.44,229.17L77.79,229.75L122.5,303.08L122.85,303.05L124.96,300.43L125.31,299.88L155.23,254.94L155.58,254.45L179.17,223.44L179.52,223.01L196.77,202.98L197.12,202.59L216.48,182.66L216.83,182.32L230.21,169.99L230.56,169.71L237.25,164.03L237.6,163.74L253.09,151.87L253.44,151.62L268.58,141.7L268.93,141.5L288.64,131.06L288.99,130.91L307.65,122.68L308,122.54L327.01,114.14L327.36,113.93L345.31,104.45L345.66,104.23L352,100.96" style="vector-effect: non-scaling-stroke; fill: none; stroke: rgb(255, 127, 14); stroke-opacity: 1; stroke-width: 1px; opacity: 1;"/></g><g class="points"/><g class="text"/></g><g class="trace scatter trace79df81" style="stroke-miterlimit: 2; opacity: 1;"><g class="fills"/><g class="errorbars"/><g class="lines"><path class="js-line" d="M0,160.57L19.36,191.18L19.71,191.77L42.59,231.1L42.94,231.72L84.48,303L84.83,303L86.24,301.45L86.59,300.92L122.85,245.43L123.2,244.94L139.74,223.06L140.1,222.62L155.94,203.91L156.29,203.52L169.66,189.37L170.02,189.02L186.91,173.16L187.26,172.86L206.62,157.16L206.98,156.9L221.41,146.7L221.76,146.46L242.18,133.92L242.53,133.72L261.18,123.91L261.54,123.74L283.36,113.97L283.71,113.83L301.66,106.94L302.02,106.81L335.1,96.21L335.46,96.11L352,91.6" style="vector-effect: non-scaling-stroke; fill: none; stroke: rgb(44, 160, 44); stroke-opacity: 1; stroke-width: 1px; opacity: 1;"/></g><g class="points"/><g class="text"/></g><g class="trace scatter trace709fb6" style="stroke-miterlimit: 2; opacity: 1;"><g class="fills"/><g class="errorbars"/><g class="lines"><path class="js-line" d="M0,162.76L31.68,210.85L32.03,211.46L72.16,281.61L72.51,282.22L85.18,302.62L85.54,302.7L86.94,301.55L87.3,301.05L99.62,281.41L99.97,280.88L119.68,251.26L120.03,250.77L128.83,238.51L129.18,238.04L143.26,219.76L143.62,219.34L161.92,198.01L162.27,197.62L179.87,179.56L180.22,179.23L195.36,165.52L195.71,165.22L211.55,152.62L211.9,152.39L217.89,148.03L218.24,147.81L224.93,143.24L225.28,143.01L246.4,130.52L246.75,130.35L258.72,124.35L259.07,124.19L286.18,112.59L286.53,112.46L300.61,106.84L300.96,106.71L316.1,100.73L316.45,100.54L321.38,98.68L321.73,98.48L345.66,90.73L346.02,90.66L352,89.42" style="vector-effect: non-scaling-stroke; fill: none; stroke: rgb(214, 39, 40); stroke-opacity: 1; stroke-width: 1px; opacity: 1;"/></g><g class="points"/><g class="text"/></g><g class="trace scatter tracec2a2e6" style="stroke-miterlimit: 2; opacity: 1;"><g class="fills"/><g class="errorbars"/><g class="lines"><path class="js-line" d="M0,296.83L4.22,303.13L4.58,302.89L7.39,298.36L7.74,297.74L32.74,255.37L33.09,254.81L50.69,228.49L51.04,228L67.23,206.59L67.58,206.16L84.83,186.22L85.18,185.85L102.78,168.32L103.14,167.99L120.03,153.54L120.38,153.26L139.39,139.38L139.74,139.15L158.4,127.6L158.75,127.4L177.76,117.4L178.11,117.23L198.53,108.12L198.88,107.98L224.93,98.35L225.28,98.23L247.1,91.53L247.46,91.43L290.4,81L290.75,80.93L331.94,73.43L332.29,73.37L352,70.45" style="vector-effect: non-scaling-stroke; fill: none; stroke: rgb(148, 103, 189); stroke-opacity: 1; stroke-width: 1px; opacity: 1;"/></g><g class="points"/><g class="text"/></g><g class="trace scatter tracecb8ef9" style="stroke-miterlimit: 2; opacity: 1;"><g class="fills"/><g class="errorbars"/><g class="lines"><path class="js-line" d="M0,297.2L3.52,302.14L3.87,302.19L6.34,299.72L6.69,299.32L8.8,295.34L9.15,295.04L45.06,236.21L45.41,235.69L60.54,214.08L60.9,213.66L70.4,201.39L70.75,200.97L81.31,188.59L81.66,188.21L92.22,177.04L92.58,176.69L108.06,162.25L108.42,161.94L118.98,153.26L119.33,153L133.06,142.93L133.41,142.7L155.94,128.69L156.29,128.49L179.87,116.48L180.22,116.32L206.98,105.17L207.33,105.05L244.99,92.71L245.34,92.65L290.75,81.75L291.1,81.75L297.44,80.33L297.79,80.35L300.26,79.71L300.61,79.68L307.65,78.22L308,78.08L316.1,76.43L316.45,76.1L317.5,76.12L317.86,75.94L320.67,75.53L321.02,75.19L322.08,75.06L322.43,74.91L323.84,74.81L324.19,74.65L325.95,74.25L326.3,74.31L328.06,73.73L328.42,73.8L330.18,73.26L330.53,73.36L332.99,72.64L333.34,72.59L340.03,71.29L340.38,71.24L346.72,70.29L347.07,69.86L348.13,69.94L348.48,70.69L349.18,69.66L349.54,70.35L350.94,69.18L351.3,69.12L352,69.01" style="vector-effect: non-scaling-stroke; fill: none; stroke: rgb(140, 86, 75); stroke-opacity: 1; stroke-width: 1px; opacity: 1;"/></g><g class="points"/><g class="text"/></g><g class="trace scatter trace45992d" style="stroke-miterlimit: 2; opacity: 1;"><g class="fills"/><g class="errorbars"/><g class="lines"><path class="js-line" d="M0,297L20.42,261.75L20.77,261.17L35.55,238.07L35.9,237.55L55.62,210.29L55.97,209.84L70.75,192.02L71.1,191.62L88.7,173.13L89.06,172.79L104.9,158.43L105.25,158.13L123.9,143.63L124.26,143.38L141.5,131.96L141.86,131.74L162.98,119.91L163.33,119.73L182.69,110.61L183.04,110.45L206.62,101.14L206.98,101.01L237.95,91.14L238.3,91.04L268.93,83.29L269.28,83.21L300.26,76.89L300.61,76.82L348.83,69.25L349.18,69.2L352,68.83" style="vector-effect: non-scaling-stroke; fill: none; stroke: rgb(227, 119, 194); stroke-opacity: 1; stroke-width: 1px; opacity: 1;"/></g><g class="points"/><g class="text"/></g><g class="trace scatter trace183ca7" style="stroke-miterlimit: 2; opacity: 1;"><g class="fills"/><g class="errorbars"/><g class="lines"><path class="js-line" d="M0,295.12L6.34,285.28L6.69,284.91L8.8,281.11L9.15,280.86L17.6,267.36L17.95,266.62L20.77,262.6L21.12,261.76L26.75,252.84L27.1,252.36L29.57,248.34L29.92,247.77L31.68,245.3L32.03,244.67L41.89,229.7L42.24,229.23L55.26,210.85L55.62,210.45L64.42,199.13L64.77,198.69L88.35,172.99L88.7,172.69L100.32,162.08L100.67,161.82L120.38,146.32L120.74,146.09L134.82,136.54L135.17,136.32L169.66,116.99L170.02,116.8L201.7,102.95L202.05,102.81L236.54,91.5L236.9,91.43L250.98,87.79L251.33,87.69L256.61,86.43L256.96,86.26L266.11,84.28L266.46,84.17L272.1,82.96L272.45,82.9L280.19,81.24L280.54,81.16L301.31,76.58L301.66,76.25L303.42,75.99L303.78,75.93L306.94,75.4L307.3,75.08L309.41,74.87L309.76,74.47L310.46,74.42L310.82,74.31L311.87,74.05L312.22,74.13L316.1,73.14L316.45,72.77L317.5,72.81L317.86,72.61L320.67,72.19L321.02,71.82L322.08,71.71L322.43,71.54L323.49,71.55L323.84,71.46L325.95,70.92L326.3,71L327.71,70.59L328.06,70.4L329.82,70.1L330.18,69.95L331.58,69.83L331.94,69.8L334.75,69.18L335.1,69.21L338.27,68.75L338.62,68.71L345.31,68.02L345.66,68.46L348.13,68.1L348.48,69.01L348.83,67.84L349.18,67.95L349.54,68.8L350.94,67.66L351.3,67.61L352,67.5" style="vector-effect: non-scaling-stroke; fill: none; stroke: rgb(127, 127, 127); stroke-opacity: 1; stroke-width: 1px; opacity: 1;"/></g><g class="points"/><g class="text"/></g><g class="trace scatter tracecd6eb0" style="stroke-miterlimit: 2; opacity: 1;"><g class="fills"/><g class="errorbars"/><g class="lines"><path class="js-line" d="M0,274.28L16.54,246.94L16.9,246.39L32.38,223.4L32.74,222.91L48.22,202.5L48.58,202.06L64.42,183.75L64.77,183.37L79.55,168.42L79.9,168.09L99.26,151.3L99.62,151.02L115.1,139.55L115.46,139.31L133.76,127.67L134.11,127.46L155.94,115.82L156.29,115.65L176.7,106.56L177.06,106.41L202.4,97.06L202.75,96.94L224.22,90.36L224.58,90.26L250.62,83.58L250.98,83.5L285.47,76.36L285.82,76.3L313.63,71.64L313.98,71.59L352,66.44" style="vector-effect: non-scaling-stroke; fill: none; stroke: rgb(188, 189, 34); stroke-opacity: 1; stroke-width: 1px; opacity: 1;"/></g><g class="points"/><g class="text"/></g><g class="trace scatter trace6f80d8" style="stroke-miterlimit: 2; opacity: 1;"><g class="fills"/><g class="errorbars"/><g class="lines"><path class="js-line" d="M0,275.72L6.69,263.36L7.04,262.17L9.5,257.71L9.86,257.4L13.02,250.93L13.38,250.78L22.53,235.57L22.88,235.33L25.34,231.52L25.7,230.83L32.38,221.83L32.74,221.27L41.89,210.25L42.24,209.84L51.04,200.19L51.39,199.8L56.67,194.34L57.02,193.99L74.62,176.92L74.98,176.63L104.54,151.18L104.9,150.93L121.79,138.29L122.14,138.05L129.54,133.02L129.89,132.78L160.51,114.9L160.86,114.73L177.41,106.83L177.76,106.68L187.62,102.43L187.97,102.31L197.47,98.55L197.82,98.45L208.03,94.69L208.38,94.58L230.21,87.45L230.56,87.38L237.95,85.17L238.3,85.04L246.4,82.73L246.75,82.61L285.12,74.19L285.47,74.12L300.61,72.24L300.96,72.23L304.48,71.84L304.83,71.86L310.82,71.37L311.17,70.89L316.1,71.1L316.45,70.77L317.5,71.02L317.86,70.82L319.26,70.91L319.62,70.59L326.66,70.3L327.01,70.12L328.06,70.59L328.42,70.68L329.82,70.3L330.18,70.32L331.23,70.46L331.58,70.26L341.44,69.33L341.79,69.33L344.26,68.66L344.61,68.64L346.72,68.52L347.07,67.88L348.13,68.01L348.48,68.98L349.18,67.44L349.54,68.43L350.94,66.67L351.3,66.64L352,66.58" style="vector-effect: non-scaling-stroke; fill: none; stroke: rgb(23, 190, 207); stroke-opacity: 1; stroke-width: 1px; opacity: 1;"/></g><g class="points"/><g class="text"/></g></g></g><g class="overplot"/><path class="xlines-above crisp" d="M0,0" style="fill: none;"/><path class="ylines-above crisp" d="M0,0" style="fill: none;"/><g class="overlines-above"/><g class="xaxislayer-above"><g class="xtick"><text text-anchor="middle" x="0" y="433" transform="translate(80,0)" style="font-family: 'Open Sans', verdana, arial, sans-serif; font-size: 12px; fill: rgb(68, 68, 68); fill-opacity: 1; white-space: pre; opacity: 1;">25</text></g><g class="xtick"><text text-anchor="middle" x="0" y="433" style="font-family: 'Open Sans', verdana, arial, sans-serif; font-size: 12px; fill: rgb(68, 68, 68); fill-opacity: 1; white-space: pre; opacity: 1;" transform="translate(115.2,0)">26</text></g><g class="xtick"><text text-anchor="middle" x="0" y="433" style="font-family: 'Open Sans', verdana, arial, sans-serif; font-size: 12px; fill: rgb(68, 68, 68); fill-opacity: 1; white-space: pre; opacity: 1;" transform="translate(150.4,0)">27</text></g><g class="xtick"><text text-anchor="middle" x="0" y="433" style="font-family: 'Open Sans', verdana, arial, sans-serif; font-size: 12px; fill: rgb(68, 68, 68); fill-opacity: 1; white-space: pre; opacity: 1;" transform="translate(185.6,0)">28</text></g><g class="xtick"><text text-anchor="middle" x="0" y="433" style="font-family: 'Open Sans', verdana, arial, sans-serif; font-size: 12px; fill: rgb(68, 68, 68); fill-opacity: 1; white-space: pre; opacity: 1;" transform="translate(220.8,0)">29</text></g><g class="xtick"><text text-anchor="middle" x="0" y="433" style="font-family: 'Open Sans', verdana, arial, sans-serif; font-size: 12px; fill: rgb(68, 68, 68); fill-opacity: 1; white-space: pre; opacity: 1;" transform="translate(256,0)">30</text></g><g class="xtick"><text text-anchor="middle" x="0" y="433" style="font-family: 'Open Sans', verdana, arial, sans-serif; font-size: 12px; fill: rgb(68, 68, 68); fill-opacity: 1; white-space: pre; opacity: 1;" transform="translate(291.2,0)">31</text></g><g class="xtick"><text text-anchor="middle" x="0" y="433" style="font-family: 'Open Sans', verdana, arial, sans-serif; font-size: 12px; fill: rgb(68, 68, 68); fill-opacity: 1; white-space: pre; opacity: 1;" transform="translate(326.4,0)">32</text></g><g class="xtick"><text text-anchor="middle" x="0" y="433" style="font-family: 'Open Sans', verdana, arial, sans-serif; font-size: 12px; fill: rgb(68, 68, 68); fill-opacity: 1; white-space: pre; opacity: 1;" transform="translate(361.6,0)">33</text></g><g class="xtick"><text text-anchor="middle" x="0" y="433" style="font-family: 'Open Sans', verdana, arial, sans-serif; font-size: 12px; fill: rgb(68, 68, 68); fill-opacity: 1; white-space: pre; opacity: 1;" transform="translate(396.8,0)">34</text></g><g class="xtick"><text text-anchor="middle" x="0" y="433" style="font-family: 'Open Sans', verdana, arial, sans-serif; font-size: 12px; fill: rgb(68, 68, 68); fill-opacity: 1; white-space: pre; opacity: 1;" transform="translate(432,0)">35</text></g></g><g class="yaxislayer-above"><g class="ytick"><text text-anchor="end" x="79" y="4.199999999999999" transform="translate(0,404.49)" style="font-family: 'Open Sans', verdana, arial, sans-serif; font-size: 12px; fill: rgb(68, 68, 68); fill-opacity: 1; white-space: pre; opacity: 1;">0</text></g><g class="ytick"><text text-anchor="end" x="79" y="4.199999999999999" style="font-family: 'Open Sans', verdana, arial, sans-serif; font-size: 12px; fill: rgb(68, 68, 68); fill-opacity: 1; white-space: pre; opacity: 1;" transform="translate(0,374.48)">0.1</text></g><g class="ytick"><text text-anchor="end" x="79" y="4.199999999999999" style="font-family: 'Open Sans', verdana, arial, sans-serif; font-size: 12px; fill: rgb(68, 68, 68); fill-opacity: 1; white-space: pre; opacity: 1;" transform="translate(0,344.48)">0.2</text></g><g class="ytick"><text text-anchor="end" x="79" y="4.199999999999999" style="font-family: 'Open Sans', verdana, arial, sans-serif; font-size: 12px; fill: rgb(68, 68, 68); fill-opacity: 1; white-space: pre; opacity: 1;" transform="translate(0,314.48)">0.3</text></g><g class="ytick"><text text-anchor="end" x="79" y="4.199999999999999" style="font-family: 'Open Sans', verdana, arial, sans-serif; font-size: 12px; fill: rgb(68, 68, 68); fill-opacity: 1; white-space: pre; opacity: 1;" transform="translate(0,284.48)">0.4</text></g><g class="ytick"><text text-anchor="end" x="79" y="4.199999999999999" style="font-family: 'Open Sans', verdana, arial, sans-serif; font-size: 12px; fill: rgb(68, 68, 68); fill-opacity: 1; white-space: pre; opacity: 1;" transform="translate(0,254.48)">0.5</text></g><g class="ytick"><text text-anchor="end" x="79" y="4.199999999999999" style="font-family: 'Open Sans', verdana, arial, sans-serif; font-size: 12px; fill: rgb(68, 68, 68); fill-opacity: 1; white-space: pre; opacity: 1;" transform="translate(0,224.48000000000002)">0.6</text></g><g class="ytick"><text text-anchor="end" x="79" y="4.199999999999999" style="font-family: 'Open Sans', verdana, arial, sans-serif; font-size: 12px; fill: rgb(68, 68, 68); fill-opacity: 1; white-space: pre; opacity: 1;" transform="translate(0,194.48000000000002)">0.7</text></g><g class="ytick"><text text-anchor="end" x="79" y="4.199999999999999" style="font-family: 'Open Sans', verdana, arial, sans-serif; font-size: 12px; fill: rgb(68, 68, 68); fill-opacity: 1; white-space: pre; opacity: 1;" transform="translate(0,164.48000000000002)">0.8</text></g><g class="ytick"><text text-anchor="end" x="79" y="4.199999999999999" style="font-family: 'Open Sans', verdana, arial, sans-serif; font-size: 12px; fill: rgb(68, 68, 68); fill-opacity: 1; white-space: pre; opacity: 1;" transform="translate(0,134.48)">0.9</text></g><g class="ytick"><text text-anchor="end" x="79" y="4.199999999999999" style="font-family: 'Open Sans', verdana, arial, sans-serif; font-size: 12px; fill: rgb(68, 68, 68); fill-opacity: 1; white-space: pre; opacity: 1;" transform="translate(0,104.47)">1</text></g></g><g class="overaxes-above"/></g></g><g class="polarlayer"/><g class="smithlayer"/><g class="ternarylayer"/><g class="geolayer"/><g class="funnelarealayer"/><g class="pielayer"/><g class="iciclelayer"/><g class="treemaplayer"/><g class="sunburstlayer"/><g class="glimages"/><defs id="topdefs-e017c1"><g class="clips"/><clipPath id="legende017c1"><rect width="249" height="320" x="0" y="0"/></clipPath></defs><g class="layer-above"><g class="imagelayer"/><g class="shapelayer"/></g><g class="infolayer"><g class="legend" pointer-events="all" transform="translate(439.04,100)"><rect class="bg" shape-rendering="crispEdges" style="stroke: rgb(68, 68, 68); stroke-opacity: 1; fill: rgb(255, 255, 255); fill-opacity: 1; stroke-width: 0px;" width="249" height="320" x="0" y="0"/><g class="scrollbox" transform="" clip-path="url(#legende017c1)"><g class="groups"><g class="traces" transform="translate(0,14.5)" style="opacity: 1;"><text class="legendtext" text-anchor="start" x="40" y="4.680000000000001" style="font-family: 'Open Sans', verdana, arial, sans-serif; font-size: 12px; fill: rgb(68, 68, 68); fill-opacity: 1; white-space: pre;"> TrueLambda= 7.1206030150754</text><g class="layers" style="opacity: 1;"><g class="legendfill"/><g class="legendlines"><path class="js-line" d="M5,0h30" style="fill: none; stroke: rgb(31, 119, 180); stroke-opacity: 1; stroke-width: 1px;"/></g><g class="legendsymbols"><g class="legendpoints"/></g></g><rect class="legendtoggle" x="0" y="-9.5" width="243.609375" height="19" style="fill: rgb(0, 0, 0); fill-opacity: 0;"/></g><g class="traces" transform="translate(0,33.5)" style="opacity: 1;"><text class="legendtext" text-anchor="start" x="40" y="4.680000000000001" style="font-family: 'Open Sans', verdana, arial, sans-serif; font-size: 12px; fill: rgb(68, 68, 68); fill-opacity: 1; white-space: pre;">PredLambda= 7.1206030150754</text><g class="layers" style="opacity: 1;"><g class="legendfill"/><g class="legendlines"><path class="js-line" d="M5,0h30" style="fill: none; stroke: rgb(255, 127, 14); stroke-opacity: 1; stroke-width: 1px;"/></g><g class="legendsymbols"><g class="legendpoints"/></g></g><rect class="legendtoggle" x="0" y="-9.5" width="243.609375" height="19" style="fill: rgb(0, 0, 0); fill-opacity: 0;"/></g><g class="traces" transform="translate(0,52.5)" style="opacity: 1;"><text class="legendtext" text-anchor="start" x="40" y="4.680000000000001" style="font-family: 'Open Sans', verdana, arial, sans-serif; font-size: 12px; fill: rgb(68, 68, 68); fill-opacity: 1; white-space: pre;"> TrueLambda= 7.1809045226131</text><g class="layers" style="opacity: 1;"><g class="legendfill"/><g class="legendlines"><path class="js-line" d="M5,0h30" style="fill: none; stroke: rgb(44, 160, 44); stroke-opacity: 1; stroke-width: 1px;"/></g><g class="legendsymbols"><g class="legendpoints"/></g></g><rect class="legendtoggle" x="0" y="-9.5" width="243.609375" height="19" style="fill: rgb(0, 0, 0); fill-opacity: 0;"/></g><g class="traces" transform="translate(0,71.5)" style="opacity: 1;"><text class="legendtext" text-anchor="start" x="40" y="4.680000000000001" style="font-family: 'Open Sans', verdana, arial, sans-serif; font-size: 12px; fill: rgb(68, 68, 68); fill-opacity: 1; white-space: pre;">PredLambda= 7.1809045226131</text><g class="layers" style="opacity: 1;"><g class="legendfill"/><g class="legendlines"><path class="js-line" d="M5,0h30" style="fill: none; stroke: rgb(214, 39, 40); stroke-opacity: 1; stroke-width: 1px;"/></g><g class="legendsymbols"><g class="legendpoints"/></g></g><rect class="legendtoggle" x="0" y="-9.5" width="243.609375" height="19" style="fill: rgb(0, 0, 0); fill-opacity: 0;"/></g><g class="traces" transform="translate(0,90.5)" style="opacity: 1;"><text class="legendtext" text-anchor="start" x="40" y="4.680000000000001" style="font-family: 'Open Sans', verdana, arial, sans-serif; font-size: 12px; fill: rgb(68, 68, 68); fill-opacity: 1; white-space: pre;"> TrueLambda= 8.5276381909548</text><g class="layers" style="opacity: 1;"><g class="legendfill"/><g class="legendlines"><path class="js-line" d="M5,0h30" style="fill: none; stroke: rgb(148, 103, 189); stroke-opacity: 1; stroke-width: 1px;"/></g><g class="legendsymbols"><g class="legendpoints"/></g></g><rect class="legendtoggle" x="0" y="-9.5" width="243.609375" height="19" style="fill: rgb(0, 0, 0); fill-opacity: 0;"/></g><g class="traces" transform="translate(0,109.5)" style="opacity: 1;"><text class="legendtext" text-anchor="start" x="40" y="4.680000000000001" style="font-family: 'Open Sans', verdana, arial, sans-serif; font-size: 12px; fill: rgb(68, 68, 68); fill-opacity: 1; white-space: pre;">PredLambda= 8.5276381909548</text><g class="layers" style="opacity: 1;"><g class="legendfill"/><g class="legendlines"><path class="js-line" d="M5,0h30" style="fill: none; stroke: rgb(140, 86, 75); stroke-opacity: 1; stroke-width: 1px;"/></g><g class="legendsymbols"><g class="legendpoints"/></g></g><rect class="legendtoggle" x="0" y="-9.5" width="243.609375" height="19" style="fill: rgb(0, 0, 0); fill-opacity: 0;"/></g><g class="traces" transform="translate(0,128.5)" style="opacity: 1;"><text class="legendtext" text-anchor="start" x="40" y="4.680000000000001" style="font-family: 'Open Sans', verdana, arial, sans-serif; font-size: 12px; fill: rgb(68, 68, 68); fill-opacity: 1; white-space: pre;"> TrueLambda= 9.2914572864322</text><g class="layers" style="opacity: 1;"><g class="legendfill"/><g class="legendlines"><path class="js-line" d="M5,0h30" style="fill: none; stroke: rgb(227, 119, 194); stroke-opacity: 1; stroke-width: 1px;"/></g><g class="legendsymbols"><g class="legendpoints"/></g></g><rect class="legendtoggle" x="0" y="-9.5" width="243.609375" height="19" style="fill: rgb(0, 0, 0); fill-opacity: 0;"/></g><g class="traces" transform="translate(0,147.5)" style="opacity: 1;"><text class="legendtext" text-anchor="start" x="40" y="4.680000000000001" style="font-family: 'Open Sans', verdana, arial, sans-serif; font-size: 12px; fill: rgb(68, 68, 68); fill-opacity: 1; white-space: pre;">PredLambda= 9.2914572864322</text><g class="layers" style="opacity: 1;"><g class="legendfill"/><g class="legendlines"><path class="js-line" d="M5,0h30" style="fill: none; stroke: rgb(127, 127, 127); stroke-opacity: 1; stroke-width: 1px;"/></g><g class="legendsymbols"><g class="legendpoints"/></g></g><rect class="legendtoggle" x="0" y="-9.5" width="243.609375" height="19" style="fill: rgb(0, 0, 0); fill-opacity: 0;"/></g><g class="traces" transform="translate(0,166.5)" style="opacity: 1;"><text class="legendtext" text-anchor="start" x="40" y="4.680000000000001" style="font-family: 'Open Sans', verdana, arial, sans-serif; font-size: 12px; fill: rgb(68, 68, 68); fill-opacity: 1; white-space: pre;"> TrueLambda= 9.3316582914573</text><g class="layers" style="opacity: 1;"><g class="legendfill"/><g class="legendlines"><path class="js-line" d="M5,0h30" style="fill: none; stroke: rgb(188, 189, 34); stroke-opacity: 1; stroke-width: 1px;"/></g><g class="legendsymbols"><g class="legendpoints"/></g></g><rect class="legendtoggle" x="0" y="-9.5" width="243.609375" height="19" style="fill: rgb(0, 0, 0); fill-opacity: 0;"/></g><g class="traces" transform="translate(0,185.5)" style="opacity: 1;"><text class="legendtext" text-anchor="start" x="40" y="4.680000000000001" style="font-family: 'Open Sans', verdana, arial, sans-serif; font-size: 12px; fill: rgb(68, 68, 68); fill-opacity: 1; white-space: pre;">PredLambda= 9.3316582914573</text><g class="layers" style="opacity: 1;"><g class="legendfill"/><g class="legendlines"><path class="js-line" d="M5,0h30" style="fill: none; stroke: rgb(23, 190, 207); stroke-opacity: 1; stroke-width: 1px;"/></g><g class="legendsymbols"><g class="legendpoints"/></g></g><rect class="legendtoggle" x="0" y="-9.5" width="243.609375" height="19" style="fill: rgb(0, 0, 0); fill-opacity: 0;"/></g><g class="traces" transform="translate(0,204.5)" style="opacity: 1;"><text class="legendtext" text-anchor="start" x="40" y="4.680000000000001" style="font-family: 'Open Sans', verdana, arial, sans-serif; font-size: 12px; fill: rgb(68, 68, 68); fill-opacity: 1; white-space: pre;"> TrueLambda= 9.4522613065327</text><g class="layers" style="opacity: 1;"><g class="legendfill"/><g class="legendlines"><path class="js-line" d="M5,0h30" style="fill: none; stroke: rgb(31, 119, 180); stroke-opacity: 1; stroke-width: 1px;"/></g><g class="legendsymbols"><g class="legendpoints"/></g></g><rect class="legendtoggle" x="0" y="-9.5" width="243.609375" height="19" style="fill: rgb(0, 0, 0); fill-opacity: 0;"/></g><g class="traces" transform="translate(0,223.5)" style="opacity: 1;"><text class="legendtext" text-anchor="start" x="40" y="4.680000000000001" style="font-family: 'Open Sans', verdana, arial, sans-serif; font-size: 12px; fill: rgb(68, 68, 68); fill-opacity: 1; white-space: pre;">PredLambda= 9.4522613065327</text><g class="layers" style="opacity: 1;"><g class="legendfill"/><g class="legendlines"><path class="js-line" d="M5,0h30" style="fill: none; stroke: rgb(255, 127, 14); stroke-opacity: 1; stroke-width: 1px;"/></g><g class="legendsymbols"><g class="legendpoints"/></g></g><rect class="legendtoggle" x="0" y="-9.5" width="243.609375" height="19" style="fill: rgb(0, 0, 0); fill-opacity: 0;"/></g><g class="traces" transform="translate(0,242.5)" style="opacity: 1;"><text class="legendtext" text-anchor="start" x="40" y="4.680000000000001" style="font-family: 'Open Sans', verdana, arial, sans-serif; font-size: 12px; fill: rgb(68, 68, 68); fill-opacity: 1; white-space: pre;"> TrueLambda= 9.8140703517588</text><g class="layers" style="opacity: 1;"><g class="legendfill"/><g class="legendlines"><path class="js-line" d="M5,0h30" style="fill: none; stroke: rgb(44, 160, 44); stroke-opacity: 1; stroke-width: 1px;"/></g><g class="legendsymbols"><g class="legendpoints"/></g></g><rect class="legendtoggle" x="0" y="-9.5" width="243.609375" height="19" style="fill: rgb(0, 0, 0); fill-opacity: 0;"/></g><g class="traces" transform="translate(0,261.5)" style="opacity: 1;"><text class="legendtext" text-anchor="start" x="40" y="4.680000000000001" style="font-family: 'Open Sans', verdana, arial, sans-serif; font-size: 12px; fill: rgb(68, 68, 68); fill-opacity: 1; white-space: pre;">PredLambda= 9.8140703517588</text><g class="layers" style="opacity: 1;"><g class="legendfill"/><g class="legendlines"><path class="js-line" d="M5,0h30" style="fill: none; stroke: rgb(214, 39, 40); stroke-opacity: 1; stroke-width: 1px;"/></g><g class="legendsymbols"><g class="legendpoints"/></g></g><rect class="legendtoggle" x="0" y="-9.5" width="243.609375" height="19" style="fill: rgb(0, 0, 0); fill-opacity: 0;"/></g><g class="traces" transform="translate(0,280.5)" style="opacity: 1;"><text class="legendtext" text-anchor="start" x="40" y="4.680000000000001" style="font-family: 'Open Sans', verdana, arial, sans-serif; font-size: 12px; fill: rgb(68, 68, 68); fill-opacity: 1; white-space: pre;"> TrueLambda= 10.718592964824</text><g class="layers" style="opacity: 1;"><g class="legendfill"/><g class="legendlines"><path class="js-line" d="M5,0h30" style="fill: none; stroke: rgb(148, 103, 189); stroke-opacity: 1; stroke-width: 1px;"/></g><g class="legendsymbols"><g class="legendpoints"/></g></g><rect class="legendtoggle" x="0" y="-9.5" width="243.609375" height="19" style="fill: rgb(0, 0, 0); fill-opacity: 0;"/></g><g class="traces" transform="translate(0,299.5)" style="opacity: 1;"><text class="legendtext" text-anchor="start" x="40" y="4.680000000000001" style="font-family: 'Open Sans', verdana, arial, sans-serif; font-size: 12px; fill: rgb(68, 68, 68); fill-opacity: 1; white-space: pre;">PredLambda= 10.718592964824</text><g class="layers" style="opacity: 1;"><g class="legendfill"/><g class="legendlines"><path class="js-line" d="M5,0h30" style="fill: none; stroke: rgb(140, 86, 75); stroke-opacity: 1; stroke-width: 1px;"/></g><g class="legendsymbols"><g class="legendpoints"/></g></g><rect class="legendtoggle" x="0" y="-9.5" width="243.609375" height="19" style="fill: rgb(0, 0, 0); fill-opacity: 0;"/></g><g class="traces" transform="translate(0,318.5)" style="opacity: 1;"><text class="legendtext" text-anchor="start" x="40" y="4.680000000000001" style="font-family: 'Open Sans', verdana, arial, sans-serif; font-size: 12px; fill: rgb(68, 68, 68); fill-opacity: 1; white-space: pre;"> TrueLambda= 10.819095477387</text><g class="layers" style="opacity: 1;"><g class="legendfill"/><g class="legendlines"><path class="js-line" d="M5,0h30" style="fill: none; stroke: rgb(227, 119, 194); stroke-opacity: 1; stroke-width: 1px;"/></g><g class="legendsymbols"><g class="legendpoints"/></g></g><rect class="legendtoggle" x="0" y="-9.5" width="243.609375" height="19" style="fill: rgb(0, 0, 0); fill-opacity: 0;"/></g><g class="traces" transform="translate(0,337.5)" style="opacity: 1;"><text class="legendtext" text-anchor="start" x="40" y="4.680000000000001" style="font-family: 'Open Sans', verdana, arial, sans-serif; font-size: 12px; fill: rgb(68, 68, 68); fill-opacity: 1; white-space: pre;">PredLambda= 10.819095477387</text><g class="layers" style="opacity: 1;"><g class="legendfill"/><g class="legendlines"><path class="js-line" d="M5,0h30" style="fill: none; stroke: rgb(127, 127, 127); stroke-opacity: 1; stroke-width: 1px;"/></g><g class="legendsymbols"><g class="legendpoints"/></g></g><rect class="legendtoggle" x="0" y="-9.5" width="243.609375" height="19" style="fill: rgb(0, 0, 0); fill-opacity: 0;"/></g><g class="traces" transform="translate(0,356.5)" style="opacity: 1;"><text class="legendtext" text-anchor="start" x="40" y="4.680000000000001" style="font-family: 'Open Sans', verdana, arial, sans-serif; font-size: 12px; fill: rgb(68, 68, 68); fill-opacity: 1; white-space: pre;"> TrueLambda= 10.979899497487</text><g class="layers" style="opacity: 1;"><g class="legendfill"/><g class="legendlines"><path class="js-line" d="M5,0h30" style="fill: none; stroke: rgb(188, 189, 34); stroke-opacity: 1; stroke-width: 1px;"/></g><g class="legendsymbols"><g class="legendpoints"/></g></g><rect class="legendtoggle" x="0" y="-9.5" width="243.609375" height="19" style="fill: rgb(0, 0, 0); fill-opacity: 0;"/></g><g class="traces" transform="translate(0,375.5)" style="opacity: 1;"><text class="legendtext" text-anchor="start" x="40" y="4.680000000000001" style="font-family: 'Open Sans', verdana, arial, sans-serif; font-size: 12px; fill: rgb(68, 68, 68); fill-opacity: 1; white-space: pre;">PredLambda= 10.979899497487</text><g class="layers" style="opacity: 1;"><g class="legendfill"/><g class="legendlines"><path class="js-line" d="M5,0h30" style="fill: none; stroke: rgb(23, 190, 207); stroke-opacity: 1; stroke-width: 1px;"/></g><g class="legendsymbols"><g class="legendpoints"/></g></g><rect class="legendtoggle" x="0" y="-9.5" width="243.609375" height="19" style="fill: rgb(0, 0, 0); fill-opacity: 0;"/></g></g></g><rect class="scrollbar" rx="20" ry="3" width="0" height="0" style="fill: rgb(128, 139, 164); fill-opacity: 1;" x="0" y="0"/></g><g class="g-gtitle"><text class="gtitle" x="350" y="50" text-anchor="middle" dy="0em" style="font-family: Rockwell; font-size: 24px; fill: rgb(68, 68, 68); opacity: 1; font-weight: normal; white-space: pre;">S-Parameters [Magnitude]</text></g><g class="g-xtitle"/><g class="g-ytitle"/></g></svg>